<?xml version="1.0" encoding="utf-8"?>
<!-- Generator: Adobe Illustrator 24.0.2, SVG Export Plug-In . SVG Version: 6.00 Build 0)  -->
<svg version="1.1" id="Capa_1" xmlns="http://www.w3.org/2000/svg" xmlns:xlink="http://www.w3.org/1999/xlink" x="0px" y="0px"
	 viewBox="0 0 125.3 133.65" style="enable-background:new 0 0 125.3 133.65;" xml:space="preserve">
<style type="text/css">
	.st0{fill:url(#SVGID_1_);}
	.st1{stroke:url(#SVGID_2_);stroke-width:1.7375;stroke-linecap:round;stroke-linejoin:round;stroke-opacity:0.8814;}
	.st2{stroke:url(#SVGID_3_);stroke-width:1.7375;stroke-linecap:round;stroke-linejoin:round;stroke-opacity:0.8814;}
	.st3{fill:#D4D5D5;stroke:#FFFFFF;stroke-width:1.7375;stroke-linecap:round;stroke-linejoin:round;}
	.st4{fill:#FFFFFF;stroke:#5A39AD;stroke-width:0.8227;stroke-linecap:round;stroke-linejoin:round;}
	.st5{fill:none;stroke:#5939AD;stroke-width:0.8227;stroke-linecap:round;stroke-linejoin:round;}
</style>
<linearGradient id="SVGID_1_" gradientUnits="userSpaceOnUse" x1="42.7268" y1="665.1375" x2="85.0228" y2="790.2435" gradientTransform="matrix(1 0 0 1 0 -660.9902)">
	<stop  offset="0.2917" style="stop-color:#6332A9"/>
	<stop  offset="1" style="stop-color:#126FCC"/>
</linearGradient>
<path class="st0" d="M43.55,3.87c-18,6.1-30.7,16.8-37.8,31.9c-5.5,11.6-6.8,24.2-4.3,38.8c0.9,4.9,5.2,18.2,7.3,22.2
	c6.6,12.7,14.3,21.3,24.4,27.6c13,8,29.3,10.5,45.1,7c2.1-0.5,13.5-4.3,14.7-5l1.2-0.6l-2.9-8.6l-2.9-8.6l-0.8,0.5
	c-0.5,0.3-2.9,1.3-5.4,2.3c-11.6,4.5-22.9,4.3-33.4-0.7c-9-4.3-15.2-10.9-20.1-21.5l-0.9-2l48.5-16.4l48.5-16.4l-0.4-1.8
	c-0.2-1-1.1-4.2-2-7.2c-3.4-11.7-8.6-20.7-16.3-28.6c-7.4-7.5-15.3-12.2-25-14.8C68.75-1.23,57.05-0.63,43.55,3.87z M49.35,20.57
	c0.8-0.3,1.5-0.5,2.2-0.7s1.5-0.4,2.2-0.6c0.7-0.2,1.4-0.4,2-0.5s1.2-0.3,1.8-0.3c0.5-0.1,1.1-0.2,1.6-0.2c0.5-0.1,1.1-0.1,1.6-0.2
	c0.5,0,1.1-0.1,1.6-0.1s1.1,0,1.6,0c0.5,0,1,0,1.6,0c0.5,0,1,0,1.5,0.1c0.5,0,1,0.1,1.5,0.1c0.5,0.1,1,0.1,1.5,0.2
	c0.5,0.1,1,0.1,1.5,0.2c0.5,0.1,1,0.2,1.5,0.3s1,0.2,1.4,0.3c0.5,0.1,1,0.3,1.4,0.4c0.5,0.1,0.9,0.3,1.4,0.4
	c0.5,0.2,0.9,0.3,1.4,0.5s0.9,0.4,1.3,0.5c0.4,0.2,0.9,0.4,1.3,0.6c0.4,0.2,0.9,0.4,1.3,0.7c0.4,0.2,0.8,0.5,1.3,0.7
	c0.4,0.2,0.8,0.5,1.2,0.8s0.8,0.5,1.2,0.8c0.4,0.3,0.8,0.6,1.2,0.8c0.4,0.3,0.8,0.6,1.1,0.9c0.4,0.3,0.7,0.6,1.1,0.9
	c0.4,0.3,0.7,0.7,1.1,1c0.3,0.3,0.7,0.7,1,1c0.3,0.4,0.7,0.7,1,1.1c0.3,0.4,0.6,0.7,1,1.1c0.3,0.4,0.6,0.8,0.9,1.2s0.6,0.8,0.9,1.2
	s0.6,0.8,0.8,1.3c0.3,0.4,0.5,0.9,0.8,1.3s0.5,0.9,0.7,1.4c0.2,0.4,0.5,0.9,0.7,1.3c0.2,0.5,0.5,1,0.7,1.4c0.2,0.5,0.4,0.9,0.6,1.3
	s0.3,0.8,0.4,1.1l0.7,2.1l-39.2,13.3l-39.3,13.3l-0.3-0.8c-0.1-0.2-0.1-0.5-0.2-0.8s-0.1-0.7-0.2-1.1c-0.1-0.8-0.3-1.8-0.4-2.8
	s-0.3-2.1-0.3-3.1c-0.1-1-0.2-2-0.2-2.8c0-0.5,0-1,0-1.4c0-0.5,0-1,0-1.4c0-0.5,0-0.9,0.1-1.4c0-0.5,0.1-0.9,0.1-1.4
	s0.1-0.9,0.2-1.4s0.1-0.9,0.2-1.4s0.2-0.9,0.3-1.4c0.1-0.5,0.2-0.9,0.3-1.3c0.1-0.4,0.2-0.9,0.3-1.3c0.1-0.4,0.3-0.9,0.4-1.3
	s0.3-0.9,0.4-1.3c0.2-0.4,0.3-0.9,0.5-1.3s0.3-0.8,0.5-1.3c0.2-0.4,0.4-0.8,0.6-1.2s0.4-0.8,0.6-1.2c0.2-0.4,0.4-0.8,0.6-1.2
	c0.2-0.4,0.5-0.8,0.7-1.2c0.2-0.4,0.5-0.8,0.7-1.1c0.2-0.4,0.5-0.7,0.8-1.1s0.5-0.7,0.8-1.1c0.3-0.4,0.6-0.7,0.8-1.1
	c0.3-0.3,0.6-0.7,0.9-1s0.6-0.7,0.9-1s0.6-0.7,1-1c0.3-0.3,0.7-0.6,1-0.9c0.3-0.3,0.7-0.6,1-0.9c0.4-0.3,0.7-0.6,1.1-0.9
	c0.4-0.3,0.7-0.6,1.1-0.8c0.4-0.3,0.8-0.5,1.1-0.8c0.4-0.3,0.8-0.5,1.2-0.8s0.8-0.5,1.2-0.7s0.8-0.5,1.2-0.7c0.5-0.3,1-0.5,1.6-0.8
	s1.2-0.5,1.9-0.8s1.4-0.6,2.1-0.8C47.85,21.07,48.65,20.87,49.35,20.57z"/>
<linearGradient id="SVGID_2_" gradientUnits="userSpaceOnUse" x1="45.0671" y1="704.2438" x2="48.2876" y2="713.7698" gradientTransform="matrix(1 0 0 1 0 -660.9902)">
	<stop  offset="0" style="stop-color:#6332A9"/>
	<stop  offset="1" style="stop-color:#4B44B3"/>
</linearGradient>
<path class="st1" d="M45.15,43.27l-0.2,0.1c-1.3,0.4-2,1.7-1.6,2.9l1.8,5.2c0.4,1.2,1.8,1.8,3.1,1.4l0.2-0.1c1.3-0.4,2-1.8,1.6-2.9
	l-1.8-5.2C47.75,43.37,46.45,42.77,45.15,43.27z"/>
<linearGradient id="SVGID_3_" gradientUnits="userSpaceOnUse" x1="63.8954" y1="697.8788" x2="67.1159" y2="707.4048" gradientTransform="matrix(1 0 0 1 0 -660.9902)">
	<stop  offset="0" style="stop-color:#6332A9"/>
	<stop  offset="1" style="stop-color:#4846B5"/>
</linearGradient>
<path class="st2" d="M63.95,36.87l-0.2,0.1c-1.3,0.4-2,1.8-1.6,2.9l1.8,5.2c0.4,1.2,1.8,1.8,3.1,1.3l0.2-0.1c1.3-0.4,2-1.7,1.6-2.9
	l-1.8-5.2C66.55,37.07,65.25,36.47,63.95,36.87z"/>
<path class="st3" d="M22.15,54.17c-0.1,0-0.2,0-0.4,0c-2.9,0.1-5.6,1.3-7.6,3.4s-3.1,4.9-3,7.8c0.1,2.9,1.3,5.6,3.4,7.6
	s4.9,3.1,7.8,3c0.1,0,0.2,0,0.4,0L22.15,54.17z"/>
<path class="st4" d="M18.95,66.97c1.6-0.9,2.1-2.9,1.2-4.4c-0.9-1.5-2.9-2.1-4.4-1.2c-1.6,0.9-2.1,2.9-1.2,4.4
	C15.45,67.37,17.45,67.87,18.95,66.97z"/>
<path class="st3" d="M104.85,50.37c0.1-0.1,0.2-0.1,0.3-0.2c2.5-1.5,4.2-3.9,4.9-6.7s0.3-5.8-1.2-8.2c-1.5-2.5-3.9-4.3-6.7-4.9
	c-2.8-0.7-5.8-0.3-8.2,1.2c-0.1,0.1-0.2,0.1-0.3,0.2L104.85,50.37z"/>
<path class="st5" d="M100.85,36.27c-0.9,1.5-0.4,3.5,1.1,4.5c1.5,0.9,3.5,0.4,4.4-1.1s0.4-3.5-1.1-4.5
	C103.75,34.17,101.75,34.67,100.85,36.27z"/>
</svg>
