<?xml version="1.0" encoding="utf-8"?>
<!-- Generator: Adobe Illustrator 24.0.2, SVG Export Plug-In . SVG Version: 6.00 Build 0)  -->
<svg version="1.1" id="Capa_1" xmlns="http://www.w3.org/2000/svg" xmlns:xlink="http://www.w3.org/1999/xlink" x="0px" y="0px"
	 viewBox="0 0 51 51" style="enable-background:new 0 0 51 51;" xml:space="preserve">
<style type="text/css">
	.st0{fill:#F2C94C;}
	.st1{fill-rule:evenodd;clip-rule:evenodd;fill:#333333;}
	.st2{fill:#333333;}
	.st3{fill:none;stroke:#4F4F4F;stroke-width:4;stroke-linecap:round;stroke-linejoin:round;}
</style>
<path class="st0" d="M14.6,2.8c6.9-3.3,15-3.3,21.9,0c6.9,3.3,11.9,9.6,13.6,17.1c1.7,7.5-0.1,15.3-4.9,21.3s-12,9.5-19.7,9.5
	c-7.7,0-14.9-3.5-19.7-9.5s-6.6-13.9-4.9-21.3C2.6,12.4,7.6,6.1,14.6,2.8z"/>
<path class="st1" d="M13.8,34.3c-0.8-0.2-1.5,0.7-1,1.3c3.1,3.9,7.7,6.1,12.7,6.1c4.9,0,9.6-2.2,12.7-6.1c0.5-0.7-0.1-1.5-1-1.3
	c-3.5,0.9-7.1,1.3-10.8,1.3h-1.8C20.9,35.6,17.3,35.2,13.8,34.3z"/>
<path class="st2" d="M37.2,34.3l-0.2-1L37.2,34.3z M25.5,40.7c-4.6,0-9-2.1-11.9-5.7l-1.6,1.2c3.3,4.1,8.2,6.5,13.5,6.5V40.7z
	 M37.4,35c-2.9,3.6-7.3,5.7-11.9,5.7v2c5.2,0,10.2-2.4,13.5-6.5L37.4,35z M37,33.3c-3.4,0.9-7,1.3-10.6,1.3v2
	c3.8,0,7.5-0.5,11.1-1.4L37,33.3z M26.4,34.6h-1.8v2h1.8V34.6z M24.6,34.6c-3.6,0-7.2-0.4-10.6-1.3l-0.5,1.9
	c3.6,0.9,7.3,1.4,11.1,1.4V34.6z M39,36.2c0.6-0.7,0.5-1.6,0.1-2.2c-0.4-0.6-1.2-0.9-2-0.7l0.5,1.9c0,0,0,0,0,0c0,0,0,0,0,0
	c0,0,0-0.1,0-0.1c0,0,0-0.1,0-0.1c0,0,0,0,0,0L39,36.2z M13.6,35C13.6,35,13.6,35,13.6,35c0,0.1,0,0.1,0,0.1c0,0.1,0,0.1,0,0.1
	c0,0,0,0,0,0c0,0,0,0,0,0l0.5-1.9c-0.8-0.2-1.6,0.1-2,0.7c-0.4,0.6-0.5,1.5,0.1,2.2L13.6,35z"/>
<path class="st3" d="M20.5,20.9c-0.6-0.7-1.4-1.3-2.3-1.7c-0.8-0.4-1.8-0.6-2.7-0.6c-0.9,0-1.8,0.2-2.7,0.6c-0.8,0.4-1.6,1-2.3,1.7"
	/>
<path class="st3" d="M40.5,20.9c-0.6-0.7-1.4-1.3-2.3-1.7c-0.8-0.4-1.8-0.6-2.7-0.6s-1.8,0.2-2.7,0.6c-0.8,0.4-1.6,1-2.3,1.7"/>
</svg>
