<?xml version="1.0" encoding="utf-8"?>
<!-- Generator: Adobe Illustrator 24.0.2, SVG Export Plug-In . SVG Version: 6.00 Build 0)  -->
<svg version="1.1" id="Capa_1" xmlns="http://www.w3.org/2000/svg" xmlns:xlink="http://www.w3.org/1999/xlink" x="0px" y="0px"
	 viewBox="0 0 2012.6 2012.6" style="enable-background:new 0 0 2012.6 2012.6;" xml:space="preserve">
<style type="text/css">
	.st0{fill:url(#SVGID_1_);}
	.st1{fill:#F49739;}
	.st2{fill:none;stroke:#FFFFFF;stroke-width:40.0648;stroke-linecap:round;stroke-linejoin:round;stroke-miterlimit:10;}
</style>
<g>
	
		<linearGradient id="SVGID_1_" gradientUnits="userSpaceOnUse" x1="4295.3999" y1="5056.9678" x2="4295.3999" y2="945.5547" gradientTransform="matrix(-0.9677 -0.2522 -0.2522 0.9677 5619.0908 720.7013)">
		<stop  offset="0.5094" style="stop-color:#64B045"/>
		<stop  offset="0.5964" style="stop-color:#6CB246"/>
		<stop  offset="0.7078" style="stop-color:#80B947"/>
		<stop  offset="0.8323" style="stop-color:#9EC449"/>
		<stop  offset="0.9654" style="stop-color:#C1D34E"/>
		<stop  offset="1" style="stop-color:#CBD84F"/>
	</linearGradient>
	<path class="st0" d="M483.3,1585.7c0,0-431-1177.8,1435.7-1463.4c0,0-267.7,2176.8-1202.2,1682.8c0,0-107-481,427.2-999.5
		c0,0-433.5,125.5-651.3,807.5L483.3,1585.7z"/>
</g>
<path class="st1" d="M424.3,1997.4c0,0-674.8-1715.9,1467.9-1962.3c0,0-1602.8-273.9-1791.8,1052.6
	C32.2,1566.8,424.3,1997.4,424.3,1997.4z"/>
<g>
	<path class="st2" d="M1046.7,666.6c59.4-9.5,122.6,5.7,172.4,47.3c50.7,42.3,77.1,103,77.6,164.3"/>
	<path class="st2" d="M1057.2,531.5c87.6-11.1,179.4,12.8,252.5,73.8c73,60.9,113,146.7,117.9,234.7"/>
</g>
<g>
</g>
<g>
</g>
<g>
</g>
<g>
</g>
<g>
</g>
<g>
</g>
</svg>
