<?xml version="1.0" encoding="utf-8"?>
<!-- Generator: Adobe Illustrator 24.0.2, SVG Export Plug-In . SVG Version: 6.00 Build 0)  -->
<svg version="1.1" id="Capa_1" xmlns="http://www.w3.org/2000/svg" xmlns:xlink="http://www.w3.org/1999/xlink" x="0px" y="0px"
	 viewBox="0 0 549.45 549.45" style="enable-background:new 0 0 549.45 549.45;" xml:space="preserve">
<style type="text/css">
	.st0{fill:#161817;}
	.st1{fill:#FDFDFD;}
	.st2{fill:#FEFEFE;}
	.st3{fill:#FFFEFE;}
	.st4{fill:#FFFFFF;}
</style>
<path class="st0" d="M9.8,381.02c-1.3-4.52-2.53-9.04-3.21-13.72c-3.5-24.07,9.13-44.35,32.37-51.86
	c10.82-3.5,21.91-4.18,33.15-3.24c13.08,1.09,25.66,4.45,38.05,8.58c1.33,0.44,1.62,0.29,1.58-1.15
	c-0.54-20.86-1.37-41.71-2.71-62.54c-1.1-17.1-2.5-34.18-4.18-51.23c-1.78-18.03-3.92-36.02-6.23-53.98
	c-0.03-0.2-0.13-0.39-0.19-0.58c0,0,0.05-0.12,0.05-0.12l-0.08-0.1c-0.37-0.64,0.01-1.39-0.29-2.04c-0.01-0.15-0.02-0.3-0.03-0.45
	c-0.48-0.57,0-1.28-0.26-1.88c-0.01-0.1-0.03-0.19-0.04-0.29c-0.42-0.71,0.06-1.54-0.3-2.26c0.07-0.09,0.06-0.16-0.03-0.23
	c-0.36-0.63,0.02-1.37-0.28-2.01c-0.02-0.16-0.03-0.32-0.05-0.47c-0.29-0.54,0-1.17-0.26-1.72l0.05-0.07l-0.05-0.07
	c-0.44-0.71,0.05-1.55-0.31-2.27c-0.02-0.18-0.04-0.35-0.05-0.53c-0.33-0.53-0.01-1.16-0.25-1.7c-0.02-0.16-0.03-0.32-0.05-0.47
	c-0.34-0.61,0.06-1.32-0.27-1.93c0.07-0.09,0.06-0.17-0.03-0.24c-0.35-0.62,0.04-1.34-0.27-1.97l0.05-0.11l-0.08-0.1
	c-0.43-0.61,0.04-1.35-0.28-1.98l0.05-0.1l-0.08-0.09c-0.34-0.59-0.05-1.27-0.26-1.88c-0.03-0.2-0.05-0.4-0.08-0.61
	c-0.31-1.28-0.41-2.58-0.57-3.88c-0.02-0.16-0.03-0.31-0.05-0.47c-0.36-0.59,0.07-1.3-0.28-1.89l0.01,0.02
	c-0.39-0.63-0.01-1.38-0.31-2.03c-0.01-0.15-0.02-0.3-0.04-0.45c-0.42-0.59,0.09-1.33-0.28-1.93c0.07-0.09,0.06-0.17-0.03-0.25
	c-0.36-0.61,0.06-1.32-0.28-1.93c0.07-0.09,0.06-0.17-0.03-0.24c-0.42-0.6,0.09-1.33-0.28-1.93c0.07-0.09,0.06-0.17-0.03-0.24
	c-0.31-0.6-0.04-1.29-0.29-1.91c0.07-0.1,0.06-0.19-0.03-0.27c-0.35-0.59,0.07-1.3-0.28-1.89l0.01,0.02c-0.39-0.62-0.01-1.37-0.3-2
	c-0.02-0.16-0.03-0.31-0.05-0.47c-0.2-0.51-0.23-1.04-0.23-1.58c-0.03-0.2-0.05-0.4-0.08-0.6c-0.3-0.52,0.02-1.14-0.26-1.67
	l0.05-0.11l-0.08-0.09c-0.38-0.62,0.03-1.36-0.29-1.99l0.05-0.1l-0.08-0.08c-0.39-0.61,0.04-1.35-0.29-1.97l0.05-0.11l-0.08-0.09
	c-0.44-0.6,0.05-1.33-0.29-1.95c0.07-0.09,0.06-0.16-0.03-0.23c-0.29-1.28-0.43-2.59-0.59-3.89c-0.01-0.15-0.03-0.31-0.04-0.46
	c-0.32-0.54,0-1.17-0.27-1.72c-0.02-0.15-0.03-0.31-0.05-0.46c-0.26-0.54-0.1-1.14-0.24-1.69c-0.02-0.16-0.04-0.32-0.06-0.48
	c-0.22-1.04-0.26-2.07,0.02-3.11l0.07-0.08l-0.05-0.09c0.16-1.87,0.51-3.66,1.84-5.11c0.1-0.13,0.19-0.26,0.29-0.39
	c0.16-0.31,0.23-0.68,0.58-0.86c0.22-0.31,0.45-0.62,0.67-0.94c0.38-0.81,1.17-1.24,1.77-1.86c0.76-0.72,1.52-1.44,2.27-2.16
	c0.52-0.82,1.42-1.1,2.2-1.55l-0.01,0c0.22-0.64,0.77-0.78,1.34-0.91c0.17-0.13,0.34-0.27,0.5-0.4c0.67-0.78,1.69-0.93,2.52-1.43
	c0.41-0.24,0.67-0.72,1.21-0.74c0.45-0.67,1.28-0.53,1.88-0.88c0.62-0.33,1.24-0.66,1.85-0.99c0.28-0.43,0.83-0.29,1.19-0.57
	c0.15-0.26,0.43-0.29,0.69-0.34c0.46-0.36,1-0.53,1.58-0.58c1.86-0.73,3.71-1.47,5.57-2.2c0.17-0.19,0.38-0.3,0.64-0.24
	c0.41,0.12,0.59-0.3,0.91-0.4c0.84-0.62,1.87-0.64,2.82-0.89c1.95-0.66,3.99-1.04,5.87-1.89c0.69-0.36,1.45-0.46,2.2-0.59
	c2.37-0.63,4.75-1.26,7.12-1.89c0.27-0.29,0.69-0.04,0.98-0.26l-0.02,0.01c0.36-0.42,0.92-0.04,1.31-0.32
	c1.45-0.16,2.86-0.52,4.25-0.97c1.24-0.84,2.71-0.61,4.07-0.9l-0.01,0.01c0.38-0.45,0.95-0.04,1.38-0.3l0.09,0.04l0.07-0.07
	c0.96-0.32,1.96-0.43,2.95-0.6l0.09,0.04l0.07-0.07c0.47-0.38,1.1,0.04,1.58-0.31l-0.01,0.01c0.46-0.46,1.1,0.04,1.58-0.31
	l-0.02,0.01c0.5-0.45,1.16-0.01,1.69-0.31l0.09,0.05l0.07-0.07c0.48-0.41,1.12,0,1.62-0.3c0.09,0.07,0.18,0.05,0.24-0.04
	c1.05-0.36,2.16-0.4,3.24-0.57l0.1,0.05l0.08-0.08c0.52-0.35,1.15,0,1.68-0.28l0.1,0.05l0.08-0.08c0.53-0.35,1.17-0.01,1.71-0.29
	l0.08,0.05l0.07-0.06c0.59-0.41,1.32,0.06,1.92-0.31c0.1,0.07,0.18,0.06,0.26-0.03c0.51-0.32,1.13,0.03,1.64-0.27
	c0.08,0.07,0.16,0.07,0.22-0.03c0.59-0.4,1.31,0.07,1.9-0.29l-0.02,0.01c0.69-0.44,1.52,0.05,2.22-0.32
	c0.09,0.07,0.18,0.06,0.25-0.03c0.5-0.32,1.1,0.01,1.62-0.24l-0.03,0.02c0.79-0.54,1.73-0.02,2.56-0.35l0.11,0.05l0.1-0.08
	c0.7-0.4,1.53,0.08,2.23-0.3c0.09,0.07,0.18,0.06,0.25-0.03c0.64-0.33,1.38,0.03,2.03-0.27l0.07,0.05l0.07-0.06
	c0.74-0.41,1.59,0.02,2.35-0.31c0.15-0.01,0.3-0.02,0.45-0.04c0.72-0.35,1.53,0.01,2.25-0.27c0.09,0.07,0.16,0.07,0.23-0.02
	c0.75-0.37,1.59,0.04,2.34-0.28c0.15-0.01,0.3-0.02,0.45-0.03c0.75-0.36,1.59,0.04,2.35-0.28c0.25-0.02,0.51-0.03,0.76-0.05
	c0.74-0.32,1.56,0.06,2.3-0.25l0.1,0.06l0.09-0.07c0.93-0.43,1.96,0.07,2.91-0.3l0.11,0.06l0.09-0.08c0.96-0.42,2,0.07,2.96-0.3
	l0.07,0.05l0.07-0.05c1.05-0.45,2.2,0.06,3.26-0.31c0.16-0.01,0.31-0.02,0.47-0.03c1.05-0.41,2.18,0.08,3.24-0.28l0.09,0.06
	l0.09-0.07c1.16-0.36,2.36-0.25,3.55-0.29c0.37-0.02,0.74-0.05,1.11-0.07c1.07-0.34,2.19,0.08,3.26-0.26l0.08,0.06l0.08-0.06
	c1.37-0.47,2.82,0.07,4.2-0.31c0.26,0.13,0.52,0.09,0.78-0.03c1.38-0.42,2.82,0.09,4.21-0.29c0.26,0.15,0.51,0.1,0.77-0.02
	c1.07-0.56,2.2-0.01,3.3-0.15c0.6-0.08,1.22,0.1,1.81-0.14c0.47-0.02,0.95-0.03,1.42-0.05c1.69-0.37,3.41,0.11,5.1-0.26
	c0.27-0.01,0.53-0.02,0.8-0.02c1.87-0.36,3.77-0.06,5.65-0.19c0.56-0.04,1.12,0.1,1.67-0.11c0.67,0.17,1.34,0.07,2.01-0.04
	c2.66-0.32,5.32-0.04,7.98-0.14c0.71-0.03,1.44,0.12,2.14-0.14c1.5,0.19,2.99,0.07,4.49-0.03c0.65-0.27,1.32-0.13,1.98-0.13
	c5.41-0.01,10.82-0.01,16.23,0c0.56,0,1.13-0.13,1.68,0.13c1.5,0.11,2.99,0.22,4.49,0.04c2.86,0.32,5.74,0.05,8.61,0.15
	c0.61,0.02,1.23-0.15,1.82,0.14c0.57,0.11,1.14,0.19,1.71,0.03c1.88,0.22,3.77,0.04,5.65,0.14c0.55,0.03,1.13-0.15,1.65,0.15
	c0.27,0.01,0.53,0.02,0.8,0.02c1.89,0.38,3.83-0.14,5.72,0.28c0.27,0.01,0.54,0.02,0.8,0.03c1.79,0.4,3.63-0.17,5.41,0.3
	c0.15,0,0.3,0,0.45,0c1.28,0.37,2.62-0.11,3.89,0.27c0.36,0.12,0.73,0.17,1.11,0.05c1.37,0.38,2.81-0.16,4.18,0.3l0.08,0.07
	l0.09-0.06c1.17,0.36,2.39-0.12,3.56,0.27c0.3,0.02,0.61,0.04,0.91,0.07c1.14,0.2,2.32-0.14,3.44,0.27l0.09,0.07l0.09-0.06
	c1.06,0.36,2.19-0.12,3.24,0.28c0.17,0.01,0.34,0.03,0.51,0.04c1.06,0.29,2.18-0.12,3.23,0.29l0.07,0.05l0.07-0.05
	c0.96,0.37,2.01-0.13,2.97,0.3l0.09,0.08l0.1-0.06c0.94,0.36,1.97-0.13,2.91,0.29l0.08,0.08l0.1-0.06c0.84,0.34,1.77-0.11,2.61,0.28
	c0.07,0.09,0.15,0.1,0.24,0.02c0.82,0.37,1.74-0.11,2.56,0.28c0.15,0.01,0.3,0.02,0.45,0.03c0.75,0.32,1.6-0.09,2.34,0.28
	c0.07,0.09,0.14,0.1,0.23,0.02c0.73,0.28,1.53-0.08,2.25,0.27c0.15,0.01,0.3,0.02,0.45,0.04c0.75,0.33,1.6-0.1,2.35,0.3l0.07,0.06
	l0.08-0.05c0.64,0.3,1.38-0.07,2.02,0.27c0.08,0.09,0.16,0.1,0.25,0.03c0.71,0.37,1.53-0.11,2.23,0.3l0.09,0.08l0.11-0.05
	c0.63,0.31,1.35-0.08,1.98,0.27c0.07,0.09,0.16,0.1,0.25,0.03c0.6,0.35,1.32-0.08,1.92,0.28c0.07,0.09,0.15,0.1,0.24,0.03
	c0.71,0.37,1.54-0.13,2.23,0.32l-0.02-0.01c0.59,0.35,1.31-0.09,1.9,0.29l0.1,0.08l0.11-0.05c0.62,0.29,1.35-0.14,1.94,0.31
	l-0.01-0.01c0.59,0.36,1.32-0.11,1.9,0.31l0.06,0.06l0.07-0.04c0.54,0.28,1.19-0.06,1.73,0.29l0.08,0.08l0.1-0.05
	c0.53,0.29,1.17-0.07,1.68,0.29l0.07,0.07l0.09-0.05c1.09,0.14,2.18,0.3,3.25,0.57c0.07,0.09,0.15,0.1,0.24,0.04
	c1.16,0.18,2.38,0.11,3.45,0.72c2.57,0.54,5.11,1.23,7.73,1.46c0.48,0.35,1.15-0.14,1.6,0.35l-0.03-0.02
	c0.86,0.16,1.78,0.02,2.55,0.57c0.94,0.15,1.75,0.81,2.76,0.63c0.44,0.41,1.18-0.21,1.54,0.45c1.21,0.32,2.38,0.77,3.65,0.83
	c0.34,0.13,0.77-0.1,1.06,0.27c1.47,0.66,3.03,1.02,4.62,1.26c0.3,0.19,0.73-0.07,0.98,0.29c2,0.82,4.06,1.44,6.17,1.89
	c0.28,0.22,0.78-0.13,0.95,0.38c0.24,0.36,0.62,0.22,0.95,0.26c0.73-0.09,1.36,0.11,1.84,0.69c3.52,1.42,7.04,2.84,10.56,4.26
	c0.42,0.22,1.03,0.1,1.27,0.67c0.11,0.31,0.37,0.27,0.61,0.26c0.72,0.16,1.48,0.23,1.86,1.01c0.34,0.35,0.77,0.54,1.23,0.66
	c0.43,0.01,0.7,0.27,0.95,0.58c0.58,0.46,1.17,0.93,1.89,1.15c0.3,0.23,0.84,0.13,0.92,0.66c0.61,0.4,1.03,1.06,1.79,1.24
	c0.82,0.31,1.53,0.77,1.93,1.59c1.35,1.53,2.7,3.06,4.04,4.6c0.5,0.12,0.49,0.59,0.64,0.94c0.15,0.94,0.73,1.68,1.11,2.51
	c0.63,0.24,0.07,0.89,0.43,1.23l-0.01-0.02c0.45,0.5,0.04,1.15,0.31,1.68c0.01,0.16,0.02,0.32,0.03,0.48
	c0.25,1.04,0.29,2.07-0.05,3.11c-0.3,0.9-0.39,1.86-0.56,2.79c-0.09,0.07-0.1,0.16-0.03,0.25c-0.16,0.73,0.07,1.52-0.33,2.22
	l0.01-0.02c-0.35,0.6,0.16,1.32-0.28,1.91l-0.08,0.09l0.05,0.11c-0.28,0.52,0.04,1.14-0.26,1.66c-0.02,0.17-0.04,0.33-0.06,0.5
	c-0.27,0.53,0.04,1.15-0.26,1.68c-0.02,0.15-0.03,0.3-0.05,0.45c-0.31,0.65,0.08,1.4-0.31,2.04c-0.02,0.06-0.06,0.12-0.07,0.18
	c-0.01,0.03,0.02,0.07,0.03,0.1c-0.16,0.51,0.04,1.08-0.23,1.58c-0.01,0.1-0.03,0.2-0.04,0.3c0.05,0.54,0.06,1.08-0.25,1.56
	c-0.02,0.19-0.04,0.37-0.05,0.56c-0.35,0.6,0.14,1.33-0.29,1.93c-0.09,0.06-0.1,0.14-0.03,0.23c-0.39,0.71,0.21,1.56-0.32,2.24
	l0.01-0.02c-0.34,0.6,0.15,1.32-0.28,1.9c-0.09,0.07-0.1,0.15-0.03,0.23c-0.34,0.61,0.09,1.34-0.29,1.94l-0.08,0.09l0.05,0.11
	c-0.32,0.63,0.09,1.36-0.28,1.98c-0.09,0.06-0.1,0.14-0.03,0.22c-0.33,0.62,0.09,1.35-0.28,1.96l-0.08,0.09l0.05,0.11
	c-0.18,1.38-0.19,2.79-0.59,4.14c-0.02,0.06-0.05,0.13-0.06,0.19c-0.01,0.03,0.02,0.07,0.03,0.1c-0.09,0.63-0.03,1.27-0.27,1.88
	c-0.09,0.07-0.1,0.15-0.03,0.24c-0.38,0.71,0.13,1.54-0.31,2.23l0.01-0.02c-0.38,0.7,0.13,1.52-0.31,2.21l-0.06,0.07l0.05,0.07
	c-0.26,0.55,0.03,1.17-0.26,1.72c-0.02,0.16-0.04,0.32-0.05,0.48c-0.26,0.54,0.03,1.16-0.25,1.69c-0.02,0.17-0.04,0.34-0.06,0.51
	c-0.31,0.63,0.08,1.36-0.28,1.98c-0.09,0.07-0.1,0.15-0.03,0.24c-0.38,0.6,0.17,1.34-0.28,1.94c-0.01,0.16-0.03,0.32-0.04,0.48
	c-0.31,0.64,0.1,1.38-0.29,2.01l-0.07,0.08l0.05,0.09c-0.33,0.74,0.12,1.58-0.31,2.3l0.01-0.02c-0.34,0.6,0.07,1.3-0.27,1.9
	c-0.02,0.16-0.03,0.33-0.05,0.49c-0.3,0.64,0.08,1.37-0.27,2c-0.09,0.07-0.1,0.15-0.03,0.24c-0.37,0.71,0.11,1.54-0.3,2.24
	l-0.08,0.09l0.05,0.11c-0.31,0.63,0.07,1.35-0.27,1.97c-0.02,0.16-0.04,0.32-0.06,0.48c-0.19,0.66,0.05,1.37-0.27,2.01
	c-0.09,0.06-0.1,0.14-0.02,0.22c-0.36,0.72,0.12,1.55-0.29,2.26l-0.08,0.09l0.05,0.1c-0.3,0.63,0.06,1.35-0.26,1.98
	c-0.02,0.17-0.03,0.33-0.05,0.5c-0.34,0.74,0.12,1.58-0.3,2.31l-0.06,0.07l0.05,0.08c-0.32,0.64,0.11,1.39-0.27,2.02
	c-0.02,0.16-0.03,0.31-0.05,0.47c-0.32,0.64,0.12,1.38-0.27,2.02c-0.02,0.16-0.04,0.33-0.06,0.49c-0.05,0.77,0.3,1.6-0.28,2.31
	l-0.07,0.08l0.06,0.1c-0.33,0.74,0.11,1.58-0.28,2.31l-0.08,0.1l0.05,0.11c-0.34,0.73,0.1,1.55-0.28,2.27
	c-0.09,0.07-0.1,0.15-0.02,0.23c-0.37,0.72,0.15,1.54-0.27,2.25c-0.02,0.17-0.03,0.34-0.05,0.51c-0.33,0.74,0.1,1.56-0.28,2.29
	c-0.09,0.07-0.1,0.15-0.02,0.24c-0.35,0.72,0.08,1.53-0.27,2.24c-0.02,0.2-0.05,0.4-0.07,0.6c-0.22,0.92,0.12,1.9-0.31,2.79
	l0.02-0.03c-0.34,0.82,0.14,1.73-0.29,2.54l-0.07,0.08l0.06,0.09c-0.35,0.85,0.13,1.79-0.3,2.63l-0.06,0.07l0.05,0.08
	c-0.32,0.75,0.08,1.58-0.27,2.33c-0.01,0.17-0.03,0.33-0.04,0.5c-0.34,0.84,0.12,1.78-0.29,2.61l-0.08,0.1l0.05,0.11
	c-0.35,0.83,0.11,1.75-0.28,2.58c-0.02,0.2-0.04,0.4-0.06,0.6c-0.27,0.92,0.13,1.9-0.29,2.8l0.01-0.02
	c-0.18,1.88-0.21,3.77-0.58,5.63c-0.01,0.18-0.03,0.36-0.04,0.54c-0.03,2.01-0.3,4-0.59,5.99c-0.01,0.16-0.02,0.33-0.04,0.49
	c-0.35,0.95,0.12,1.98-0.28,2.93c-0.01,0.16-0.02,0.31-0.03,0.47c-0.33,0.85,0.08,1.78-0.26,2.63c-0.02,0.26-0.03,0.52-0.05,0.79
	c-0.35,0.96,0.12,1.99-0.28,2.95c-0.01,0.16-0.02,0.33-0.03,0.49c-0.36,1.06,0.13,2.19-0.28,3.24c-0.02,0.2-0.04,0.4-0.05,0.6
	c-0.17,0.93,0.04,1.89-0.24,2.82c-0.01,0.26-0.02,0.51-0.04,0.77c-0.36,1.07,0.12,2.21-0.28,3.27c-0.02,0.2-0.03,0.4-0.05,0.6
	c-0.03,1.05-0.02,2.1-0.25,3.13c-0.01,0.26-0.02,0.52-0.04,0.77c-0.44,1.17,0.26,2.42-0.29,3.58c-0.01,0.16-0.02,0.31-0.02,0.47
	c-0.34,1.07,0.09,2.19-0.26,3.26c-0.12,0.36-0.18,0.71-0.05,1.08c-0.38,1.28,0.13,2.62-0.29,3.9c-0.01,0.16-0.02,0.33-0.03,0.49
	c-0.36,1.27,0.12,2.59-0.27,3.86c-0.01,0.27-0.02,0.54-0.04,0.81c-0.39,1.47,0.16,3.01-0.29,4.47c0,0.15-0.01,0.3-0.01,0.45
	c-0.37,1.39,0.1,2.83-0.27,4.21c-0.11,0.36-0.18,0.73-0.04,1.1c-0.35,1.69,0.17,3.43-0.3,5.12c0,0.15-0.01,0.31-0.01,0.46
	c-0.34,1.8,0.15,3.65-0.3,5.44c-0.12,0.25-0.17,0.5-0.01,0.76c-0.38,1.59,0.11,3.24-0.27,4.83c-0.11,0.56-0.21,1.13-0.04,1.7
	c-0.29,1.47-0.05,2.95-0.14,4.42c-0.03,0.55,0.14,1.12-0.15,1.65c-0.13,0.36-0.17,0.73-0.03,1.1c-0.37,2.11,0.11,4.25-0.26,6.36
	c-0.11,0.78-0.23,1.55-0.05,2.33c-0.29,2.24-0.05,4.49-0.14,6.74c-0.02,0.6,0.15,1.23-0.15,1.81c-0.13,0.46-0.19,0.92-0.02,1.39
	c-0.3,3.17-0.06,6.35-0.13,9.52c-0.02,0.89,0.52,0.85,1.14,0.61c0.41,0.16,0.57-0.29,0.88-0.37c0.62-0.27,1.28-0.4,1.94-0.56
	c1.74-0.53,3.47-1.07,5.21-1.6c0.48-0.71,1.3-0.28,1.91-0.57l-0.02,0.01c0.73-0.26,1.45-0.57,2.23-0.63c1.56-0.3,3.1-0.65,4.58-1.24
	c0.4-0.43,0.97-0.06,1.4-0.3l0.09,0.04l0.06-0.07c0.83-0.33,1.72-0.44,2.59-0.6l0.11,0.04l0.09-0.08c0.76-0.77,1.8-0.25,2.65-0.58
	c0.15-0.02,0.31-0.05,0.46-0.07c0.37-0.33,0.89,0.04,1.26-0.27l-0.01,0c0.47-0.38,1.1,0.03,1.58-0.3l-0.02,0.01
	c0.56-0.45,1.3,0.05,1.87-0.33l-0.01,0c0.56-0.54,1.28-0.15,1.9-0.31c0.1,0.07,0.18,0.06,0.26-0.03c0.59-0.36,1.3,0.07,1.9-0.28
	l-0.02,0.01c0.8-0.46,1.73,0.06,2.55-0.32c0.18-0.02,0.37-0.03,0.55-0.05c0.82-0.25,1.68-0.06,2.5-0.24
	c0.41-0.03,0.82-0.05,1.23-0.08c1.39-0.34,2.82,0.11,4.21-0.26c0.46,0.18,0.92,0.14,1.38-0.01c1.24-0.27,2.49-0.27,3.73,0
	c0.26,0.12,0.52,0.15,0.78,0.01c1.48,0.36,3.01-0.1,4.5,0.26c0.27,0.02,0.55,0.04,0.82,0.05c0.84,0.33,1.78-0.29,2.6,0.28
	c0.07,0.09,0.15,0.1,0.23,0.03c0.72,0.37,1.55-0.12,2.25,0.31c0.1,0.02,0.19,0.03,0.29,0.05c0.62,0.1,1.29-0.14,1.85,0.31
	l-0.02-0.01c0.4,0.25,0.92-0.09,1.3,0.25c1.37,0.5,2.79,0.82,4.24,0.97c0.74,0.24,1.69-0.15,2.24,0.71
	c2.19,0.79,4.38,1.58,6.56,2.37c1.08,0.1,2.07,0.39,2.78,1.28l-0.01-0.01c0.42,0.2,1.01,0.09,1.24,0.65l0,0
	c0.23,0.1,0.56,0.02,0.62,0.38c0.12,0.06,0.24,0.12,0.35,0.19c0.38,0.28,1.04,0.08,1.21,0.72c0.4,0.51,0.95,0.77,1.55,0.96
	c1.1-0.03,1.54,0.9,2.19,1.53c0.38,0.56,0.91,0.92,1.53,1.17c0.92,0.42,1.82,0.88,2.2,1.92c0.24,0.37,0.51,0.69,0.93,0.87
	c0.34,0.09,0.55,0.31,0.64,0.65c0.28,0.51,0.69,0.91,1.17,1.24c1.24,0.52,1.81,1.59,2.27,2.76c-0.01,0.19,0.07,0.3,0.26,0.33
	c0.57,0.24,0.66,0.84,0.96,1.28c0.12,0.34,0.23,0.7,0.58,0.9c0.51,0.12,0.55,0.57,0.66,0.97c0.21,0.82,0.74,1.46,1.19,2.14
	c0.44,0.3,0.54,0.77,0.68,1.24l0-0.01c0.47,0.3,0.4,0.86,0.63,1.28c0.14,0.78,0.39,1.51,0.87,2.15c0.48,0.79,0.94,1.59,0.98,2.55
	c0.39,1.54,0.78,3.07,1.17,4.61c0.63,0.38,0.09,1.06,0.38,1.53c0.01,0.1,0.03,0.2,0.04,0.3c0.34,0.52-0.01,1.15,0.27,1.67
	c0.02,0.17,0.03,0.33,0.05,0.5c0.37,0.81-0.09,1.71,0.27,2.52l-0.01-0.02c0.32,2.69,0.29,5.38,0.02,8.07l-0.07,0.09l0.06,0.1
	c-0.35,0.95,0.13,1.98-0.29,2.92l-0.08,0.09l0.05,0.11c-0.32,0.62,0.15,1.36-0.28,1.97l-0.08,0.09l0.05,0.11
	c-0.29,0.52,0.07,1.16-0.29,1.67c-0.43,0.44-0.31,0.99-0.31,1.52c-0.34,0.37,0.14,0.92-0.29,1.27c-0.4,0.86-0.68,1.74-0.67,2.7
	c-0.15,0.66-0.1,1.39-0.57,1.96c-0.09,0.05-0.11,0.13-0.06,0.22c-0.03,0.6-0.08,1.19-0.55,1.65c-0.85,2.25-1.7,4.5-2.55,6.75
	c-0.13,0.22,0.02,0.58-0.35,0.68c-0.3,0.13-0.25,0.39-0.24,0.64c-0.29,0.49-0.11,1.21-0.75,1.53c-11.59,23-29.33,40.45-49.86,55.4
	c-0.54,0.39-1.06,0.82-1.59,1.23c-0.14,0.34-0.4,0.53-0.77,0.54c-0.68,0.06-0.93,0.69-1.41,1.03c-0.67,0.63-1.42,1.13-2.27,1.47
	c-0.24,0-0.48,0-0.55,0.31c-0.3,0.9-1.17,0.97-1.87,1.28c-0.49,0.16-0.93,0.39-1.27,0.79c-0.53,0.75-1.26,1.2-2.15,1.38
	c-0.37,0.09-0.71,0.23-0.94,0.56c-0.2,0.42-0.58,0.58-1.01,0.65c-0.38,0.5-1.23,0.18-1.49,0.87c-0.33,0.63-1.04,0.65-1.57,0.97
	l0.06,0.07l-0.05-0.07c-0.37,0.64-1.09,0.66-1.66,0.96c-0.57,0.31-1.15,0.62-1.72,0.93c-0.58,1.12-1.79,1.17-2.77,1.6
	c-1.09,0.26-1.86,1.1-2.81,1.61c-0.38,0.13-0.63,0.51-1.07,0.51c-0.94,0.17-1.58,0.86-2.34,1.33c-0.53,0.52-1.28,0.59-1.91,0.88
	c-0.19,0.12-0.38,0.25-0.57,0.37c-0.39,0.27-0.85,0.39-1.29,0.56c-0.24-0.01-0.5-0.04-0.6,0.26c-0.6,0.9-1.62,0.98-2.53,1.28
	c-2.25,1.05-4.51,2.1-6.76,3.15c-0.29,0.47-0.82,0.44-1.27,0.58l0.01,0c-0.34,0.45-0.85,0.53-1.36,0.59
	c-0.66-0.15-0.96,0.44-1.42,0.71c-0.18,0.19-0.4,0.26-0.66,0.18c-0.41-0.07-0.58,0.33-0.9,0.45c-0.64,0.52-1.39,0.76-2.19,0.87l0,0
	c-0.42,0.45-1.04,0.4-1.56,0.63c-1.49,0.52-3.03,0.95-4.34,1.88c-0.79,0.45-1.62,0.78-2.54,0.87l0.01-0.01
	c-0.4,0.75-1.24,0.36-1.81,0.68l-0.01,0c-0.83,1.05-2.22,0.61-3.22,1.2c-0.59,0.2-1.19,0.39-1.78,0.59
	c-0.17,0.45-0.69,0.06-0.91,0.38c-1.14,0.41-2.27,0.83-3.41,1.24c-0.78,0.81-1.85,0.72-2.83,0.91l0.01,0
	c-0.22,0.4-0.67,0.12-0.96,0.32c-2.99,0.94-5.98,1.89-8.96,2.83c-0.26,0.3-0.69,0.01-0.96,0.29c-0.79-0.04-1.4,0.52-2.15,0.64
	c-0.63,0.32-1.31,0.45-1.99,0.58c-1.52,0.4-3.04,0.8-4.57,1.2c-0.92,1.15-2.31,0.63-3.45,0.99c-0.47-0.12-0.82,0.14-1.18,0.37
	c-0.38,0.31-0.89-0.06-1.27,0.27l0.01,0c-0.36,0.34-0.87,0.1-1.27,0.31c-1.31,0-2.52,0.46-3.74,0.85c-0.72,0.69-1.67,0.52-2.53,0.68
	c-3.42,0.64-6.82,1.33-10.18,2.23c-0.37,0.35-0.89-0.03-1.27,0.27l0.01,0c-0.43,0.54-1.09-0.02-1.56,0.32l0.01,0
	c-0.46,0.42-1.09-0.05-1.56,0.31l0.01,0c-0.47,0.39-1.1-0.03-1.58,0.31l0.02-0.01c-0.48,0.43-1.09,0.15-1.62,0.31l-0.13-0.04
	l-0.11,0.08c-0.41,0.34-0.95,0.03-1.39,0.27l-0.09-0.05l-0.07,0.07c-0.49,0.37-1.11,0.07-1.63,0.29c-0.65-0.18-1.18,0.3-1.79,0.33
	c-0.52,0.37-1.16,0.01-1.69,0.29l-0.09-0.05l-0.08,0.07c-1.76,0.61-3.63,0.62-5.45,0.91c-0.15,0.02-0.31,0.03-0.46,0.05
	c-0.51,0.31-1.13-0.02-1.65,0.26l-0.11-0.05l-0.09,0.08c-0.6,0.37-1.32-0.06-1.93,0.29l-0.13-0.05l-0.12,0.08
	c-0.54,0.31-1.17,0.01-1.72,0.27c-0.15,0.01-0.3,0.03-0.46,0.04c-1.37,0.3-2.77,0.43-4.16,0.58l-0.1-0.06l-0.09,0.08
	c-2.38,0.58-4.81,0.73-7.24,0.91l-0.12-0.05l-0.1,0.08c-0.82,0.41-1.75-0.07-2.58,0.29c-0.18,0.02-0.35,0.03-0.53,0.05
	c-0.74,0.33-1.56-0.06-2.3,0.26c-0.17,0.01-0.33,0.03-0.5,0.04c-0.84,0.37-1.77-0.06-2.61,0.27c-0.17,0.01-0.33,0.03-0.5,0.04
	c-0.94,0.38-1.96-0.08-2.9,0.27l-0.11-0.06l-0.1,0.07c-1.12,0.36-2.3,0.04-3.42,0.3c-0.1,0.01-0.21,0.01-0.31,0.02
	c-1.15,0.42-2.37-0.08-3.52,0.29l-0.11-0.06l-0.1,0.07c-1.36,0.52-2.81-0.08-4.18,0.3c-0.37,0.02-0.74,0.03-1.1,0.05
	c-1.38,0.37-2.82-0.1-4.2,0.27c-0.26,0.01-0.51,0.02-0.77,0.03c-1.8,0.42-3.65-0.11-5.45,0.29c-0.26-0.15-0.51-0.11-0.76,0.01
	c-2.08,0.36-4.18,0.06-6.27,0.17c-0.97,0.05-1.95-0.15-2.9,0.13c-1.3-0.17-2.59-0.07-3.88,0.04c-3.54,0.3-7.09,0.09-10.63,0.11
	c-1.63,0.01-3.28,0.19-4.91-0.13c-1.09-0.1-2.17-0.21-3.26-0.03c-2.4-0.31-4.8-0.04-7.2-0.14c-0.55-0.02-1.13,0.15-1.66-0.15
	c-0.36-0.12-0.71-0.18-1.08-0.02c-1.8-0.39-3.65,0.13-5.45-0.28c-0.26-0.01-0.52-0.02-0.77-0.03c-1.38-0.37-2.82,0.1-4.2-0.27
	c-0.38-0.02-0.75-0.03-1.13-0.05c-1.37-0.38-2.8,0.15-4.16-0.3c-0.15,0-0.3,0-0.44,0c-1.07-0.37-2.22,0.12-3.28-0.29
	c-0.1-0.01-0.2-0.01-0.31-0.02c-2.18-0.12-4.36-0.29-6.53-0.59c-0.17-0.01-0.34-0.03-0.52-0.04c-0.94-0.36-1.97,0.14-2.9-0.3
	l-0.09-0.07l-0.1,0.06c-0.94-0.37-1.98,0.16-2.9-0.32l0.02,0.01c-0.81-0.36-1.72,0.13-2.53-0.29l-0.1-0.08l-0.12,0.05
	c-2.53-0.16-5.04-0.44-7.53-0.94l0.02,0.01c-1.36-0.15-2.73-0.3-4.08-0.58c-0.16-0.02-0.31-0.03-0.47-0.05
	c-0.54-0.26-1.17,0.04-1.71-0.26l-0.12-0.08l-0.13,0.04c-0.6-0.35-1.32,0.08-1.93-0.29l-0.1-0.08l-0.12,0.05
	c-0.51-0.29-1.13,0.05-1.64-0.26c-0.16-0.02-0.32-0.04-0.48-0.05c-0.54-0.27-1.18,0.07-1.7-0.28c-0.1-0.02-0.19-0.03-0.29-0.05
	c-1.14-0.22-2.36,0.02-3.44-0.58l-0.08-0.08l-0.1,0.05c-0.62-0.37-1.39,0.22-1.98-0.31c-0.51,0-1.06,0.14-1.49-0.3
	c-0.52-0.21-1.13,0.05-1.63-0.29c-0.58-0.22-1.28,0.23-1.8-0.32c-0.52-0.16-1.13,0.1-1.61-0.31l0.02,0.01
	c-0.48-0.35-1.11,0.09-1.57-0.31l0.01,0c-0.5-0.21-1.1,0.03-1.58-0.31l-0.07-0.08l-0.09,0.04c-0.45-0.13-0.98,0.15-1.37-0.28l0.01,0
	c-0.38-0.3-0.9,0.08-1.27-0.27c-2.06-0.33-4.13-0.62-6.12-1.3c-0.4-0.29-0.96,0.16-1.34-0.28c-0.93-0.1-1.84-0.29-2.72-0.65
	c-1.29-0.22-2.63-0.2-3.8-0.92l0.01,0c-0.83-0.2-1.69-0.31-2.51-0.59c-0.43-0.01-0.86-0.03-1.21-0.34
	c-0.37-0.34-0.93,0.16-1.28-0.29c-0.8-0.22-1.6-0.44-2.41-0.66c-0.79-0.04-1.63,0.12-2.26-0.57c-2.16-0.59-4.31-1.17-6.47-1.77
	c-0.78-0.22-1.55-0.48-2.33-0.73c-0.2-0.33-0.64,0.01-0.84-0.3c-3.41-0.81-6.72-1.93-10.01-3.12c-1.31-0.17-2.54-0.55-3.66-1.25
	c-0.3-0.13-0.6-0.26-0.9-0.38c-0.37,0.06-0.7,0.02-0.97-0.28c-0.24-0.09-0.48-0.17-0.72-0.26c-0.2-0.34-0.62,0.02-0.83-0.27
	c-0.63-0.22-1.25-0.44-1.88-0.66c-0.92-0.68-2.31-0.2-3.09-1.23c-0.26-0.33-0.76,0.07-1-0.32c-1.17-0.27-2.35-0.5-3.29-1.34
	l-0.06,0.09l0.07-0.09c-0.51,0.01-0.97-0.1-1.31-0.52c-0.85-0.31-1.69-0.63-2.54-0.94c-0.38-0.22-0.81-0.34-1.18-0.58
	c-0.32-0.18-0.78,0.07-1.01-0.35c-0.48-0.22-1.06-0.19-1.47-0.59c-0.58-0.1-1.05-0.42-1.52-0.76c-0.83,0.2-1.27-0.53-1.9-0.81
	l-0.06-0.09l-0.1,0.02c-0.5-0.1-1-0.22-1.38-0.61l0.01,0c-0.45-0.13-0.97-0.1-1.27-0.58c-0.68-0.48-1.64-0.29-2.24-0.95
	c-0.61-0.29-1.23-0.54-1.8-0.91c-0.49-0.23-0.98-0.45-1.47-0.68c-1.44-0.23-2.67-0.93-3.82-1.79c-0.23-0.12-0.46-0.23-0.68-0.35
	c-0.54-0.42-1.37-0.3-1.78-0.96l0.01,0c-0.88-0.3-1.84-0.45-2.51-1.2c-1.16-0.63-2.32-1.26-3.48-1.89c-0.5-0.3-1.24-0.18-1.5-0.9
	c-0.67-0.25-1.36-0.47-1.91-0.96c-0.62-0.13-1.17-0.36-1.51-0.93l-0.01,0c-0.54-0.27-1.28-0.19-1.56-0.91l-0.02-0.01
	c-1.28-0.62-2.75-0.93-3.69-2.13c-0.22-0.12-0.45-0.25-0.67-0.37c-0.56-0.2-1.1-0.43-1.5-0.9c-0.19-0.16-0.38-0.31-0.57-0.47
	c-0.87,0-1.4-0.53-1.87-1.17l0.01,0c-0.39-0.07-0.7-0.27-0.98-0.53c-0.33-0.22-0.67-0.44-1-0.66c-0.93-0.32-1.76-0.8-2.42-1.54
	c-0.28-0.23-0.55-0.45-0.83-0.68c-0.49-0.22-1.01-0.4-1.35-0.84c-0.45-0.33-0.9-0.65-1.35-0.98c-0.23-0.25-0.67-0.2-0.83-0.57
	c-0.93-0.64-1.86-1.28-2.78-1.92c-0.79-0.31-1.42-0.8-1.88-1.51l-0.04-0.02c-0.23-0.3-0.77-0.12-0.89-0.59
	c-0.31-0.23-0.63-0.45-0.94-0.68c-0.37-0.36-0.91-0.52-1.16-1.01c-0.33-0.02-0.49-0.27-0.69-0.48c-0.55-0.43-1.09-0.87-1.64-1.3
	c-0.71-0.12-1.05-0.7-1.47-1.19c-0.16-0.15-0.32-0.29-0.47-0.44c-2.26-1.23-4.18-2.86-5.75-4.9l-0.01-0.01
	c-0.38-0.35-0.88-0.57-1.16-1.04l-0.06,0.1l0.07-0.1c-0.78,0-0.99-0.64-1.3-1.17l0,0c-0.46-0.15-0.68-0.56-0.96-0.9l-0.01-0.01
	c-0.28-0.12-0.51-0.3-0.63-0.59l-0.02-0.02c-0.43-0.36-0.88-0.69-1.21-1.15c-0.3-0.24-0.6-0.49-0.9-0.73
	c-0.63-0.42-1.36-0.76-1.53-1.62l0.01,0.01c-1.48-0.71-2.29-2.06-3.19-3.32l-0.02-0.02c-0.42-0.17-0.73-0.45-0.91-0.88
	c-0.61-0.64-1.21-1.29-1.82-1.93c-0.32-0.39-0.68-0.75-0.97-1.17c-0.12-0.13-0.24-0.25-0.36-0.38c-0.3-0.13-0.44-0.38-0.52-0.68
	l0.01,0.01c-0.66-0.48-1.13-1.15-1.61-1.79c-0.43-0.53-0.86-1.06-1.29-1.59c-0.55-0.4-0.97-0.9-1.19-1.55l0,0
	c-0.46-0.27-0.79-0.64-0.94-1.16c-0.32-0.44-0.65-0.88-0.97-1.32c-0.88-0.61-1.47-1.44-1.83-2.45l-0.02-0.03
	c-0.77-0.22-0.72-1.09-1.21-1.53c-0.22-0.32-0.44-0.64-0.66-0.97c-0.42-0.17-0.41-0.61-0.58-0.93l0-0.01
	c-0.36-0.18-0.48-0.53-0.63-0.86c-0.31-0.44-0.61-0.88-0.92-1.31c-0.36-0.22-0.38-0.66-0.63-0.95c-0.62-1.03-1.24-2.06-1.87-3.09
	c-0.52-0.44-0.76-1.03-0.88-1.68c-0.12-0.17-0.24-0.33-0.36-0.5c-0.62-0.46-0.7-1.2-0.93-1.86l0-0.01
	c-0.32-0.52-0.65-1.05-0.85-1.63l-0.06,0.09l0.06-0.08c-0.48-0.33-0.32-0.99-0.71-1.37c-0.72-1.59-1.44-3.18-2.17-4.77
	c-0.4-0.48-0.52-1.05-0.59-1.64C10.2,382.92,10.05,381.95,9.8,381.02z"/>
<path class="st1" d="M47.11,432.3c1.92,1.63,3.83,3.27,5.75,4.9c-1.23,0.71-2.27,0.01-3.05-0.7c-0.84-0.76-1.54-1.47-2.71-1.85
	C45.27,434.06,46.74,433.1,47.11,432.3z"/>
<path class="st1" d="M534.06,331.6c-0.76-0.92-1.51-1.84-2.27-2.76c1.24-0.67,3.05-0.02,3.48,1.3c0.24,0.73,0.41,1.56-0.91,1.07
	C534.06,331.1,534.1,331.43,534.06,331.6z"/>
<path class="st1" d="M284.53,39.8c-6.63,0-13.26,0-19.88,0c0.36-0.42,0.85-0.29,1.3-0.29c5.76-0.01,11.52-0.01,17.29,0
	C283.68,39.5,284.17,39.37,284.53,39.8z"/>
<path class="st1" d="M266.51,502.21c5.18,0.01,10.36,0.01,15.53,0.02c-0.31,0.38-0.75,0.28-1.16,0.29
	c-4.6,0.09-9.21-0.17-13.81,0.13C266.77,502.67,266.63,502.45,266.51,502.21z"/>
<path class="st1" d="M90.94,76.17c-0.68,1.68-1.4,3.34-1.84,5.11c-0.02-0.82-0.1-1.6-0.49-2.37c-0.21-0.42-1.36-1.67,0.59-1.11
	c0.1,0.03,0.31-0.35,0.49-0.52C90.1,76.9,90.52,76.54,90.94,76.17z"/>
<path class="st1" d="M36.23,421.76c1.14,1.03,2.24,2.1,3.19,3.32c-0.84-0.24-1.77-0.34-2.5-0.77
	C35.95,423.77,36.42,422.63,36.23,421.76z"/>
<path class="st1" d="M96.83,465.27c1.38,0.36,2.61,1.05,3.82,1.79c-1.07,0.3-2.04,0.67-2.99-0.53
	C97.34,466.13,96.13,466.43,96.83,465.27z"/>
<path class="st1" d="M529.05,326.1c-0.73-0.64-1.46-1.28-2.2-1.92c0.52-0.12,1.14-1.35,1.56,0.13c0.01,0.04,0.64-0.1,0.98-0.15
	c0.11,0.17,0.23,0.33,0.34,0.5c0.26,0.42,0.82,0.95-0.34,0.8C529.32,325.44,529.17,325.87,529.05,326.1z"/>
<path class="st1" d="M412.84,481.37c0.89-0.47,1.82-0.81,2.83-0.91c0.01,0.34,0.22,0.52,0.48,0.73c0.55,0.45,0.2,0.8-0.26,0.76
	C414.85,481.86,413.67,482.47,412.84,481.37z"/>
<path class="st1" d="M438.72,320.75c-0.37,0.32-0.79,0.43-1.37,0.34c0.17-3.49-0.09-6.99,0.36-10.47c0.01,2.93,0.03,5.87,0.02,8.8
	C437.72,320.15,437.71,320.81,438.72,320.75z"/>
<path class="st1" d="M132.57,480.14c1.29,0.2,2.53,0.59,3.66,1.25c-0.86,0.87-1.78,0.81-2.64,0.05
	C133.19,481.08,132.91,480.57,132.57,480.14z"/>
<path class="st1" d="M78.19,455.03c1.34,0.52,2.51,1.33,3.69,2.13c-1,0.12-2.08-1.04-3.05,0.28
	C79.17,456.43,77.98,455.94,78.19,455.03z"/>
<path class="st1" d="M299.45,40.12c-3.48,0-6.96,0.07-10.43-0.29c3.04-0.01,6.09-0.02,9.13-0.02
	C298.6,39.82,299.09,39.68,299.45,40.12z"/>
<path class="st1" d="M389.81,488.2c1.15-0.33,2.3-0.66,3.45-0.99c0.11,0.58-0.16,0.9-0.64,1.23c-0.35,0.24-1.7-0.73-1.04,0.79
	c-0.4,0-0.95,0.02-0.96-0.45C390.62,488.07,390.16,488.27,389.81,488.2z"/>
<path class="st1" d="M260.15,39.83c-3.36,0.36-6.74,0.28-10.12,0.28c0.57-0.54,1.28-0.28,1.92-0.28
	C254.69,39.8,257.42,39.82,260.15,39.83z"/>
<path class="st1" d="M331.37,499.06c2.39-0.47,4.81-0.73,7.24-0.91C336.28,499.16,333.84,499.27,331.37,499.06z"/>
<path class="st1" d="M210.28,498.13c2.53,0.16,5.04,0.48,7.53,0.94C215.22,499.33,212.72,498.94,210.28,498.13z"/>
<path class="st1" d="M285.92,502.19c3.05-0.37,6.11-0.29,9.18-0.3c-0.55,0.58-1.27,0.3-1.91,0.31
	C290.77,502.22,288.34,502.19,285.92,502.19z"/>
<path class="st1" d="M518.19,318.59c-0.93-0.43-1.85-0.85-2.78-1.28C516.92,316.4,517.88,316.85,518.19,318.59z"/>
<path class="st1" d="M254.39,501.89c2.95,0,5.91-0.07,8.86,0.29c-2.57,0.01-5.15,0.02-7.72,0.02
	C255.12,502.21,254.68,502.29,254.39,501.89z"/>
<path class="st1" d="M119.89,475.39c1.14,0.34,2.29,0.65,3.29,1.34c-0.05,0-0.1-0.01-0.15,0C121.67,477,120.26,477.41,119.89,475.39
	z"/>
<path class="st1" d="M308.46,40.44c-2.44,0-4.88,0.07-7.3-0.29C303.6,39.93,306.04,39.85,308.46,40.44z"/>
<path class="st1" d="M437.73,309.23c-0.01-2.85-0.12-5.71,0.29-8.55c0.01,2.47,0.02,4.94,0.02,7.41
	C438.04,308.5,438.12,308.93,437.73,309.23z"/>
<path class="st1" d="M421.77,478.24c1.02-0.55,2.1-0.92,3.22-1.2c0.53,0.72-0.16,0.93-0.53,1.31c-0.39,0.41-0.6,0.32-0.95-0.08
	C423,477.71,422.35,478.5,421.77,478.24z"/>
<path class="st1" d="M124.18,477.05c1.07,0.31,2.18,0.53,3.09,1.23c-0.64,0.11-1.37-0.63-1.99,0.28
	C125.22,478.65,123.68,478.24,124.18,477.05z"/>
<path class="st1" d="M248.03,40.15c-2.43,0.38-4.87,0.29-7.32,0.29C243.13,39.87,245.58,39.99,248.03,40.15z"/>
<path class="st1" d="M73.57,452.13c0.71,0.26,1.31,0.68,1.87,1.17c-0.25,0.6-0.63,0.87-1.3,0.58
	C73.26,453.5,73.35,452.84,73.57,452.13z"/>
<path class="st1" d="M60.15,442.9c0.7,0.42,1.46,0.76,1.88,1.51c-0.49,0.18-0.88,0.96-1.48,0.44
	C59.98,444.36,60.08,443.6,60.15,442.9z"/>
<path class="st1" d="M23.79,406.86c0.71,0.74,1.32,1.55,1.83,2.45C23.74,409.07,23.36,408.57,23.79,406.86z"/>
<path class="st1" d="M543.05,363.62c-0.01-2.69-0.01-5.38-0.02-8.07c0.63,0.53,0.37,1.26,0.33,1.87
	C543.22,359.49,543.81,361.59,543.05,363.62z"/>
<path class="st1" d="M441.75,470.18c0.35-0.35,0.78-0.52,1.27-0.58c0.16,0.26,0.48,0.55,0.44,0.77c-0.07,0.44,0.58,1.11-0.22,1.31
	c-0.62,0.15-0.95-0.2-0.82-0.92C442.44,470.61,441.98,470.38,441.75,470.18z"/>
<path class="st1" d="M91.86,462.77c0.98,0.1,1.73,0.69,2.51,1.2c-1.07,0.41-2.11-0.66-3.2-0.09c-0.06,0.03-0.28-0.14-0.33-0.25
	c-0.1-0.22,0.06-0.38,0.25-0.47C91.35,463.04,91.87,463.42,91.86,462.77z"/>
<path class="st1" d="M86.89,459.98c0.55,0.21,1.14,0.37,1.5,0.9c-0.71,0.18-1.22,0.79-2.06,0.76c-0.39-0.01-0.49,0.06-0.5-0.36
	c-0.01-0.36,0.07-0.89,0.4-0.71C87.19,461.11,86.52,459.99,86.89,459.98z"/>
<path class="st1" d="M525.33,323c-0.73-0.51-1.46-1.02-2.19-1.53c0.2-0.46,0.45-0.86,1.04-0.54c0.41,0.23,1.13,0.21,0.8,1.08
	C524.88,322.26,525.2,322.67,525.33,323z"/>
<path class="st1" d="M165.52,489.76c1.3,0.18,2.57,0.44,3.8,0.92C167.88,491.1,166.3,490.71,165.52,489.76z"/>
<path class="st1" d="M456,71.38c-0.06,0.36-0.19,0.66-0.47,0.53c-0.71-0.33-0.93-1.05-1.11-1.72c-0.1-0.37,0.31-0.59,0.58-0.48
	C455.74,70.02,455.57,70.92,456,71.38z"/>
<path class="st1" d="M435.23,472.99c0.67-0.43,1.38-0.79,2.19-0.87c-0.14,0.41,0.4,1.37-0.85,0.86c-0.33-0.14-0.13,0.87-0.51,1.27
	C435.21,474.24,435.69,473.28,435.23,472.99z"/>
<path class="st1" d="M459.48,88.29c-0.06-2,0.93-3.88,0.61-5.9c0.87,0.61,0.47,1.57,0.4,2.27
	C460.36,85.89,459.84,87.08,459.48,88.29z"/>
<path class="st1" d="M462.91,459.64c0.92-0.53,1.85-1.07,2.77-1.6C465.68,460.16,464.23,459.79,462.91,459.64z"/>
<path class="st1" d="M227.04,500.04c2.19,0.04,4.37,0.23,6.53,0.59C231.36,500.8,229.18,500.63,227.04,500.04z"/>
<path class="st1" d="M443.64,212.9c0.03-2.01,0.2-4.01,0.59-5.99C444.67,208.97,444.09,210.93,443.64,212.9z"/>
<path class="st1" d="M426.8,476.37c0.8-0.44,1.57-0.92,2.54-0.87c-0.23,0.26-0.45,0.52-0.74,0.85c0.33,0,0.61,0,1.1,0
	C428.58,477.15,427.69,476.82,426.8,476.37z"/>
<path class="st1" d="M98.72,68.42c-0.68,0.59-1.29,1.29-2.2,1.55c-0.34-0.97-0.36-1.68,1.03-1.44
	C97.93,68.58,98.33,68.46,98.72,68.42z"/>
<path class="st1" d="M69.18,449.4c0.97,0.25,1.75,0.82,2.42,1.54C70.25,451.28,69.39,450.85,69.18,449.4z"/>
<path class="st1" d="M349.62,496.58c1.79-0.47,3.61-0.75,5.45-0.91C353.37,496.65,351.48,496.55,349.62,496.58z"/>
<path class="st1" d="M147.21,51.02c-1.32,0.47-2.69,0.72-4.07,0.9C144.24,50.45,145.79,51.03,147.21,51.02z"/>
<path class="st1" d="M508.85,314.95c-0.75-0.24-1.49-0.47-2.24-0.71c0.29-0.09,0.59-0.15,0.86-0.28c0.51-0.23,1.04-0.59,1.55-0.13
	C509.47,314.23,508.31,314.47,508.85,314.95z"/>
<path class="st1" d="M444.27,206.37c0.03-1.89,0.2-3.77,0.58-5.63C444.91,202.65,444.98,204.55,444.27,206.37z"/>
<path class="st1" d="M438.06,298.35c-0.03-2.12-0.11-4.25,0.26-6.36C438.22,294.11,438.68,296.26,438.06,298.35z"/>
<path class="st1" d="M438.96,277.54c0-1.82-0.09-3.64,0.3-5.44C439.33,273.92,439.73,275.76,438.96,277.54z"/>
<path class="st1" d="M474.06,453.1c0.72-0.46,1.43-0.92,2.15-1.38C475.6,452.34,475.93,454.43,474.06,453.1z"/>
<path class="st1" d="M233.39,40.77c-1.69,0.34-3.4,0.3-5.11,0.29c0.35-0.41,0.8-0.72,1.33-0.54
	C230.86,40.95,232.14,40.61,233.39,40.77z"/>
<path class="st1" d="M444.84,65.07c-0.62-0.34-1.24-0.67-1.86-1.01c0.37-0.19,0.54-0.84,1.13-0.52
	C444.72,63.87,444.96,64.39,444.84,65.07z"/>
<path class="st1" d="M438.35,290.9c-0.01-2.03-0.12-4.06,0.28-6.07C438.51,286.85,439.04,288.9,438.35,290.9z"/>
<path class="st1" d="M155.88,487.31c0.81-0.03,1.54,0.24,2.26,0.57C156.66,488.8,156.31,488.71,155.88,487.31z"/>
<path class="st1" d="M314.98,40.74c-1.91,0.01-3.83,0.07-5.72-0.28C311.17,40.56,313.1,40.08,314.98,40.74z"/>
<path class="st1" d="M44.65,430.09c0.52,0.29,0.95,0.69,1.3,1.17c-0.16,0.12-0.34,0.23-0.49,0.36c-0.35,0.31-0.83,0.32-1.12,0.11
	c-0.45-0.32,0.16-0.58,0.21-0.89C44.59,430.59,44.61,430.34,44.65,430.09z"/>
<path class="st1" d="M213.81,42.04c-1.16,0.35-2.36,0.28-3.55,0.29c-0.01-0.19-0.03-0.38-0.04-0.56
	C211.38,42.26,212.66,41.31,213.81,42.04z"/>
<path class="st1" d="M439.27,271.63c-0.01-1.71-0.08-3.43,0.3-5.12C439.59,268.23,440,269.96,439.27,271.63z"/>
<path class="st1" d="M121.41,57.85c-0.9,0.42-1.81,0.84-2.82,0.89C119.31,57.72,120.19,57.23,121.41,57.85z"/>
<path class="st1" d="M430.54,58.87c-0.63-0.18-1.29-0.29-1.84-0.69c0.42-0.48,0.87-0.75,1.56-0.51
	C431.06,57.95,430.14,58.55,430.54,58.87z"/>
<path class="st1" d="M106.16,64.05c-0.59,0.37-1.15,0.81-1.88,0.88C104.45,63.75,104.82,63.57,106.16,64.05z"/>
<path class="st1" d="M321.2,41.08c-1.81,0-3.62,0.05-5.41-0.3C317.59,40.89,319.43,40.36,321.2,41.08z"/>
<path class="st1" d="M53.33,437.64c0.61,0.25,1.11,0.63,1.47,1.19c-0.54,0.14-0.1,0.81-0.33,0.85c-0.55,0.09-0.69-0.52-0.9-0.87
	C53.37,438.48,53.4,438.04,53.33,437.64z"/>
<path class="st1" d="M449.78,466.45c0.84-0.43,1.69-0.85,2.53-1.28C452.02,466.68,450.92,466.61,449.78,466.45z"/>
<path class="st1" d="M247.86,501.59c1.82-0.01,3.65-0.09,5.45,0.28C251.5,501.75,249.65,502.27,247.86,501.59z"/>
<path class="st1" d="M338.91,42.32c-1.15,0-2.31,0.05-3.44-0.27c1.12-0.52,2.34,0.16,3.47-0.29
	C338.93,41.94,338.92,42.13,338.91,42.32z"/>
<path class="st1" d="M295.86,501.87c1.8-0.38,3.63-0.29,5.45-0.29C299.52,502.27,297.67,501.75,295.86,501.87z"/>
<path class="st1" d="M477.48,450.92c0.63-0.43,1.25-0.85,1.88-1.28C479.84,451.71,478.42,450.96,477.48,450.92z"/>
<path class="st1" d="M239.91,40.46c-1.69,0.35-3.4,0.27-5.1,0.26C236.48,40.11,238.21,40.55,239.91,40.46z"/>
<path class="st1" d="M106.16,469.6c0.49,0.06,0.91,0.24,1.27,0.58c-0.17,0.11-0.33,0.24-0.5,0.34c-0.32,0.18-0.63,0.67-1.04,0.27
	C105.38,470.3,106.02,469.99,106.16,469.6z"/>
<path class="st1" d="M453.55,70.96c-0.64-0.53-1.29-1.06-1.93-1.59c0.24-0.12,0.48-0.23,0.72-0.35v0
	C452.38,69.89,454.13,69.7,453.55,70.96z"/>
<path class="st1" d="M194.1,495.67c1.18,0,2.32,0.24,3.44,0.58C196.37,496.19,195.08,496.84,194.1,495.67z"/>
<path class="st1" d="M83.47,458.09c0.58,0.19,1.14,0.41,1.51,0.93c-0.33,0.26-0.55,0.91-1.02,0.67
	C83.37,459.39,83.71,458.61,83.47,458.09z"/>
<path class="st1" d="M462.44,314.24c-0.85,0.36-1.74,0.53-2.65,0.58c-0.26-1.05,0.52-0.85,1.05-0.83
	C461.38,314.01,461.91,314.15,462.44,314.24z"/>
<path class="st1" d="M39.41,425.07c0.58,0.48,1.28,0.84,1.53,1.62c-0.3-0.05-0.6-0.13-0.9-0.16
	C38.92,426.43,38.96,425.85,39.41,425.07z"/>
<path class="st1" d="M315.6,500.63c1.12-0.33,2.27-0.31,3.42-0.3c-0.73,0.68-1.92-0.1-2.39,0.43
	C315.99,501.49,315.89,501.12,315.6,500.63z"/>
<path class="st1" d="M10.79,383.73c0.35,0.49,0.64,1.01,0.59,1.64c-0.48-0.09-0.97-0.17-1.48-0.26
	C9.95,384.48,10.66,384.29,10.79,383.73z"/>
<path class="st1" d="M111.47,61.58c-0.48,0.32-0.94,0.69-1.58,0.58c0.11-0.17,0.32-0.33,0.33-0.5c0.02-0.46-0.04-0.9,0.6-0.99
	C111.63,60.56,110.91,61.52,111.47,61.58z"/>
<path class="st1" d="M379.85,490.68c0.84-0.23,1.69-0.45,2.53-0.68c0.02,0.22,0.29,0.63-0.03,0.63
	C381.52,490.62,380.69,491.21,379.85,490.68z"/>
<path class="st1" d="M16.4,395.5c0.39,0.51,0.82,1,0.88,1.68c-0.3,0.11-0.85,0.33-0.86,0.3C16.13,396.83,16.14,396.16,16.4,395.5z"
	/>
<path class="st1" d="M438.68,283.13c0-1.62-0.13-3.24,0.27-4.83C438.84,279.9,439.32,281.55,438.68,283.13z"/>
<path class="st1" d="M479.9,449.34c0.7-0.58,1.37-1.2,2.27-1.47C481.74,448.87,481.15,449.61,479.9,449.34z"/>
<path class="st1" d="M454.82,120.61c0.02-1.41,0.23-2.79,0.59-4.14C455.46,117.88,455.61,119.31,454.82,120.61z"/>
<path class="st1" d="M307.39,501.25c1.37-0.37,2.78-0.3,4.18-0.3C310.23,501.83,308.78,501.18,307.39,501.25z"/>
<path class="st1" d="M425,477.04c0.54-0.4,1.16-0.58,1.81-0.68C426.72,477.5,426.46,477.6,425,477.04z"/>
<path class="st1" d="M35.3,420.86c0.47,0.12,0.69,0.5,0.91,0.88c-0.47,0.04-0.63,1.02-1.16,0.56
	C34.58,421.89,35.27,421.36,35.3,420.86z"/>
<path class="st1" d="M448.59,167.53c-0.01-0.78-0.05-1.57,0.28-2.31C449.51,166.08,449.72,166.89,448.59,167.53z"/>
<path class="st1" d="M30.02,414.92c0.73,0.42,1.18,1.09,1.61,1.79C30.79,416.39,29.74,416.26,30.02,414.92z"/>
<path class="st1" d="M103.08,65.68c-0.78,0.58-1.56,1.16-2.52,1.43C101.01,65.95,102.09,65.89,103.08,65.68z"/>
<path class="st1" d="M493.04,312.01c-1.5,0.01-3.01,0.04-4.5-0.26C490.04,311.83,491.57,311.4,493.04,312.01z"/>
<path class="st1" d="M103.54,64.49c-0.55-0.58-0.46-1.04-0.07-1.45c0.23-0.25,0.51-0.1,0.62,0.12
	C104.41,63.77,103.77,64.01,103.54,64.49z"/>
<path class="st1" d="M394.18,49.57c-1.15-0.24-2.3-0.48-3.45-0.72C391.96,48.73,393.19,48.56,394.18,49.57z"/>
<path class="st1" d="M94.39,121.7c0.37,1.27,0.55,2.56,0.57,3.88C94.2,124.37,94.34,123.02,94.39,121.7z"/>
<path class="st1" d="M441.47,238.07c-0.02-1.05-0.08-2.1,0.25-3.13C442.22,236.03,441.84,237.05,441.47,238.07z"/>
<path class="st1" d="M338.79,498.14c1.36-0.36,2.75-0.53,4.16-0.58C341.62,498.17,340.22,498.24,338.79,498.14z"/>
<path class="st1" d="M469.06,456.15c0.44-0.47,1-0.72,1.57-0.97C470.79,456.2,470.79,456.2,469.06,456.15z"/>
<path class="st1" d="M439.89,260.76c0-1.5-0.07-3,0.29-4.47C440.08,257.77,440.58,259.3,439.89,260.76z"/>
<path class="st1" d="M206.22,497.56c1.38,0.04,2.74,0.2,4.08,0.58C208.9,498.24,207.52,498.15,206.22,497.56z"/>
<path class="st1" d="M227.52,41.08c-1.38,0.39-2.8,0.28-4.21,0.29C224.68,40.73,226.12,41.18,227.52,41.08z"/>
<path class="st1" d="M222.53,41.4c-1.38,0.38-2.79,0.29-4.2,0.31C219.69,41.01,221.13,41.5,222.53,41.4z"/>
<path class="st1" d="M330.83,41.7c-1.4-0.01-2.81,0.07-4.18-0.3C328.05,41.5,329.48,41.01,330.83,41.7z"/>
<path class="st1" d="M108.96,470.85c0.69,0.14,1.31,0.43,1.9,0.81c-0.18,0.4-0.38,0.82-0.88,0.33
	C109.62,471.63,109.3,471.23,108.96,470.85z"/>
<path class="st1" d="M540.86,344.44c-0.33-0.85-0.65-1.7-0.98-2.55C540.7,342.56,541.34,343.28,540.86,344.44z"/>
<path class="st1" d="M81.91,457.18c0.58,0.2,1.11,0.48,1.56,0.91C82.73,458.15,81.54,459,81.91,457.18z"/>
<path class="st1" d="M439.61,265.41c-0.02-1.41-0.1-2.83,0.27-4.21C439.78,262.61,440.22,264.04,439.61,265.41z"/>
<path class="st1" d="M129.49,55.36c-0.69,0.35-1.41,0.63-2.2,0.59c0.04-0.27-0.66-0.8-0.23-0.64
	C127.94,55.64,128.72,54.89,129.49,55.36z"/>
<path class="st1" d="M480.15,452.13c-0.63,0.03-1.46,0.73-1.8-0.44C479.05,451.39,479.58,451.83,480.15,452.13z"/>
<path class="st1" d="M406.03,51.93c-0.88-0.03-1.73-0.22-2.55-0.57C404.41,51.23,405.41,50.73,406.03,51.93z"/>
<path class="st1" d="M482.65,311.74c-1.39,0.33-2.8,0.27-4.21,0.26C479.81,311.41,481.25,311.84,482.65,311.74z"/>
<path class="st1" d="M151.68,50.1c-0.95,0.36-1.93,0.58-2.95,0.6C149.54,49.65,150.66,50.12,151.68,50.1z"/>
<path class="st1" d="M441.14,242.42c-0.01-1.2-0.08-2.41,0.29-3.58C441.1,240.02,442.27,241.31,441.14,242.42z"/>
<path class="st1" d="M237.6,500.95c1.39-0.01,2.79-0.06,4.16,0.3C240.38,501.15,238.95,501.62,237.6,500.95z"/>
<path class="st1" d="M89.72,89.37c0.4,1.27,0.56,2.57,0.59,3.89C89.72,92.02,89.62,90.71,89.72,89.37z"/>
<path class="st1" d="M242.89,501.29c1.4-0.02,2.81-0.08,4.2,0.27C245.69,501.47,244.26,501.9,242.89,501.29z"/>
<path class="st1" d="M302.08,501.56c1.38-0.36,2.8-0.28,4.2-0.27C304.91,501.9,303.48,501.47,302.08,501.56z"/>
<path class="st1" d="M94.25,72.13c-0.5,0.71-1.01,1.39-1.77,1.86C92.42,72.74,93.45,72.54,94.25,72.13z"/>
<path class="st1" d="M390.49,48.81c-1.11-0.03-2.2-0.21-3.25-0.57C388.39,48.08,389.5,48.12,390.49,48.81z"/>
<path class="st1" d="M161.92,48.24c-1.05,0.36-2.13,0.54-3.24,0.57C159.66,48.05,160.79,48.18,161.92,48.24z"/>
<path class="st1" d="M64.82,446.33c0.4,0.01,0.65,0.24,0.83,0.57c-0.74-0.01-1.5,0.34-2.27-0.06
	C63.72,446.03,64.51,446.96,64.82,446.33z"/>
<path class="st1" d="M440.52,251.12c0-1.31-0.1-2.62,0.29-3.9C440.7,248.52,441.2,249.87,440.52,251.12z"/>
<path class="st1" d="M19.15,400.26c0.42,0.17,0.65,0.48,0.63,0.95c-0.49,0.17-0.14,1.1-0.94,1.03
	C18.94,401.58,19.04,400.92,19.15,400.26z"/>
<path class="st1" d="M440.22,255.47c-0.02-1.29-0.08-2.59,0.27-3.86C440.4,252.9,440.87,254.23,440.22,255.47z"/>
<path class="st1" d="M15.11,393.14c0.42,0.56,0.86,1.12,0.93,1.86C14.87,394.81,14.93,394.01,15.11,393.14z"/>
<path class="st1" d="M529.93,323.28c0.44,0.08,0.67,0.29,0.61,0.63c-0.06,0.36-0.34,0.42-0.7,0.32c-0.29-0.08-0.67-0.12-0.53-0.5
	C529.4,323.51,529.76,323.4,529.93,323.28z"/>
<path class="st1" d="M487.76,311.74c-1.24,0.13-2.49,0.13-3.73,0C485.27,311.21,486.52,311.21,487.76,311.74z"/>
<path class="st1" d="M94.37,463.96c0.67,0.17,1.29,0.44,1.78,0.96c-0.49-0.03-0.98-0.02-1.47-0.08
	C94.05,464.76,94.18,464.36,94.37,463.96z"/>
<path class="st1" d="M325.55,41.35c-1.3-0.01-2.62,0.12-3.89-0.27C322.95,41.18,324.29,40.72,325.55,41.35z"/>
<path class="st1" d="M97.82,146.69c0.32,0.6,0.27,1.24,0.26,1.88C96.84,148.1,97.51,147.37,97.82,146.69z"/>
<path class="st1" d="M442.09,230.3c-0.01-0.95-0.08-1.9,0.24-2.82C442.67,228.46,442.46,229.39,442.09,230.3z"/>
<path class="st1" d="M496.46,312.34c-0.88,0.02-1.76,0.04-2.6-0.28C494.74,312.07,495.7,311.3,496.46,312.34z"/>
<path class="st1" d="M311.77,500.94c1.15-0.34,2.34-0.31,3.52-0.29C314.17,501.29,312.95,500.86,311.77,500.94z"/>
<path class="st1" d="M22.57,405.29c0.63,0.33,0.89,0.96,1.21,1.53C22.27,407.18,22.93,405.83,22.57,405.29z"/>
<path class="st1" d="M100.06,67.51c-0.37,0.42-0.81,0.73-1.34,0.91C98.27,66.79,99.28,67.33,100.06,67.51z"/>
<path class="st1" d="M346.06,42.95c-1.08-0.01-2.17,0.07-3.23-0.29C343.93,42.55,345.03,42.37,346.06,42.95z"/>
<path class="st1" d="M334.56,41.98c-1.19,0.02-2.39,0.06-3.56-0.27C332.19,41.78,333.42,41.36,334.56,41.98z"/>
<path class="st1" d="M446.68,183.67c0.03-0.94-0.02-1.89,0.31-2.79C447.28,181.85,447.21,182.78,446.68,183.67z"/>
<path class="st1" d="M109.2,62.49c-0.28,0.44-0.69,0.59-1.19,0.57c-0.36-0.68,0.65-0.93,0.4-1.58
	C108.75,61.83,108.54,62.48,109.2,62.49z"/>
<path class="st1" d="M76.01,453.76c0.66,0.04,1.12,0.4,1.5,0.9C76.61,455.04,76.1,454.76,76.01,453.76z"/>
<path class="st1" d="M450.86,317.04c-0.71,0.35-1.44,0.59-2.23,0.63C449.38,317.5,449.78,316.06,450.86,317.04z"/>
<path class="st1" d="M179.27,494.21c-0.6-0.7-0.82,0.87-1.39,0.26c-0.17-0.18-0.11-0.42,0.04-0.56
	C178.43,493.43,178.82,493.9,179.27,494.21z"/>
<path class="st1" d="M43.69,429.2c0.42,0.19,0.74,0.49,0.96,0.9c-0.43,0.09-0.35,1.06-0.99,0.68c-0.69-0.41,0.48-0.44,0.25-0.85
	C43.8,429.7,43.76,429.44,43.69,429.2z"/>
<path class="st1" d="M540.29,378.22c0.03-0.7,0.23-1.35,0.57-1.96C541.14,377.05,541.29,377.8,540.29,378.22z"/>
<path class="st1" d="M501.09,313.03c-0.63-0.01-1.27,0-1.85-0.31C499.66,312.3,500.49,312.44,501.09,313.03z"/>
<path class="st1" d="M89.08,81.45c-0.01,1.04-0.02,2.07-0.02,3.11C88.59,83.52,88.56,82.48,89.08,81.45z"/>
<path class="st1" d="M462.13,461.72c-0.13,0.1-0.26,0.29-0.42,0.31c-0.34,0.02-0.59-0.18-0.57-0.54c0.01-0.15,0.22-0.42,0.34-0.41
	C461.8,461.08,462.01,461.32,462.13,461.72z"/>
<path class="st1" d="M440.86,246.15c-0.02-1.09-0.09-2.19,0.26-3.26C441.03,243.98,441.47,245.1,440.86,246.15z"/>
<path class="st1" d="M442.39,226.88c-0.02-1.09-0.07-2.18,0.28-3.24C442.58,224.72,443.04,225.85,442.39,226.88z"/>
<path class="st1" d="M454.77,463.97c0.59-0.4,1.16-0.85,1.91-0.88C456.48,464.32,455.45,463.77,454.77,463.97z"/>
<path class="st1" d="M206.37,42.64c-1.06,0.38-2.17,0.29-3.26,0.31C204.14,42.24,205.28,42.75,206.37,42.64z"/>
<path class="st1" d="M102.12,467.74c0.66,0.18,1.31,0.39,1.8,0.91C102.9,469.17,102.62,468.23,102.12,467.74z"/>
<path class="st1" d="M441.77,234.34c0-1.1-0.1-2.2,0.28-3.27C441.95,232.16,442.42,233.3,441.77,234.34z"/>
<path class="st1" d="M56.44,440.13c0.34-0.01,0.52,0.22,0.69,0.48c-0.42,0.2-0.44,0.93-1.1,0.89
	C55.74,440.88,56.55,440.64,56.44,440.13z"/>
<path class="st1" d="M191.93,495.33c0.68-0.04,1.36-0.01,1.98,0.31c-0.6,0.02-1.17,0.2-1.76,0.34
	C191.2,496.2,192.01,495.56,191.93,495.33z"/>
<path class="st1" d="M210.08,42.33c-1.06,0.34-2.15,0.3-3.24,0.28C207.87,41.96,209,42.42,210.08,42.33z"/>
<path class="st1" d="M342.33,42.61c-1.09,0.02-2.18,0.07-3.24-0.28C340.17,42.42,341.3,41.96,342.33,42.61z"/>
<path class="st1" d="M27.54,411.78c0.51,0.43,0.98,0.89,1.19,1.55C28.04,413.05,27.19,412.87,27.54,411.78z"/>
<path class="st1" d="M450.15,155.1c-0.01-0.77-0.04-1.54,0.29-2.26c0.08,0.75,0.15,1.5,0.23,2.25
	C450.77,155.95,450.34,154.97,450.15,155.1z"/>
<path class="st1" d="M444.84,200.77c0.01-0.94-0.05-1.89,0.29-2.8C445.17,198.91,445.48,199.89,444.84,200.77z"/>
<path class="st1" d="M521.59,320.52c-0.4-0.24-0.8-0.48-1.21-0.72c0.52-0.3,1.04-0.56,1.56,0
	C521.83,320.04,521.71,320.28,521.59,320.52z"/>
<path class="st1" d="M233.88,500.65c1.1,0,2.21-0.1,3.28,0.29C236.07,500.83,234.92,501.32,233.88,500.65z"/>
<path class="st1" d="M218.18,41.7c-1.07,0.33-2.16,0.28-3.26,0.26C215.97,41.36,217.1,41.79,218.18,41.7z"/>
<path class="st1" d="M477.21,312.08c-0.81,0.31-1.66,0.26-2.5,0.24C475.52,311.96,476.34,311.78,477.21,312.08z"/>
<path class="st1" d="M448.65,317.66c-0.58,0.36-1.24,0.48-1.91,0.57C446.98,316.7,448.01,317.82,448.65,317.66z"/>
<path class="st1" d="M469.48,312.98c-0.6,0.34-1.25,0.31-1.9,0.31C468.07,312.31,468.77,312.66,469.48,312.98z"/>
<path class="st1" d="M160.54,488.54c0.46-0.07,0.9,0.01,1.28,0.29c-0.57,0.16-1.14,0.32-1.71,0.47
	C159.97,488.82,160.47,488.83,160.54,488.54z"/>
<path class="st1" d="M163.03,489.17c0.88-0.01,1.71,0.24,2.51,0.59C164.64,489.83,163.77,489.75,163.03,489.17z"/>
<path class="st1" d="M95.04,126.18c0.32,0.6,0.27,1.24,0.26,1.88c-0.53-0.51-0.2-1.39-0.8-1.87
	C94.67,126.19,94.85,126.19,95.04,126.18z"/>
<path class="st1" d="M457.34,102.89c-0.03-0.54-0.05-1.08,0.25-1.56C458.21,101.96,457.97,102.46,457.34,102.89z"/>
<path class="st1" d="M352.28,43.56c-0.98,0.01-1.96,0.05-2.91-0.29C350.34,43.34,351.36,42.91,352.28,43.56z"/>
<path class="st1" d="M199.8,43.26c-0.94,0.35-1.93,0.3-2.91,0.3C197.81,42.91,198.83,43.34,199.8,43.26z"/>
<path class="st1" d="M202.97,42.95c-0.96,0.36-1.97,0.31-2.96,0.3C200.94,42.6,201.98,43.04,202.97,42.95z"/>
<path class="st1" d="M440.4,470.77c0.39-0.33,0.84-0.55,1.36-0.59C441.52,470.88,441.38,471.79,440.4,470.77z"/>
<path class="st1" d="M443.32,216.32c-0.02-0.99-0.06-1.97,0.28-2.93C443.53,214.37,443.94,215.39,443.32,216.32z"/>
<path class="st1" d="M220.53,499.37c0.98,0.03,1.96-0.03,2.9,0.32C222.46,499.6,221.43,500.07,220.53,499.37z"/>
<path class="st1" d="M223.62,499.71c0.98-0.01,1.96-0.06,2.9,0.3C225.55,499.92,224.53,500.35,223.62,499.71z"/>
<path class="st1" d="M349.17,43.24c-1,0.01-2,0.06-2.97-0.3C347.19,43.04,348.23,42.6,349.17,43.24z"/>
<path class="st1" d="M319.23,500.31c0.95-0.33,1.92-0.3,2.9-0.27C321.21,500.64,320.2,500.24,319.23,500.31z"/>
<path class="st1" d="M32.51,417.76c0.48,0.26,0.88,0.58,0.97,1.17C32.89,418.76,32.01,418.83,32.51,417.76z"/>
<path class="st1" d="M459.59,314.86c-0.83,0.36-1.69,0.55-2.59,0.6C457.76,314.82,458.66,314.78,459.59,314.86z"/>
<path class="st1" d="M446.1,188.97c-0.01-0.89-0.06-1.78,0.3-2.63C446.23,187.21,446.9,188.18,446.1,188.97z"/>
<path class="st1" d="M542.75,366.72c0-0.98-0.03-1.97,0.29-2.92C542.96,364.78,543.39,365.8,542.75,366.72z"/>
<path class="st1" d="M41.75,429.65c-0.26-0.03-0.6-0.07-0.58-0.34c0.01-0.19,0.29-0.44,0.51-0.51c0.26-0.09,0.49,0.17,0.55,0.4
	C42.32,429.57,41.93,429.52,41.75,429.65z"/>
<path class="st1" d="M539.69,380.08c0.03-0.6,0.21-1.15,0.55-1.65C540.61,379.17,540.68,379.8,539.69,380.08z"/>
<path class="st1" d="M459.12,90.75c0.02-0.75-0.03-1.52,0.33-2.22C459.88,89.35,459.61,90.07,459.12,90.75z"/>
<path class="st1" d="M178.35,45.75c-0.82,0.35-1.69,0.31-2.56,0.35C176.57,45.38,177.47,45.61,178.35,45.75z"/>
<path class="st1" d="M467.4,457.1c0.48-0.44,1.03-0.76,1.66-0.96C469.08,457.46,468.02,456.9,467.4,457.1z"/>
<path class="st1" d="M442.7,223.15c-0.01-0.99-0.06-1.99,0.28-2.94C442.9,221.19,443.32,222.22,442.7,223.15z"/>
<path class="st1" d="M460.07,81.9c-0.32-0.52-0.28-1.11-0.31-1.68C460.66,80.64,460.52,81.24,460.07,81.9z"/>
<path class="st1" d="M445.49,194.57c-0.02-0.88-0.06-1.77,0.29-2.61C445.7,192.83,446.12,193.75,445.49,194.57z"/>
<path class="st1" d="M355.07,43.85c-0.88,0.02-1.77,0.04-2.61-0.28C353.33,43.64,354.26,43.23,355.07,43.85z"/>
<path class="st1" d="M387.37,488.83c0.38-0.28,0.8-0.39,1.27-0.27c0.19,0.15,0.38,0.3,0.86,0.67
	C388.5,489.25,387.99,488.7,387.37,488.83z"/>
<path class="st1" d="M462.99,460.49c0.31,0.11,0.39,0.36,0.36,0.6c-0.02,0.18-0.2,0.34-0.3,0.5c-0.18-0.18-0.48-0.35-0.5-0.54
	C462.53,460.87,462.83,460.67,462.99,460.49z"/>
<path class="st1" d="M357.87,44.16c-0.86,0.01-1.73,0.05-2.56-0.28C356.16,43.95,357.07,43.55,357.87,44.16z"/>
<path class="st1" d="M458.23,76.5c-0.21-0.31-0.43-0.63-0.64-0.94c0.26-0.07,0.54-0.4,0.8-0.13
	C458.74,75.81,458.34,76.15,458.23,76.5z"/>
<path class="st1" d="M358.72,495.03c0.5-0.31,1.07-0.31,1.63-0.29c0,0.19,0.34,0.53-0.09,0.53
	C359.75,495.28,359.24,495.12,358.72,495.03z"/>
<path class="st1" d="M188.28,44.5c-0.72,0.32-1.49,0.3-2.25,0.27C186.72,44.21,187.49,44.33,188.28,44.5z"/>
<path class="st1" d="M363.15,44.77c-0.77,0.03-1.53,0.04-2.25-0.27C361.68,44.33,362.45,44.21,363.15,44.77z"/>
<path class="st1" d="M458.36,463.46c0.01,0.24-0.13,0.39-0.33,0.43c-0.28,0.05-0.53-0.1-0.53-0.38c0-0.13,0.24-0.31,0.4-0.36
	C458.12,463.09,458.28,463.25,458.36,463.46z"/>
<path class="st1" d="M381.47,47.3c-0.67,0.01-1.33,0.03-1.94-0.31C380.19,46.95,380.94,46.41,381.47,47.3z"/>
<path class="st1" d="M154.98,49.47c-0.48,0.32-1.03,0.32-1.58,0.31C153.67,48.33,154.47,49.64,154.98,49.47z"/>
<path class="st1" d="M13.55,390.13c0.44,0.35,0.59,0.85,0.71,1.37c-0.21,0.02-0.51,0.5-0.61-0.09
	C13.58,391,13.58,390.56,13.55,390.13z"/>
<path class="st1" d="M446.41,186.18c0-0.86-0.06-1.72,0.29-2.54C446.64,184.49,447.06,185.4,446.41,186.18z"/>
<path class="st1" d="M218.03,499.09c0.85,0,1.72-0.06,2.53,0.29C219.71,499.31,218.81,499.73,218.03,499.09z"/>
<path class="st1" d="M328.56,499.38c0.83-0.34,1.71-0.3,2.58-0.29C330.34,499.73,329.43,499.31,328.56,499.38z"/>
<path class="st1" d="M535.8,389.67c0.25-0.51,0.5-1.02,0.75-1.53C536.75,388.88,536.75,389.51,535.8,389.67z"/>
<path class="st1" d="M543.05,355.57c-0.32-0.82-0.29-1.67-0.27-2.52C543.37,353.84,542.98,354.73,543.05,355.57z"/>
<path class="st1" d="M322.63,500c0.84-0.34,1.73-0.29,2.61-0.27C324.42,500.34,323.5,499.93,322.63,500z"/>
<path class="st1" d="M443.03,219.42c-0.02-0.89-0.08-1.78,0.26-2.63C443.22,217.67,443.62,218.59,443.03,219.42z"/>
<path class="st1" d="M447.69,174.99c-0.03-0.77-0.04-1.53,0.27-2.25C447.82,173.48,448.53,174.33,447.69,174.99z"/>
<path class="st1" d="M474.16,312.37c-0.82,0.33-1.68,0.31-2.55,0.32C472.39,312,473.31,312.46,474.16,312.37z"/>
<path class="st1" d="M456.65,107.85c0.01-0.76-0.03-1.53,0.32-2.24C456.81,106.35,457.6,107.22,456.65,107.85z"/>
<path class="st1" d="M118.59,474.87c0.5,0.02,0.92,0.23,1.31,0.52C119.2,475.89,118.71,475.83,118.59,474.87z"/>
<path class="st1" d="M148.58,50.73c-0.41,0.33-0.9,0.3-1.38,0.3c-0.08-0.19-0.25-0.39-0.21-0.55c0.11-0.46,0.38-0.1,0.57-0.05
	C147.91,50.5,148.24,50.62,148.58,50.73z"/>
<path class="st1" d="M530.63,327.61c-0.21-0.22-0.43-0.43-0.64-0.65c0.34,0,0.35-0.79,0.76-0.42
	C531.04,326.81,531.11,327.3,530.63,327.61z"/>
<path class="st1" d="M454.51,122.78c-0.02-0.64-0.06-1.29,0.27-1.88C455.21,121.6,454.84,122.19,454.51,122.78z"/>
<path class="st1" d="M542.41,350.58c-0.36-0.45-0.23-1.02-0.38-1.53C543.31,349.27,542.34,350.05,542.41,350.58z"/>
<path class="st1" d="M452.65,136.14c-0.03-0.66-0.03-1.32,0.28-1.94C452.57,134.81,453.81,135.65,452.65,136.14z"/>
<path class="st1" d="M41.83,427.43c0.5,0.28,0.9,0.66,1.21,1.15C42.41,428.43,41.78,428.29,41.83,427.43z"/>
<path class="st1" d="M445.19,197.36c-0.02-0.87-0.05-1.75,0.28-2.58C445.4,195.64,445.8,196.56,445.19,197.36z"/>
<path class="st1" d="M90.34,93.49c0.33,0.61,0.3,1.28,0.29,1.95C89.81,94.89,90.39,94.15,90.34,93.49z"/>
<path class="st1" d="M456.37,109.73c-0.01-0.65-0.07-1.31,0.28-1.9C456.63,108.47,457.17,109.2,456.37,109.73z"/>
<path class="st1" d="M458.85,92.64c-0.01-0.65-0.07-1.31,0.28-1.91C458.94,91.35,459.81,92.13,458.85,92.64z"/>
<path class="st1" d="M448.92,164.73c-0.02-0.69-0.07-1.38,0.27-2.02C448.96,163.37,449.85,164.17,448.92,164.73z"/>
<path class="st1" d="M96.56,137.29c0.35,0.72,0.31,1.5,0.31,2.27C96.23,138.88,96.62,138.05,96.56,137.29z"/>
<path class="st1" d="M112.38,472.41c0.59-0.05,1.07,0.16,1.47,0.59C113.16,473.3,112.69,473.06,112.38,472.41z"/>
<path class="st1" d="M113.33,474.15c-0.06,0.14-0.18,0.39-0.5,0.26c-0.11-0.04-0.16-0.21-0.24-0.33c0.21-0.12,0.41-0.29,0.64-0.34
	C113.4,473.7,113.43,473.89,113.33,474.15z"/>
<path class="st1" d="M451.99,141.1c0.01-0.78-0.03-1.56,0.31-2.3C452.23,139.57,452.65,140.41,451.99,141.1z"/>
<path class="st1" d="M539.01,339.74c-0.33-0.37-0.54-0.79-0.63-1.28C539.73,338.34,538.83,339.3,539.01,339.74z"/>
<path class="st1" d="M542.45,368.9c-0.01-0.67-0.03-1.35,0.28-1.97C542.68,367.59,543.27,368.35,542.45,368.9z"/>
<path class="st1" d="M449.24,162.25c-0.03-0.69-0.07-1.38,0.27-2.02C449.27,160.88,450.16,161.68,449.24,162.25z"/>
<path class="st1" d="M498.95,312.67c-0.77,0.01-1.53,0-2.25-0.31C497.45,312.44,498.27,312.04,498.95,312.67z"/>
<path class="st1" d="M449.51,160.08c0-0.78-0.05-1.57,0.3-2.3C449.76,158.54,450.15,159.38,449.51,160.08z"/>
<path class="st1" d="M442.36,63.81c-0.42-0.22-0.84-0.45-1.27-0.67C441.69,63.04,442.41,62.69,442.36,63.81z"/>
<path class="st1" d="M441.53,319.83c-0.6,0.33-1.22,0.63-1.94,0.56C440.13,319.81,440.81,319.74,441.53,319.83z"/>
<path class="st1" d="M416.64,480.62c0.75-0.2,1.23-0.3,1.73,0.38C417.77,480.86,417.32,480.76,416.64,480.62z"/>
<path class="st1" d="M397.83,486.01c0.62-0.35,1.28-0.54,1.99-0.58C399.28,486.07,398.57,486.1,397.83,486.01z"/>
<path class="st1" d="M125.95,55.61c-0.34,0.52-0.76,0.37-1.28,0.23C125.13,55.67,125.45,55.29,125.95,55.61z"/>
<path class="st1" d="M519.41,319.24c-0.48-0.08-0.9-0.29-1.24-0.65C518.75,318.49,519.48,318.11,519.41,319.24z"/>
<path class="st1" d="M26.59,410.62c0.48,0.25,0.73,0.69,0.94,1.16C26.94,411.63,26.24,411.55,26.59,410.62z"/>
<path class="st1" d="M57.12,440.6c0.47,0.25,0.99,0.43,1.16,1.01C57.72,441.48,57.08,441.44,57.12,440.6z"/>
<path class="st1" d="M185.57,44.81c-0.75,0.36-1.55,0.3-2.35,0.31C183.93,44.48,184.78,44.89,185.57,44.81z"/>
<path class="st1" d="M445.82,191.46c-0.02-0.79-0.07-1.58,0.27-2.33C446.02,189.91,446.41,190.74,445.82,191.46z"/>
<path class="st1" d="M59.31,443.81c-0.15,0.18-0.33,0.27-0.54,0.18c-0.19-0.08-0.38-0.21-0.26-0.46c0.11-0.22,0.31-0.24,0.51-0.13
	C59.18,443.48,59.44,443.52,59.31,443.81z"/>
<path class="st1" d="M172.04,491.33c0.48-0.06,0.94-0.03,1.34,0.28C172.08,491.95,172.08,491.95,172.04,491.33z"/>
<path class="st1" d="M14.25,391.5c0.4,0.48,0.71,1.01,0.85,1.63C14.48,392.77,14.2,392.22,14.25,391.5z"/>
<path class="st1" d="M366.86,493.49c0.48-0.33,1.02-0.32,1.56-0.32C368.08,494.16,367.4,493.52,366.86,493.49z"/>
<path class="st1" d="M28.67,415.99c0.03-0.62-0.27-1.1,0.2-1.2c0.45-0.09,0.42,0.3,0.26,0.6C29.06,415.52,28.95,415.62,28.67,415.99
	z"/>
<path class="st1" d="M185.41,494.1c0.56-0.01,1.12-0.03,1.61,0.31C186.39,494.8,185.85,494.72,185.41,494.1z"/>
<path class="st1" d="M362.14,494.41c0.49-0.34,1.06-0.31,1.62-0.31C363.32,494.74,362.77,494.79,362.14,494.41z"/>
<path class="st1" d="M67,447.88c0.59,0.06,0.97,0.45,1.35,0.84C67.84,448.54,66.98,448.91,67,447.88z"/>
<path class="st1" d="M450.46,152.61c-0.02-0.68-0.06-1.37,0.27-2.01C451.01,151.33,450.96,152,450.46,152.61z"/>
<path class="st1" d="M377.43,46.68c-0.76,0-1.52,0.01-2.23-0.32C375.95,46.44,376.77,46.03,377.43,46.68z"/>
<path class="st1" d="M173.96,46.36c-0.71,0.33-1.47,0.32-2.22,0.32C172.4,46.03,173.22,46.44,173.96,46.36z"/>
<path class="st1" d="M171.76,46.67c-0.6,0.33-1.25,0.31-1.9,0.29C170.37,46.03,171.16,46.96,171.76,46.67z"/>
<path class="st1" d="M451.08,147.95c-0.01-0.76-0.04-1.53,0.3-2.24C451.3,146.46,451.7,147.27,451.08,147.95z"/>
<path class="st1" d="M370.61,45.72c-0.76,0.01-1.52,0.03-2.23-0.3C369.12,45.5,369.93,45.11,370.61,45.72z"/>
<path class="st1" d="M180.8,45.43c-0.71,0.32-1.47,0.31-2.23,0.3C179.24,45.12,180.05,45.5,180.8,45.43z"/>
<path class="st1" d="M97.48,144.14c0.34,0.72,0.31,1.49,0.3,2.26C97.16,145.72,97.56,144.9,97.48,144.14z"/>
<path class="st1" d="M365.95,45.11c-0.79-0.01-1.6,0.06-2.35-0.3C364.39,44.89,365.24,44.48,365.95,45.11z"/>
<path class="st1" d="M360.66,44.48c-0.79,0.01-1.59,0.07-2.34-0.28C359.1,44.27,359.95,43.86,360.66,44.48z"/>
<path class="st1" d="M325.73,499.69c0.74-0.33,1.52-0.28,2.3-0.26C327.32,500,326.5,499.64,325.73,499.69z"/>
<path class="st1" d="M190.85,44.19c-0.75,0.36-1.55,0.29-2.34,0.28C189.23,43.86,190.07,44.27,190.85,44.19z"/>
<path class="st1" d="M193.65,43.88c-0.75,0.37-1.55,0.28-2.35,0.28C192.03,43.56,192.87,43.96,193.65,43.88z"/>
<path class="st1" d="M196.71,43.57c-0.74,0.3-1.52,0.29-2.3,0.25C195.13,43.27,195.94,43.63,196.71,43.57z"/>
<path class="st1" d="M92.82,110.6c0.31,0.61,0.32,1.27,0.28,1.93C92.16,112.01,93.04,111.22,92.82,110.6z"/>
<path class="st1" d="M92.51,108.44c0.33,0.6,0.3,1.26,0.29,1.91C92.37,109.76,92.23,109.13,92.51,108.44z"/>
<path class="st1" d="M457,105.38c-0.02-0.66-0.04-1.32,0.29-1.93C457.23,104.1,457.8,104.84,457,105.38z"/>
<path class="st1" d="M454.17,125.26c-0.01-0.76-0.02-1.52,0.31-2.23C454.41,123.77,454.81,124.59,454.17,125.26z"/>
<path class="st1" d="M453.87,127.45c0-0.75-0.04-1.51,0.31-2.21C454.09,125.98,454.5,126.79,453.87,127.45z"/>
<path class="st1" d="M91.62,102.25c0.3,0.49,0.26,1.04,0.23,1.58C91.63,103.32,90.98,102.88,91.62,102.25z"/>
<path class="st1" d="M93.44,114.95c0.32,0.61,0.31,1.27,0.28,1.93C92.78,116.36,93.66,115.57,93.44,114.95z"/>
<path class="st1" d="M95.32,128.26c0.33,0.63,0.29,1.31,0.28,1.98C94.77,129.68,95.37,128.92,95.32,128.26z"/>
<path class="st1" d="M447.36,177.78c-0.01-0.78-0.07-1.56,0.28-2.29C447.58,176.26,447.96,177.08,447.36,177.78z"/>
<path class="st1" d="M447.98,172.5c-0.02-0.77-0.06-1.55,0.28-2.27C448.2,170.99,448.58,171.81,447.98,172.5z"/>
<path class="st1" d="M448.29,170.02c-0.01-0.78-0.06-1.57,0.28-2.31C448.51,168.48,448.9,169.31,448.29,170.02z"/>
<path class="st1" d="M447.07,180.27c-0.03-0.76-0.05-1.52,0.27-2.24C447.27,178.78,447.64,179.58,447.07,180.27z"/>
<path class="st1" d="M467.58,313.29c-0.58,0.34-1.23,0.32-1.87,0.33C466.24,312.99,466.95,313.37,467.58,313.29z"/>
<path class="st1" d="M520.03,319.61c-0.21-0.13-0.41-0.25-0.62-0.38c0.19-0.26,0.38-0.53,0.58-0.81
	C520.45,318.86,519.97,319.24,520.03,319.61z"/>
<path class="st1" d="M225.41,40.7c-0.73,0.02-1.13,0.17-1.53-0.13C224.35,40.38,224.77,40.34,225.41,40.7z"/>
<path class="st1" d="M438.32,471.66c0.18-0.21,0.38-0.32,0.66-0.18c0.1,0.26,0.33,0.58-0.09,0.71
	C438.53,472.29,438.44,471.92,438.32,471.66z"/>
<path class="st1" d="M531.71,325.64c0.21,0.69,0.31,1,0.43,1.4C531.44,326.84,531.59,326.41,531.71,325.64z"/>
<path class="st1" d="M535.28,333.22c-0.32-0.43-0.64-0.85-0.96-1.28C535.14,332,535.22,332.6,535.28,333.22z"/>
<path class="st1" d="M433.68,473.62c0.46-0.35,0.98-0.56,1.56-0.63C434.94,473.74,434.28,473.62,433.68,473.62z"/>
<path class="st1" d="M536.52,335.09c-0.22-0.32-0.44-0.65-0.66-0.97c0.23-0.01,0.46-0.02,0.69-0.03
	C537.08,334.44,536.85,334.76,536.52,335.09z"/>
<path class="st1" d="M538.39,338.47c-0.23-0.41-0.45-0.82-0.68-1.24C538.28,337.45,538.8,337.7,538.39,338.47z"/>
<path class="st1" d="M541.53,373.56c-0.04-0.45,0.01-0.89,0.29-1.27C541.66,372.7,542.61,373.35,541.53,373.56z"/>
<path class="st1" d="M97.18,141.9c0.32,0.64,0.3,1.33,0.28,2.01C96.88,143.31,97.23,142.58,97.18,141.9z"/>
<path class="st1" d="M21.32,403.4c0.31,0.24,0.59,0.49,0.58,0.93C20.81,404.58,21.22,403.89,21.32,403.4z"/>
<path class="st1" d="M21.78,406.36c0.16,0.46-0.13,0.68-0.46,0.89C21.3,406.9,21.33,406.57,21.78,406.36z"/>
<path class="st1" d="M31.63,416.7c0.27,0.15,0.52,0.32,0.52,0.68c-0.23,0.02-0.22,0.58-0.54,0.29
	C31.3,417.4,31.42,417.03,31.63,416.7z"/>
<path class="st1" d="M96.25,135.06c0.32,0.53,0.28,1.12,0.25,1.7C95.82,136.29,96.18,135.65,96.25,135.06z"/>
<path class="st1" d="M183.08,45.12c-0.64,0.33-1.34,0.3-2.03,0.27C181.66,44.83,182.4,45.18,183.08,45.12z"/>
<path class="st1" d="M368.12,45.4c-0.69,0.03-1.37,0.05-2.02-0.27C366.78,45.18,367.51,44.83,368.12,45.4z"/>
<path class="st1" d="M401.97,484.8c0.27-0.25,0.6-0.33,0.96-0.29C403.04,486.05,402.27,484.66,401.97,484.8z"/>
<path class="st1" d="M43.06,428.6c0.29,0.11,0.51,0.29,0.63,0.59c-0.24,0.03-0.27,0.52-0.53,0.33
	C42.84,429.3,42.87,428.93,43.06,428.6z"/>
<path class="st1" d="M372.78,46.02c-0.67,0.03-1.35,0.05-1.98-0.27C371.47,45.79,372.19,45.46,372.78,46.02z"/>
<path class="st1" d="M374.96,46.33c-0.66,0.02-1.32,0.04-1.92-0.28C373.68,46.11,374.38,45.78,374.96,46.33z"/>
<path class="st1" d="M45.95,431.26c0.48,0.24,0.86,0.59,1.16,1.04C46.47,432.22,46.07,431.9,45.95,431.26z"/>
<path class="st1" d="M379.31,46.96c-0.65,0.02-1.3,0.05-1.9-0.29C378.05,46.73,378.75,46.39,379.31,46.96z"/>
<path class="st1" d="M167.74,47.29c-0.6,0.33-1.26,0.32-1.92,0.31C166.38,47.01,167.1,47.35,167.74,47.29z"/>
<path class="st1" d="M158.43,48.85c-0.5,0.32-1.06,0.31-1.62,0.3C157.24,48.45,157.85,48.75,158.43,48.85z"/>
<path class="st1" d="M156.65,49.17c-0.52,0.33-1.11,0.31-1.69,0.31C155.36,48.49,156.1,49.35,156.65,49.17z"/>
<path class="st1" d="M59.23,442.29c0.43-0.01,0.65,0.3,0.89,0.59C59.76,442.77,58.81,443.56,59.23,442.29z"/>
<path class="st1" d="M137.59,53.22c-0.28,0.27-0.62,0.29-0.98,0.26C136.45,51.53,137.42,53.9,137.59,53.22z"/>
<path class="st1" d="M180.75,493.17c0.48-0.01,0.96-0.03,1.37,0.28C181.6,493.7,181.06,494,180.75,493.17z"/>
<path class="st1" d="M449.83,68.13c-0.31-0.22-0.61-0.44-0.92-0.66C449.31,67.56,450.38,66.72,449.83,68.13z"/>
<path class="st1" d="M91.81,74.92c-0.03,0.4-0.24,0.68-0.58,0.86C91.11,75.28,90.8,74.65,91.81,74.92z"/>
<path class="st1" d="M182.29,493.49c0.55-0.01,1.09-0.02,1.58,0.31C183.26,494.09,182.75,493.95,182.29,493.49z"/>
<path class="st1" d="M365.3,493.8c0.48-0.33,1.02-0.32,1.56-0.31C366.5,494.39,365.8,493.56,365.3,493.8z"/>
<path class="st1" d="M383.35,47.6c-0.65,0-1.3,0.03-1.9-0.31C382.09,47.35,382.8,47.01,383.35,47.6z"/>
<path class="st1" d="M89.12,85.04c0.3,0.53,0.28,1.11,0.24,1.69C88.91,86.22,88.82,85.66,89.12,85.04z"/>
<path class="st1" d="M188.82,494.74c0.56-0.02,1.12-0.02,1.63,0.29C189.83,495.32,189.29,495.21,188.82,494.74z"/>
<path class="st1" d="M90.65,95.64c0.33,0.62,0.3,1.3,0.29,1.97C90.36,97.03,90.7,96.31,90.65,95.64z"/>
<path class="st1" d="M457.9,99.17c-0.01-0.7-0.04-1.4,0.31-2.04C458.14,97.81,458.52,98.57,457.9,99.17z"/>
<path class="st1" d="M72.6,451.6c0.45-0.05,0.72,0.23,0.98,0.53C72.94,452.51,72.66,452.26,72.6,451.6z"/>
<path class="st1" d="M90.97,97.79c0.34,0.63,0.3,1.31,0.29,1.99C90.66,99.19,91.01,98.46,90.97,97.79z"/>
<path class="st1" d="M201.87,496.93c0.66-0.02,1.32-0.03,1.93,0.29C203.15,497.16,202.44,497.49,201.87,496.93z"/>
<path class="st1" d="M345.37,497.21c0.61-0.32,1.27-0.31,1.93-0.29C346.73,497.49,346.02,497.16,345.37,497.21z"/>
<path class="st1" d="M457.63,101.03c-0.03-0.54-0.06-1.08,0.23-1.58C458.15,100.03,458.01,100.55,457.63,101.03z"/>
<path class="st1" d="M91.9,104.3c0.35,0.63,0.29,1.32,0.3,2C91.57,105.71,91.96,104.97,91.9,104.3z"/>
<path class="st1" d="M205.97,498.81c0.46-0.47,0.75-0.7,1.25-0.53C206.98,498.66,206.65,498.74,205.97,498.81z"/>
<path class="st1" d="M458.04,107.46c-0.14-0.62-0.15-1.15,0.18-1.15c0.58,0,0.02,0.38,0.05,0.59
	C458.28,107.02,458.17,107.16,458.04,107.46z"/>
<path class="st1" d="M92.2,106.28c0.32,0.6,0.3,1.24,0.28,1.89C91.93,107.61,92.25,106.92,92.2,106.28z"/>
<path class="st1" d="M472.12,454.31c0.34-0.22,0.67-0.44,1.01-0.65C473.15,454.43,472.83,454.67,472.12,454.31z"/>
<path class="st1" d="M456.06,111.91c-0.02-0.67-0.04-1.33,0.29-1.94C456.29,110.62,456.63,111.33,456.06,111.91z"/>
<path class="st1" d="M455.75,114.08c-0.02-0.68-0.04-1.35,0.28-1.98C455.98,112.77,456.33,113.49,455.75,114.08z"/>
<path class="st1" d="M93.13,112.77c0.32,0.61,0.31,1.27,0.28,1.93C92.86,114.12,93.18,113.42,93.13,112.77z"/>
<path class="st1" d="M455.44,116.26c-0.01-0.67-0.05-1.34,0.28-1.96C455.67,114.96,456.01,115.67,455.44,116.26z"/>
<path class="st1" d="M93.76,117.33c0.37,0.64,0.32,1.33,0.31,2.03C93.44,118.76,93.83,118.01,93.76,117.33z"/>
<path class="st1" d="M94.06,119.33c0.32,0.6,0.31,1.24,0.28,1.89C93.79,120.66,94.12,119.97,94.06,119.33z"/>
<path class="st1" d="M467.86,459.37c-0.63-0.23-0.94-0.34-1.4-0.51C467.03,458.64,467.39,458.67,467.86,459.37z"/>
<path class="st1" d="M95.63,130.45c0.32,0.62,0.3,1.29,0.27,1.97C95.34,131.82,95.67,131.11,95.63,130.45z"/>
<path class="st1" d="M452.96,133.97c-0.03-0.68-0.04-1.35,0.28-1.98C453.19,132.66,453.52,133.37,452.96,133.97z"/>
<path class="st1" d="M95.93,132.66c0.31,0.61,0.31,1.27,0.27,1.93C95.66,134.01,95.98,133.31,95.93,132.66z"/>
<path class="st1" d="M452.32,138.63c-0.01-0.68-0.06-1.38,0.29-2.01C452.56,137.3,452.92,138.03,452.32,138.63z"/>
<path class="st1" d="M451.73,142.98c-0.02-0.65-0.06-1.3,0.27-1.9C451.95,141.72,452.26,142.41,451.73,142.98z"/>
<path class="st1" d="M451.41,145.47c-0.02-0.68-0.06-1.36,0.27-1.99C451.63,144.14,451.97,144.87,451.41,145.47z"/>
<path class="st1" d="M450.79,150.13c-0.03-0.67-0.06-1.35,0.27-1.97C451.02,148.82,451.34,149.53,450.79,150.13z"/>
<path class="st1" d="M98.11,149.02c0.36,0.64,0.3,1.34,0.29,2.04C97.8,150.45,98.17,149.71,98.11,149.02z"/>
<path class="st1" d="M449.87,157.27c-0.04-0.68-0.06-1.35,0.26-1.98C450.08,155.96,450.41,156.67,449.87,157.27z"/>
<path class="st1" d="M471.63,312.68c-0.6,0.33-1.25,0.29-1.9,0.28C470.3,312.41,471,312.73,471.63,312.68z"/>
<path class="st1" d="M502.37,313.27c-0.46,0.03-0.91,0.04-1.3-0.25c0.34-0.08,0.68-0.15,1.02-0.23
	C502.69,312.64,502.42,313.02,502.37,313.27z"/>
<path class="st1" d="M399.7,486.28c0.39-0.35,0.71-0.16,1.34-0.26C400.43,486.46,400.11,486.34,399.7,486.28z"/>
<path class="st1" d="M536.7,333.31c0.09,0.07,0.25,0.14,0.28,0.25c0.07,0.23-0.12,0.37-0.29,0.47c-0.27,0.16-0.2-0.14-0.25-0.22
	C536.32,333.59,536.43,333.42,536.7,333.31z"/>
<path class="st1" d="M138.89,52.9c-0.39,0.31-0.85,0.32-1.31,0.32C137.78,52.17,138.49,53.14,138.89,52.9z"/>
<path class="st1" d="M403.52,51.38c-0.55-0.04-1.12-0.01-1.6-0.35C402.46,51.08,403.1,50.73,403.52,51.38z"/>
<path class="st1" d="M402.92,50.76c0.51-0.43,0.77-0.5,1.06-0.43c0.01,0,0.01,0.22-0.02,0.23
	C403.74,50.61,403.51,50.65,402.92,50.76z"/>
<path class="st1" d="M386.11,489.14c0.37-0.3,0.81-0.33,1.27-0.31C387.05,489.33,386.63,489.42,386.11,489.14z"/>
<path class="st1" d="M153.42,49.77c-0.48,0.34-1.03,0.31-1.58,0.31C152.28,49.54,152.88,49.82,153.42,49.77z"/>
<path class="st1" d="M387.08,48.21c-0.58,0.01-1.16,0.04-1.68-0.29C385.97,47.95,386.6,47.67,387.08,48.21z"/>
<path class="st1" d="M512.03,314.89c-0.08,0.11-0.15,0.22-0.23,0.33c-0.09-0.1-0.26-0.23-0.24-0.3c0.06-0.17,0.2-0.32,0.32-0.47
	C511.92,314.59,511.97,314.73,512.03,314.89z"/>
<path class="st1" d="M163.77,47.93c-0.52,0.32-1.1,0.3-1.68,0.28C162.58,47.67,163.2,47.95,163.77,47.93z"/>
<path class="st1" d="M179.5,492.91c0.45-0.03,0.89-0.03,1.27,0.27C180.32,493.2,179.78,493.65,179.5,492.91z"/>
<path class="st1" d="M385.21,47.9c-0.59,0.02-1.19,0.03-1.72-0.29C384.07,47.66,384.72,47.34,385.21,47.9z"/>
<path class="st1" d="M373.88,493c-0.47,0.25-0.79,0.25-1.13,0.07C373.04,492.77,373.36,492.89,373.88,493z"/>
<path class="st1" d="M169.64,46.99c-0.51,0.31-1.08,0.3-1.64,0.27C168.48,46.75,169.08,47.01,169.64,46.99z"/>
<path class="st1" d="M175.83,46.08c-0.5,0.33-1.06,0.26-1.62,0.24C174.69,45.82,175.28,46.07,175.83,46.08z"/>
<path class="st1" d="M459.03,461.76c0.3-0.28,0.62-0.55,1.07-0.51C459.88,461.71,459.66,462.16,459.03,461.76z"/>
<path class="st1" d="M522.69,320.24c-0.25-0.15-0.5-0.29-0.75-0.44c0.07-0.07,0.13-0.18,0.22-0.2
	C522.55,319.51,522.66,319.81,522.69,320.24z"/>
<path class="st1" d="M96.87,139.7c0.34,0.54,0.29,1.13,0.26,1.72C96.62,140.92,96.9,140.28,96.87,139.7z"/>
<path class="st1" d="M374.02,493.83c-0.22,0.09-0.34,0.17-0.45,0.17c-0.08,0-0.19-0.1-0.22-0.18c-0.1-0.22,0.08-0.28,0.23-0.26
	C373.7,493.58,373.81,493.69,374.02,493.83z"/>
<path class="st1" d="M183.86,493.8c0.55-0.01,1.09-0.01,1.57,0.31C184.89,494.06,184.29,494.36,183.86,493.8z"/>
<path class="st1" d="M363.74,494.1c0.48-0.32,1.03-0.32,1.58-0.31C364.88,494.36,364.27,494.07,363.74,494.1z"/>
<path class="st1" d="M370.67,494.07c-0.2,0.1-0.37,0.22-0.56,0.27c-0.19,0.04-0.31-0.11-0.15-0.26c0.14-0.12,0.36-0.16,0.55-0.21
	C370.53,493.85,370.6,493.98,370.67,494.07z"/>
<path class="st1" d="M453.29,131.48c-0.03-0.58-0.06-1.16,0.25-1.69C453.52,130.36,453.79,130.98,453.29,131.48z"/>
<path class="st1" d="M453.6,129.3c-0.04-0.59-0.07-1.18,0.26-1.72C453.82,128.17,454.11,128.8,453.6,129.3z"/>
<path class="st1" d="M360.52,494.71c0.42-0.31,0.91-0.29,1.39-0.27C361.58,495.26,360.99,494.68,360.52,494.71z"/>
<path class="st1" d="M452.91,464.9c0.38-0.31,0.75-0.62,1.29-0.56C453.92,464.89,453.45,464.96,452.91,464.9z"/>
<path class="st1" d="M542.73,352.55c-0.33-0.52-0.3-1.1-0.27-1.67C542.98,351.36,542.7,351.98,542.73,352.55z"/>
<path class="st1" d="M91.28,99.98c0.32,0.52,0.29,1.09,0.26,1.67C91.03,101.16,91.3,100.55,91.28,99.98z"/>
<path class="st1" d="M355.24,495.65c0.53-0.32,1.11-0.3,1.69-0.29C356.45,495.91,355.82,495.62,355.24,495.65z"/>
<path class="st1" d="M458.26,96.68c-0.03-0.58-0.06-1.15,0.26-1.68C458.49,95.57,458.76,96.18,458.26,96.68z"/>
<path class="st1" d="M458.57,94.5c-0.04-0.57-0.04-1.14,0.26-1.66C458.81,93.4,459.07,94.01,458.57,94.5z"/>
<path class="st1" d="M197.83,496.3c0.59-0.01,1.18-0.06,1.7,0.28C198.95,496.55,198.32,496.84,197.83,496.3z"/>
<path class="st1" d="M200.01,496.63c0.57-0.04,1.13-0.04,1.64,0.26C201.09,496.87,200.49,497.13,200.01,496.63z"/>
<path class="st1" d="M347.51,496.89c0.52-0.31,1.08-0.29,1.65-0.26C348.68,497.14,348.07,496.87,347.51,496.89z"/>
<path class="st1" d="M89.41,87.19c0.31,0.54,0.3,1.13,0.27,1.72C89.15,88.41,89.45,87.77,89.41,87.19z"/>
<path class="st1" d="M107.42,470.17c0.52,0.06,0.98,0.27,1.38,0.61C108.21,470.85,107.67,470.85,107.42,470.17z"/>
<path class="st1" d="M204.05,497.25c0.58-0.01,1.18-0.07,1.71,0.26C205.18,497.48,204.55,497.77,204.05,497.25z"/>
<path class="st1" d="M343.41,497.51c0.53-0.34,1.13-0.28,1.72-0.27C344.62,497.77,343.99,497.48,343.41,497.51z"/>
<path class="st1" d="M165.67,47.61c-0.53,0.32-1.12,0.31-1.71,0.29C164.45,47.35,165.09,47.65,165.67,47.61z"/>
<path class="st1" d="M542.13,370.76c-0.02-0.58-0.02-1.15,0.29-1.67C542.39,369.66,542.68,370.28,542.13,370.76z"/>
<path class="st1" d="M465.73,313.61c-0.49,0.32-1.03,0.31-1.58,0.3C464.59,313.36,465.19,313.64,465.73,313.61z"/>
<path class="st1" d="M459.77,80.24c-0.14-0.41-0.28-0.82-0.43-1.23C460.54,79.06,459.51,79.88,459.77,80.24z"/>
<path class="st1" d="M452.34,69.02c-0.04-0.23-0.34-0.42-0.14-0.68c0.02-0.02,0.36,0.12,0.46,0.26
	C452.92,68.99,452.59,68.99,452.34,69.02L452.34,69.02z"/>
<path class="st1" d="M339.39,498.98c-0.53,0.12-0.84,0.23-1.13-0.06C338.6,498.73,338.91,498.74,339.39,498.98z"/>
<path class="st1" d="M447.02,66.32c-0.32-0.19-0.63-0.39-0.95-0.58C446.79,65.28,446.82,65.93,447.02,66.32z"/>
<path class="st1" d="M114.86,473.35c0.45,0.08,0.92,0.12,1.18,0.58C115.54,473.96,115.1,473.86,114.86,473.35z"/>
<path class="st1" d="M483.58,446.84c0.19-0.28,0.44-0.47,0.77-0.54c0.07,0.22,0.27,0.44,0.03,0.65
	C484.09,447.2,483.85,446.89,483.58,446.84z"/>
<path class="st1" d="M536.78,387.51c0.12-0.23,0.23-0.45,0.35-0.68c0,0.35,0.61,0.49,0.33,0.89
	C537.43,387.78,537.02,387.59,536.78,387.51z"/>
<path class="st1" d="M437.81,60.51c0.12,0.11,0.33,0.21,0.38,0.36c0.06,0.19-0.14,0.19-0.28,0.13c-0.17-0.08-0.4-0.12-0.38-0.38
	C437.54,60.58,437.68,60.56,437.81,60.51z"/>
<path class="st1" d="M117.68,59.13c-0.16,0.24-0.39,0.27-0.64,0.24c0.05-0.24,0.03-0.63,0.15-0.67
	C117.45,58.61,117.58,58.91,117.68,59.13z"/>
<path class="st1" d="M464.16,313.91c-0.38,0.28-0.81,0.3-1.26,0.27C463.19,313.45,463.72,313.89,464.16,313.91z"/>
<path class="st1" d="M69.42,451.05c-0.16,0.12-0.27,0.2-0.37,0.28c-0.06-0.13-0.15-0.25-0.16-0.38c-0.01-0.13,0.08-0.26,0.13-0.39
	C69.13,450.72,69.26,450.86,69.42,451.05z"/>
<path class="st1" d="M427.75,57.92c-0.32-0.13-0.63-0.25-0.95-0.38C427.24,57.37,427.76,56.99,427.75,57.92z"/>
<path class="st1" d="M129.15,478.95c0.34-0.11,0.63-0.06,0.83,0.27C129.75,478.98,129.1,480.03,129.15,478.95z"/>
<path class="st1" d="M419.07,479.21c0.3-0.13,0.61-0.25,0.91-0.38C420.21,480.22,419.26,478.81,419.07,479.21z"/>
<path class="st1" d="M130.7,479.48c0.37-0.07,0.69,0.02,0.97,0.28C131.12,480.45,130.94,479.85,130.7,479.48z"/>
<path class="st1" d="M420.64,55.66c-0.36,0.03-0.7-0.01-0.98-0.29C420.06,55.22,420.54,54.79,420.64,55.66z"/>
<path class="st1" d="M415.05,54.11c-0.38,0.03-0.75,0.01-1.06-0.27C414.39,53.75,414.91,53.17,415.05,54.11z"/>
<path class="st1" d="M20.69,402.53c0.38,0.17,0.53,0.5,0.63,0.86C20.8,403.33,20.33,403.23,20.69,402.53z"/>
<path class="st1" d="M411.89,481.68c0.26-0.29,0.6-0.32,0.96-0.32C412.79,482.26,412.29,481.82,411.89,481.68z"/>
<path class="st1" d="M146.24,484.51c0.32-0.01,0.65-0.04,0.84,0.3C146.79,484.74,146.12,485.73,146.24,484.51z"/>
<path class="st1" d="M456.84,315.49c-0.42,0.32-0.9,0.36-1.4,0.3C455.74,314.93,456.36,315.52,456.84,315.49z"/>
<path class="st1" d="M410.34,53.01c-0.51-0.18-1.09-0.08-1.54-0.45C409.33,52.66,410.01,52.24,410.34,53.01z"/>
<path class="st1" d="M368.4,493.18c0.38-0.31,0.82-0.3,1.27-0.27C369.39,493.65,368.85,493.2,368.4,493.18z"/>
<path class="st2" d="M448.5,99.41c-0.87,6.11-1.74,11.94-2.54,17.77c-1.84,13.48-3.66,26.97-5.44,40.46
	c-1.71,12.93-3.18,25.89-4.53,38.86c-1.37,13.13-2.57,26.27-3.6,39.43c-1.24,15.8-2.23,31.61-2.95,47.43
	c-0.78,17.23-1.37,34.46-1.34,51.71c0.01,2.98-0.87,4.97-3.17,6.83c-7.39,5.97-15.8,9.98-24.59,13.31
	c-13.88,5.26-28.27,8.64-42.87,11.17c-35.15,6.09-70.59,7.5-106.17,6.15c-20.61-0.78-41.11-2.75-61.41-6.45
	c-16.92-3.09-33.59-7.13-49.33-14.28c-6.72-3.05-13.08-6.69-18.47-11.83c-0.7-0.66-0.99-1.34-0.99-2.3
	c-0.1-19.52-0.72-39.03-1.66-58.53c-1.02-21.26-2.54-42.48-4.5-63.67c-1.86-20.1-4.11-40.16-6.66-60.18
	c-2.25-17.66-4.7-35.29-7.32-52.89c-0.14-0.91-0.23-1.82-0.37-2.93c4.09,2.48,8.2,4.52,12.46,6.25c11.6,4.69,23.67,7.74,35.89,10.22
	c20.01,4.07,40.24,6.5,60.57,8.16c29.24,2.39,58.52,3.13,87.84,2.32c19-0.53,37.97-1.66,56.87-3.66
	c21.21-2.25,42.3-5.29,62.94-10.85C427.99,108.99,438.55,105.44,448.5,99.41z"/>
<path class="st3" d="M274.52,492.99c-20.01,0.06-39.95-1.08-59.8-3.59c-33.39-4.22-65.93-11.86-97.09-24.82
	c-21.75-9.05-42.16-20.43-60.29-35.62c-13.11-10.98-24.58-23.42-33.08-38.38c-5.41-9.53-8.98-19.67-9.04-30.78
	c-0.1-17.11,9.62-30.11,26.51-35.64c9.05-2.97,18.35-3.61,27.77-2.98c14.26,0.96,27.89,4.76,41.33,9.38
	c0.9,0.31,1.05,0.79,1.06,1.59c0.18,13.05,0.2,26.1,0.01,39.14c-0.09,6.52-0.18,13.05-0.3,19.57c-0.02,1.36,0.4,2.52,1.16,3.62
	c4.31,6.22,10.09,10.77,16.51,14.58c11.27,6.68,23.53,10.86,36.1,14.21c16.78,4.48,33.88,7.2,51.13,9.09
	c23.61,2.6,47.29,3.5,71.03,2.96c20.31-0.46,40.54-1.96,60.64-4.93c18.96-2.8,37.69-6.63,55.62-13.63
	c9.1-3.55,17.78-7.89,25.27-14.3c2.73-2.33,5.12-4.97,7.19-7.91c0.88-1.25,1.25-2.55,1.21-4.07c-0.44-18.38-0.45-36.76-0.31-55.15
	c0.03-4.38,0.01-4.39,4.14-5.77c11.21-3.75,22.59-6.81,34.37-8.03c11.97-1.24,23.82-0.79,35.12,3.89
	c12.12,5.01,20.03,13.69,22.49,26.82c1.57,8.4,0.36,16.59-2.26,24.62c-3.74,11.5-10.2,21.44-17.8,30.69
	c-13.13,15.99-29.03,28.71-46.65,39.38c-22.14,13.4-45.92,22.95-70.72,30.08c-19.67,5.65-39.7,9.6-60,12.19
	c-19.02,2.43-38.12,3.7-57.3,3.79C277.21,492.99,275.86,492.99,274.52,492.99z"/>
<path class="st4" d="M274.64,49.03c20.88-0.04,41.73,0.64,62.54,2.32c23.59,1.9,47.05,4.82,70.13,10.23
	c10.73,2.52,21.33,5.48,31.33,10.25c3.32,1.58,6.54,3.37,9.24,5.93c3.79,3.59,3.9,6.65,0.33,10.42c-2.64,2.79-5.94,4.65-9.34,6.31
	c-9.45,4.61-19.49,7.46-29.65,9.93c-18.08,4.39-36.45,7.08-54.93,9.09c-27.11,2.94-54.31,4.11-81.56,4.06
	c-18.55-0.03-37.07-0.65-55.57-2.02c-23.19-1.71-46.26-4.39-69.04-9.24c-12.81-2.73-25.47-5.98-37.4-11.57
	c-2.72-1.28-5.32-2.77-7.73-4.59c-1.41-1.07-2.69-2.28-3.62-3.8c-1.59-2.57-1.47-4.63,0.38-7.01c1.72-2.21,3.97-3.78,6.34-5.18
	c6.19-3.65,12.89-6.1,19.71-8.23c14.2-4.45,28.75-7.35,43.43-9.63c33.02-5.12,66.28-7.07,99.66-7.26
	C270.81,49.02,272.72,49.03,274.64,49.03z"/>
<path class="st4" d="M428.02,351.27c0,5.99-0.04,11.63,0.01,17.26c0.05,6.63,0.16,13.25,0.3,19.88c0.02,1.12-0.29,1.96-0.99,2.8
	c-4.4,5.27-9.98,8.98-15.97,12.13c-11.06,5.81-22.9,9.5-34.98,12.46c-17.73,4.34-35.75,6.88-53.92,8.48
	c-24.95,2.2-49.95,2.58-74.96,1.42c-22.88-1.07-45.62-3.43-68.03-8.33c-14.43-3.15-28.59-7.16-41.77-14.03
	c-6.05-3.15-11.67-6.9-16.06-12.25c-0.58-0.71-0.9-1.41-0.88-2.37c0.34-12.16,0.38-24.33,0.39-36.5c0-0.19,0-0.39,0-0.63
	c0.23,0.02,0.41-0.01,0.51,0.06c10.68,7.59,22.71,12.25,35.12,16.03c15.03,4.57,30.42,7.5,45.95,9.67
	c24.71,3.46,49.55,4.93,74.48,4.82c19.74-0.08,39.42-1.21,59.04-3.53c18.21-2.15,36.25-5.2,53.88-10.32
	c11.65-3.38,22.97-7.59,33.34-14.03C424.88,353.4,426.23,352.45,428.02,351.27z"/>
<path class="st0" d="M386.29,277.33c0.9-16.14,1.71-32.28,2.69-48.4c1-16.48,2.15-32.95,3.6-49.4c1.17-13.2,2.36-26.39,3.53-39.59
	c0.29-3.26,1.68-5.09,4.13-5.37c3.04-0.35,5.39,1.95,5.12,5.14c-0.39,4.64-0.9,9.27-1.31,13.91c-1.01,11.34-2.08,22.68-2.96,34.03
	c-1.09,14.14-2.12,28.29-2.99,42.44c-0.8,13.18-1.42,26.36-2,39.55c-0.84,19.09-1.27,38.18-1.55,57.29
	c-0.04,2.7-2.03,4.68-4.59,4.66c-2.55-0.02-4.52-2.01-4.51-4.73c0.08-13.15,0.46-26.29,0.82-39.44
	C386.37,284.06,386.29,280.69,386.29,277.33z"/>
</svg>
