<?xml version="1.0" encoding="utf-8"?>
<!-- Generator: Adobe Illustrator 24.0.2, SVG Export Plug-In . SVG Version: 6.00 Build 0)  -->
<svg version="1.1" id="Capa_1" xmlns="http://www.w3.org/2000/svg" xmlns:xlink="http://www.w3.org/1999/xlink" x="0px" y="0px"
	 viewBox="0 0 56.3 56.3" style="enable-background:new 0 0 56.3 56.3;" xml:space="preserve">
<style type="text/css">
	.st0{fill-rule:evenodd;clip-rule:evenodd;fill:#9B51E0;}
	.st1{fill:#9B51E0;}
	.st2{fill-rule:evenodd;clip-rule:evenodd;fill:#F2F2F2;}
</style>
<path class="st0" d="M37.8,4.2c-6.2-2.6-13.1-2.6-19.3,0C12.5,6.8,7.7,11.6,5.2,17.7L5.1,18c-2.5,6.2-2.5,13.1,0,19.3l0.1,0.3
	c2.5,6.1,7.3,10.9,13.3,13.5c6.2,2.6,13.1,2.6,19.3,0c0.2-0.1,0.4-0.2,0.6-0.3c1.8-0.8,1-3.4-0.9-3.9c-0.8-0.2-1.7-0.5-2.5-0.9
	c-4.8-2-8.5-5.8-10.5-10.6l-0.1-0.2c-2-4.9-2-10.3,0-15.1l0.1-0.2c1.9-4.8,5.7-8.6,10.5-10.6c0.8-0.3,1.6-0.6,2.5-0.9
	c1.9-0.5,2.6-3.1,0.9-3.9C38.2,4.4,38,4.3,37.8,4.2z"/>
<path class="st1" d="M18.5,4.2l-0.8-1.8L18.5,4.2z M37.8,4.2l0.8-1.8l0,0L37.8,4.2z M5.2,17.7L3.4,17l0,0L5.2,17.7z M5.1,18l1.9,0.8
	l0,0L5.1,18z M5.1,37.3l1.9-0.8l0,0L5.1,37.3z M5.2,37.6l-1.9,0.8l0,0L5.2,37.6z M18.5,51.1L17.8,53l0,0L18.5,51.1z M37.8,51.1
	l0.8,1.8L37.8,51.1z M35.1,46.1l-0.8,1.8L35.1,46.1z M24.6,35.5l-1.9,0.8l0,0L24.6,35.5z M24.5,35.2l1.9-0.8l0,0L24.5,35.2z
	 M24.5,20.1l-1.9-0.8l0,0L24.5,20.1z M24.6,19.9l1.9,0.8v0L24.6,19.9z M35.1,9.3l0.8,1.8L35.1,9.3z M38.4,4.5l-0.8,1.8L38.4,4.5z
	 M38.4,50.8L37.6,49L38.4,50.8z M37.5,46.9l0.5-1.9L37.5,46.9z M19.3,6.1C25,3.7,31.4,3.7,37,6.1l1.6-3.7c-6.7-2.8-14.2-2.8-20.8,0
	L19.3,6.1z M7.1,18.5c2.3-5.6,6.7-10.1,12.2-12.4l-1.6-3.7C11.2,5.2,6,10.4,3.4,17L7.1,18.5z M6.9,18.8l0.1-0.3L3.4,17l-0.1,0.3
	L6.9,18.8z M6.9,36.6c-2.3-5.7-2.3-12.1,0-17.8l-3.7-1.5c-2.7,6.7-2.7,14.1,0,20.8L6.9,36.6z M7.1,36.9l-0.1-0.3l-3.7,1.5l0.1,0.3
	L7.1,36.9z M19.3,49.3c-5.6-2.3-10-6.8-12.2-12.4l-3.7,1.5C6,44.9,11.2,50.2,17.8,53L19.3,49.3z M37,49.3c-5.7,2.4-12.1,2.4-17.7,0
	L17.8,53c6.7,2.8,14.2,2.8,20.8,0L37,49.3z M37.6,49c-0.2,0.1-0.4,0.2-0.6,0.2l1.6,3.7c0.2-0.1,0.4-0.2,0.7-0.3L37.6,49z M38.1,45
	c-0.8-0.2-1.5-0.5-2.2-0.8l-1.6,3.7c0.9,0.4,1.8,0.7,2.7,0.9L38.1,45z M35.8,44.2c-4.3-1.8-7.6-5.2-9.4-9.5l-3.7,1.5
	c2.1,5.3,6.3,9.5,11.5,11.7L35.8,44.2z M26.4,34.7l-0.1-0.2L22.6,36l0.1,0.2L26.4,34.7z M26.4,34.5c-1.8-4.4-1.8-9.3,0-13.6
	l-3.7-1.5c-2.2,5.3-2.2,11.3,0,16.6L26.4,34.5z M26.4,20.9l0.1-0.2l-3.7-1.5l-0.1,0.2L26.4,20.9z M26.4,20.6
	c1.7-4.3,5.1-7.7,9.4-9.5l-1.6-3.7c-5.2,2.2-9.4,6.4-11.5,11.7L26.4,20.6z M35.8,11.1c0.7-0.3,1.5-0.6,2.2-0.8l-1-3.9
	c-0.9,0.3-1.8,0.6-2.7,0.9L35.8,11.1z M37,6.1c0.2,0.1,0.4,0.2,0.6,0.2l1.7-3.6c-0.2-0.1-0.4-0.2-0.7-0.3L37,6.1z M38.1,10.3
	c1.7-0.5,2.9-1.8,3.2-3.3c0.2-0.7,0.2-1.6-0.1-2.4c-0.3-0.9-1-1.5-1.9-1.9l-1.7,3.6c0,0,0,0-0.1,0c0,0-0.1-0.1-0.1-0.1
	c0-0.1,0-0.1,0-0.1c0,0.1-0.1,0.2-0.1,0.2c-0.1,0.1-0.2,0.1-0.2,0.2L38.1,10.3z M39.2,52.7c0.9-0.4,1.6-1.1,1.9-1.9
	c0.3-0.8,0.3-1.7,0.1-2.4c-0.4-1.4-1.5-2.8-3.2-3.3l-1,3.9c0.1,0,0.2,0.1,0.2,0.2c0.1,0.1,0.1,0.2,0.1,0.2c0,0.1,0,0,0-0.1
	c0-0.1,0.1-0.1,0.1-0.1c0,0,0.1-0.1,0.1,0L39.2,52.7z"/>
<path class="st2" d="M19.5,8c0.9-0.4,2-0.4,2.9,0c0.9,0.4,1.7,1.1,2,2c0.4,0.9,0.4,2,0,2.9c-0.4,0.9-1.1,1.7-2,2
	c-0.9,0.4-2,0.4-2.9,0c-0.9-0.4-1.7-1.1-2-2c-0.4-0.9-0.4-2,0-2.9C17.8,9.1,18.5,8.4,19.5,8z M9.7,21.7c1.6-0.7,3.4-0.7,5,0
	c1.6,0.7,2.9,1.9,3.5,3.5c0.7,1.6,0.7,3.4,0,5c-0.7,1.6-1.9,2.9-3.5,3.5c-1.6,0.7-3.4,0.7-5,0c-1.6-0.7-2.9-1.9-3.5-3.5
	c-0.7-1.6-0.7-3.4,0-5C6.8,23.6,8.1,22.3,9.7,21.7z M25.7,44c-0.4-0.1-0.8-0.1-1.1,0c-0.4,0.1-0.6,0.4-0.8,0.8
	c-0.1,0.4-0.1,0.8,0,1.1c0.1,0.4,0.4,0.6,0.8,0.8c0.4,0.1,0.8,0.1,1.1,0c0.4-0.1,0.6-0.4,0.8-0.8c0.1-0.4,0.1-0.8,0-1.1
	C26.4,44.4,26.1,44.1,25.7,44z"/>
</svg>
