<?xml version="1.0" encoding="utf-8"?>
<!-- Generator: Adobe Illustrator 24.0.2, SVG Export Plug-In . SVG Version: 6.00 Build 0)  -->
<svg version="1.1" id="Capa_1" xmlns="http://www.w3.org/2000/svg" xmlns:xlink="http://www.w3.org/1999/xlink" x="0px" y="0px"
	 viewBox="0 0 57.1 57.1" style="enable-background:new 0 0 57.1 57.1;" xml:space="preserve">
<style type="text/css">
	.st0{fill:#F0BF4A;}
	.st1{fill:#EB5757;}
</style>
<path class="st0" d="M28.6,0.6l7,11.2l12.8-3l-3,12.8l11.2,7l-11.2,7l3,12.8l-12.8-3l-7,11.2l-7-11.2l-12.8,3l3-12.8l-11.2-7l11.2-7
	l-3-12.8l12.8,3L28.6,0.6z"/>
<path class="st1" d="M24.3,18.3c2.7-1.1,5.8-1.1,8.5,0c2.7,1.1,4.9,3.3,6,6c1.1,2.7,1.1,5.8,0,8.5c-1.1,2.7-3.3,4.9-6,6
	c-2.7,1.1-5.8,1.1-8.5,0c-2.7-1.1-4.9-3.3-6-6c-1.1-2.7-1.1-5.8,0-8.5C19.4,21.6,21.6,19.4,24.3,18.3z"/>
</svg>
