<?xml version="1.0" encoding="utf-8"?>
<!-- Generator: Adobe Illustrator 24.0.2, SVG Export Plug-In . SVG Version: 6.00 Build 0)  -->
<svg version="1.1" id="Capa_1" xmlns="http://www.w3.org/2000/svg" xmlns:xlink="http://www.w3.org/1999/xlink" x="0px" y="0px"
	 viewBox="0 0 138.6 60" style="enable-background:new 0 0 138.6 60;" xml:space="preserve">
<style type="text/css">
	.st0{fill:none;stroke:#000000;stroke-width:4;stroke-linecap:round;}
</style>
<path class="st0" d="M-5,37.5c7.7,0,7.2-15,15-15s7.2,15,15,15s7.2-15,15-15s7.2,15,15,15s7.2-15,15-15s7.2,15,15,15s7.2-15,15-15
	s7.2,15,15,15s7.2-15,15-15s7.2,15,15,15s7.2-15,15-15s7.2,15,15,15s7.2-15,15-15s7.2,15,15,15s7.2-15,15-15"/>
</svg>
