<svg width="153" height="148" viewBox="0 0 153 148" fill="none" xmlns="http://www.w3.org/2000/svg">
<path d="M35.8566 115.729C34.5851 115.475 33.5679 115.22 32.2963 114.712C31.0248 114.203 30.0076 113.949 28.9904 113.44C26.7017 112.423 24.6673 111.152 22.6329 109.626C18.564 106.828 15.2581 103.014 12.7151 98.4365C10.1721 94.1134 8.64627 89.0274 8.39196 84.1956C8.13766 81.6526 8.39196 79.3639 8.64627 76.8209C8.90057 75.5493 9.15487 74.5321 9.40917 73.2606C9.66347 71.9891 10.1721 70.9719 10.4264 69.7004L10.6807 73.2606C10.6807 74.5321 10.935 75.5493 11.1893 76.8209C11.4436 79.1096 11.9522 81.3983 12.4608 83.4327C13.478 87.7558 15.0038 91.8247 17.2925 95.6392C19.5812 99.4537 22.1243 103.014 25.4302 106.32C26.956 107.846 28.7361 109.372 30.5162 110.897C31.2791 111.66 32.2963 112.423 33.3136 113.186L35.8566 115.729ZM35.0937 124.884C34.3308 125.393 33.3136 125.647 32.2963 125.901C31.2791 126.155 30.5162 126.41 29.499 126.41C27.7189 126.664 25.6845 126.918 23.6501 126.664C19.8356 126.41 15.7667 125.393 12.4608 123.612C8.90057 121.832 5.84894 119.035 3.81453 115.729C2.79732 114.203 1.78011 112.423 1.01721 110.643C0.762906 109.88 0.508604 108.863 0.254302 107.846C0.254302 107.083 0 106.32 0 105.303C0.762906 106.066 1.27151 106.828 1.78011 107.337C2.54302 108.1 3.05162 108.863 3.56023 109.372C4.83174 110.643 5.84894 111.915 7.12045 112.932C9.66347 115.22 12.2065 117.255 15.2581 118.781C18.0554 120.306 21.3614 121.578 24.413 122.595C25.9388 123.104 27.7189 123.358 29.499 123.867C30.2619 124.121 31.2791 124.121 32.042 124.375C33.3136 124.63 34.0765 124.63 35.0937 124.884ZM92.5659 1.29318C93.8374 1.54748 94.8546 2.05608 96.1261 2.56469C97.3976 3.07329 98.4148 3.5819 99.4321 4.0905C101.721 5.36201 103.755 6.63352 105.79 8.15933C109.858 11.211 113.164 15.2798 115.453 19.8572C117.742 24.4347 119.013 29.5207 119.013 34.3524C119.013 36.8955 118.759 39.1842 118.25 41.7272C117.996 42.9987 117.742 44.0159 117.233 45.2874C116.725 46.5589 116.47 47.5761 115.962 48.5933L115.707 45.0331C115.707 43.7616 115.707 42.7444 115.453 41.4729L114.69 34.6067C113.927 30.2836 112.401 25.9605 110.367 21.8916C108.333 17.8228 105.79 14.2626 102.738 10.9567C101.212 9.17654 99.4321 7.65073 97.9062 5.87061C97.1433 5.10771 96.1261 4.3448 95.1089 3.5819L92.5659 1.29318ZM114.69 0.27597C115.707 0.530272 116.47 0.784575 117.233 1.29318C117.996 1.54748 119.013 2.05608 119.776 2.56469C121.302 3.5819 122.828 4.5991 124.354 5.87061C127.151 8.41363 129.44 11.4653 130.711 15.0255C132.237 18.5857 132.746 22.4002 132.237 26.2148C131.983 27.9949 131.474 29.775 130.965 31.5551C130.711 32.318 130.203 33.3352 129.948 34.0981C129.44 34.861 129.185 35.6239 128.422 36.3868V33.8438V31.3008C128.422 29.5207 128.168 27.9949 128.168 26.4691C127.66 23.1631 127.151 20.1115 125.879 17.3142C124.608 14.2626 123.082 11.7196 121.302 8.92224C120.285 7.65073 119.268 6.12492 118.25 4.85341C117.742 4.0905 117.233 3.5819 116.47 2.81899C115.962 1.54748 115.199 0.784574 114.69 0.27597Z" fill="#42ADE2"/>
<path d="M20.3441 38.167C15.2581 40.4557 13.478 46.5589 15.7667 51.645L47.8087 118.526L65.6099 110.134L33.5678 42.9987C31.2791 37.9127 25.4302 35.6239 20.3441 38.167ZM104.518 91.3161L123.336 82.4155L86.7169 6.12492C84.1739 1.03888 78.0707 -1.24984 72.7303 1.29318C67.6443 3.8362 65.3556 9.93945 67.8986 15.2798L104.518 91.3161Z" fill="#FFDD67"/>
<path d="M72.9847 1.03888C72.4761 1.29318 71.9675 1.54749 71.4589 2.05609C76.2906 0.78458 81.3766 3.0733 83.6654 7.65073L120.285 83.9413L123.591 82.4155L86.9713 6.12492C84.4283 0.78458 78.325 -1.50414 72.9847 1.03888Z" fill="#EBA352"/>
<path d="M65.6099 109.88L85.1911 100.471L47.8087 22.6546C45.2657 17.3142 38.6539 14.7712 33.3135 17.3142C27.9732 19.8572 25.6845 26.4691 28.2275 31.8094L65.6099 109.88Z" fill="#FFDD67"/>
<path d="M33.3135 17.5685C32.8049 17.8228 32.2963 18.0771 31.7877 18.5857C36.6195 17.3142 42.2141 19.6029 44.5028 24.4346L67.6443 73.0063L73.2389 76.3122L47.8087 22.9088C45.2657 17.3142 38.9082 15.0255 33.3135 17.5685Z" fill="#EBA352"/>
<path d="M82.1395 94.3677L101.721 84.9585L64.3384 7.1421C61.7954 1.80176 55.1835 -0.741265 49.8432 2.05606C44.5028 4.59908 42.2141 11.2109 44.7571 16.5513L82.1395 94.3677Z" fill="#FFDD67"/>
<path d="M49.8432 1.80174C49.3346 2.05604 48.826 2.56465 48.3174 2.81895C53.1491 1.54744 58.7438 3.83616 61.0325 8.66789L87.2256 63.5971L92.8202 66.903L64.3384 7.14208C61.7954 1.54744 55.1835 -0.741278 49.8432 1.80174ZM20.3442 38.1669C19.8356 38.4212 19.327 38.6755 18.8184 39.1841C23.3958 37.9126 28.2275 40.2013 30.2619 44.7788L49.3346 84.7042L54.9292 88.0101L33.5679 43.253C31.2792 37.9126 25.4302 35.6239 20.3442 38.1669Z" fill="#EBA352"/>
<path d="M149.53 30.5379C142.663 25.1976 131.474 31.0465 125.879 49.3563C122.065 62.0714 121.556 65.8859 113.419 69.7004L108.841 60.2913C108.841 60.2913 36.6195 95.1306 39.4168 100.725C39.4168 100.725 48.0631 127.681 62.8126 140.142C84.6825 158.96 135.797 138.871 138.086 90.2989C139.357 62.0714 156.904 36.3869 149.53 30.5379Z" fill="#FFDD67"/>
<path d="M149.53 30.5379C148.258 29.5207 146.732 29.0121 145.206 28.7578C145.461 29.0121 145.969 29.0121 146.224 29.2664C153.853 35.1154 145.969 48.5934 141.646 60.7999C138.086 70.4633 135.034 80.3811 135.543 90.0446C137.577 132.259 95.1089 152.349 69.6787 144.72C94.6003 155.146 140.883 135.31 138.849 91.3161C138.34 81.6526 141.138 72.2434 144.952 62.0714C149.021 49.8649 156.904 36.3869 149.53 30.5379Z" fill="#EBA352"/>
<path d="M115.707 68.6833C99.9406 70.4634 76.7992 93.0962 93.0745 117.764C81.1223 92.8419 100.704 76.058 113.164 70.2091C114.436 69.1919 115.707 68.6833 115.707 68.6833Z" fill="#EBA352"/>
</svg>
