<svg width="487" height="252" viewBox="0 0 487 252" fill="none" xmlns="http://www.w3.org/2000/svg">
<path d="M91.2081 29.8127C63.8676 39.0263 44.6804 55.2418 33.9374 78.2135C25.688 95.853 23.6053 114.988 27.5047 137.319C28.8128 144.81 35.4984 165.069 38.6565 171.112C48.7681 190.462 60.4209 203.632 75.8546 213.15C95.6608 225.365 120.451 229.292 144.421 224.012C147.609 223.31 164.901 217.509 166.764 216.516L168.55 215.563L164.083 202.395L159.617 189.227L158.334 190.003C157.628 190.431 153.92 191.996 150.093 193.481C132.465 200.321 115.337 199.951 99.4089 192.384C85.6874 185.867 76.28 175.788 68.8642 159.662L67.4588 156.606L141.125 131.781L214.792 106.956L214.195 104.192C213.867 102.672 212.508 97.7307 211.173 93.2112C205.912 75.3897 198.103 61.7402 186.251 49.6516C174.969 38.1434 163 31.0371 148.2 27.0587C129.578 22.0528 111.668 22.9179 91.2081 29.8127ZM100.115 55.2273C101.254 54.8438 102.4 54.4775 103.528 54.1353C104.657 53.7931 105.767 53.475 106.838 53.1899C107.908 52.9047 108.938 52.6523 109.904 52.44C110.87 52.2278 111.772 52.056 112.585 51.9323C113.408 51.8074 114.227 51.697 115.043 51.6017C115.858 51.5064 116.671 51.4263 117.48 51.3603C118.29 51.2943 119.096 51.243 119.898 51.2061C120.701 51.1691 121.499 51.1471 122.293 51.139C123.088 51.1309 123.878 51.1368 124.664 51.1572C125.451 51.1777 126.233 51.2122 127.011 51.261C127.788 51.3098 128.562 51.3728 129.331 51.4497C130.099 51.5266 130.862 51.6176 131.621 51.7223C132.38 51.827 133.134 51.9452 133.882 52.0775C134.631 52.2097 135.374 52.3557 136.111 52.5153C136.849 52.6749 137.581 52.848 138.307 53.0347C139.034 53.2213 139.755 53.4216 140.469 53.6351C141.184 53.8485 141.893 54.076 142.595 54.3161C143.297 54.5561 143.993 54.8087 144.683 55.0751C145.372 55.3414 146.055 55.6209 146.731 55.9134C147.407 56.2058 148.076 56.5124 148.738 56.8307C149.4 57.149 150.056 57.4798 150.704 57.8237C151.351 58.1675 151.991 58.5235 152.624 58.8927C153.257 59.2619 153.882 59.6441 154.5 60.0384C155.117 60.4327 155.727 60.8394 156.328 61.2585C156.93 61.6776 157.523 62.1087 158.108 62.5523C158.693 62.996 159.269 63.4515 159.837 63.9195C160.405 64.3875 160.964 64.8684 161.514 65.3605C162.065 65.8526 162.606 66.3563 163.139 66.8722C163.671 67.3881 164.194 67.9159 164.708 68.4553C165.222 68.9948 165.727 69.5464 166.222 70.1092C166.716 70.6721 167.202 71.2464 167.677 71.8323C168.152 72.4182 168.617 73.0154 169.072 73.6241C169.527 74.2328 169.972 74.8528 170.406 75.4841C170.84 76.1154 171.264 76.7579 171.677 77.4115C172.09 78.0651 172.493 78.7297 172.885 79.4054C173.277 80.0811 173.657 80.7683 174.027 81.4659C174.364 82.1035 174.717 82.8033 175.067 83.5229C175.417 84.2425 175.762 84.9813 176.085 85.6965C176.408 86.4117 176.709 87.1035 176.965 87.7281C177.222 88.3526 177.436 88.9102 177.588 89.3577L178.694 92.6114L119.042 112.714L59.39 132.816L58.9717 131.583C58.872 131.289 58.766 130.895 58.6573 130.423C58.5487 129.95 58.437 129.399 58.3247 128.788C58.1002 127.566 57.8745 126.108 57.6678 124.571C57.4612 123.035 57.2748 121.42 57.1288 119.886C56.9828 118.352 56.8775 116.9 56.8349 115.687C56.8091 114.953 56.7952 114.222 56.794 113.494C56.7929 112.766 56.8045 112.039 56.8277 111.316C56.8509 110.594 56.8863 109.874 56.9336 109.158C56.9809 108.441 57.0393 107.727 57.1104 107.017C57.1816 106.307 57.2654 105.6 57.3602 104.897C57.4549 104.194 57.5608 103.495 57.6789 102.799C57.7969 102.103 57.9263 101.41 58.0675 100.722C58.2087 100.034 58.3621 99.3505 58.5261 98.6708C58.6901 97.991 58.8648 97.3152 59.0514 96.6442C59.238 95.9732 59.4364 95.3071 59.6454 94.6452C59.8544 93.9834 60.0747 93.3258 60.3057 92.6735C60.5368 92.0212 60.7782 91.3739 61.0311 90.7317C61.284 90.0895 61.5484 89.4522 61.8229 88.8205C62.0974 88.1887 62.3826 87.5626 62.6785 86.9418C62.9743 86.321 63.2802 85.7064 63.5971 85.097C63.9141 84.4875 64.2421 83.8833 64.5799 83.2857C64.9177 82.6881 65.2651 82.0967 65.6235 81.5113C65.9819 80.9259 66.3505 80.3471 66.7292 79.7744C67.108 79.2017 67.4973 78.6349 67.8961 78.0753C68.295 77.5158 68.7032 76.963 69.1219 76.4171C69.5406 75.8711 69.9696 75.3322 70.4079 74.8003C70.8462 74.2684 71.2935 73.7435 71.7511 73.226C72.2087 72.7085 72.6765 72.1984 73.1533 71.6958C73.63 71.1933 74.1158 70.698 74.6113 70.2108C75.1069 69.7236 75.6119 69.2442 76.126 68.7728C76.6402 68.3014 77.1642 67.8384 77.6967 67.3832C78.2292 66.9281 78.7707 66.4813 79.3213 66.0428C79.8719 65.6043 80.4318 65.1737 81.0003 64.7524C81.5687 64.331 82.1452 63.9188 82.7313 63.515C83.3173 63.1112 83.9129 62.7159 84.5163 62.33C85.1197 61.9442 85.7313 61.5671 86.3518 61.1998C86.9723 60.8324 87.6009 60.4747 88.2383 60.1262C88.9531 59.7353 89.7683 59.3291 90.6597 58.9164C91.551 58.5037 92.5186 58.0845 93.5395 57.6658C94.5604 57.2471 95.6348 56.8291 96.7385 56.4201C97.8421 56.0111 98.9751 55.6107 100.115 55.2273Z" fill="url(#paint0_linear_516_2)"/>
<path d="M93.7823 89.7933L93.5455 89.8732C91.5842 90.5343 90.489 92.5297 91.0994 94.33L93.8072 102.316C94.4177 104.116 96.5025 105.039 98.4639 104.378L98.7007 104.298C100.662 103.637 101.757 101.642 101.147 99.8417L98.439 91.8559C97.8286 90.0556 95.7437 89.1322 93.7823 89.7933Z" fill="#6332A9" stroke="url(#paint1_linear_516_2)" stroke-opacity="0.881432" stroke-width="2.6432" stroke-linecap="round" stroke-linejoin="round"/>
<path d="M122.375 80.1267L122.138 80.2065C120.177 80.8676 119.082 82.863 119.692 84.6633L122.4 92.6491C123.01 94.4493 125.095 95.3728 127.057 94.7116L127.293 94.6318C129.255 93.9707 130.35 91.9753 129.74 90.175L127.032 82.1893C126.421 80.389 124.336 79.4655 122.375 80.1267Z" fill="#6332A9" stroke="url(#paint2_linear_516_2)" stroke-opacity="0.881432" stroke-width="2.6432" stroke-linecap="round" stroke-linejoin="round"/>
<path d="M58.8175 106.376C58.6314 106.373 58.4454 106.372 58.2594 106.375C53.8811 106.473 49.7287 108.312 46.7157 111.486C43.7027 114.66 42.0759 118.909 42.1931 123.3C42.3104 127.69 44.1622 131.862 47.341 134.897C50.5198 137.932 54.7653 139.582 59.1436 139.484C59.3295 139.47 59.515 139.452 59.7003 139.432L58.8175 106.376Z" fill="white" stroke="#D4D5D5" stroke-width="2.6432" stroke-linecap="round" stroke-linejoin="round"/>
<path d="M54.021 125.992C56.3885 124.648 57.2117 121.631 55.8596 119.254C54.5075 116.876 51.4922 116.038 49.1247 117.382C46.7572 118.726 45.934 121.743 47.286 124.121C48.6381 126.498 51.6534 127.336 54.021 125.992Z" fill="white" stroke="#5A39AD" stroke-width="1.25155" stroke-linecap="round" stroke-linejoin="round"/>
<path d="M184.667 100.623C184.83 100.534 184.991 100.442 185.151 100.347C188.898 98.091 191.592 94.4308 192.639 90.1715C193.686 85.9123 193 81.403 190.734 77.6356C188.467 73.8682 184.805 71.1514 180.553 70.0827C176.3 69.014 171.806 69.681 168.059 71.937C167.905 72.0415 167.753 72.1486 167.602 72.2583L184.667 100.623Z" fill="#D4D5D5" stroke="white" stroke-width="2.6432" stroke-linecap="round" stroke-linejoin="round"/>
<path d="M178.498 79.1331C177.107 81.4744 177.884 84.5078 180.232 85.9084C182.58 87.309 185.611 86.5465 187.002 84.2052C188.393 81.8639 187.617 78.8305 185.269 77.4299C182.92 76.0293 179.889 76.7918 178.498 79.1331Z" stroke="#5939AD" stroke-width="1.25155" stroke-linecap="round" stroke-linejoin="round"/>
<path d="M293.459 155.601C293.459 157.172 293.358 158.59 293.155 159.857H261.159C261.412 163.201 262.654 165.886 264.883 167.913C267.112 169.94 269.848 170.953 273.091 170.953C277.752 170.953 281.046 169.002 282.971 165.101H292.319C291.052 168.952 288.747 172.118 285.403 174.601C282.11 177.033 278.006 178.249 273.091 178.249C269.088 178.249 265.491 177.362 262.299 175.589C259.158 173.765 256.675 171.232 254.851 167.989C253.078 164.696 252.191 160.896 252.191 156.589C252.191 152.282 253.052 148.508 254.775 145.265C256.548 141.972 259.006 139.438 262.147 137.665C265.339 135.892 268.987 135.005 273.091 135.005C277.043 135.005 280.564 135.866 283.655 137.589C286.746 139.312 289.152 141.744 290.875 144.885C292.598 147.976 293.459 151.548 293.459 155.601ZM284.415 152.865C284.364 149.673 283.224 147.114 280.995 145.189C278.766 143.264 276.004 142.301 272.711 142.301C269.722 142.301 267.163 143.264 265.035 145.189C262.907 147.064 261.64 149.622 261.235 152.865H284.415ZM310.649 121.325V177.565H301.985V121.325H310.649ZM326.432 130.141C324.862 130.141 323.544 129.609 322.48 128.545C321.416 127.481 320.884 126.164 320.884 124.593C320.884 123.022 321.416 121.705 322.48 120.641C323.544 119.577 324.862 119.045 326.432 119.045C327.952 119.045 329.244 119.577 330.308 120.641C331.372 121.705 331.904 123.022 331.904 124.593C331.904 126.164 331.372 127.481 330.308 128.545C329.244 129.609 327.952 130.141 326.432 130.141ZM330.688 135.689V177.565H322.024V135.689H330.688ZM339.175 156.437C339.175 152.232 340.037 148.508 341.759 145.265C343.533 142.022 345.914 139.514 348.903 137.741C351.943 135.917 355.287 135.005 358.935 135.005C362.229 135.005 365.091 135.664 367.523 136.981C370.006 138.248 371.982 139.844 373.451 141.769V135.689H382.191V177.565H373.451V171.333C371.982 173.309 369.981 174.956 367.447 176.273C364.914 177.59 362.026 178.249 358.783 178.249C355.186 178.249 351.893 177.337 348.903 175.513C345.914 173.638 343.533 171.054 341.759 167.761C340.037 164.417 339.175 160.642 339.175 156.437ZM373.451 156.589C373.451 153.701 372.843 151.193 371.627 149.065C370.462 146.937 368.917 145.316 366.991 144.201C365.066 143.086 362.989 142.529 360.759 142.529C358.53 142.529 356.453 143.086 354.527 144.201C352.602 145.265 351.031 146.861 349.815 148.989C348.65 151.066 348.067 153.549 348.067 156.437C348.067 159.325 348.65 161.858 349.815 164.037C351.031 166.216 352.602 167.888 354.527 169.053C356.503 170.168 358.581 170.725 360.759 170.725C362.989 170.725 365.066 170.168 366.991 169.053C368.917 167.938 370.462 166.317 371.627 164.189C372.843 162.01 373.451 159.477 373.451 156.589Z" fill="url(#paint3_linear_516_2)"/>
<path d="M280.5 68.2499V103H274.8V87.7999H258.45V103H252.75V68.2499H258.45V83.1499H274.8V68.2499H280.5ZM290.904 71.7999C289.871 71.7999 289.004 71.4499 288.304 70.7499C287.604 70.0499 287.254 69.1832 287.254 68.1499C287.254 67.1165 287.604 66.2499 288.304 65.5499C289.004 64.8499 289.871 64.4999 290.904 64.4999C291.904 64.4999 292.754 64.8499 293.454 65.5499C294.154 66.2499 294.504 67.1165 294.504 68.1499C294.504 69.1832 294.154 70.0499 293.454 70.7499C292.754 71.4499 291.904 71.7999 290.904 71.7999ZM293.704 75.4499V103H288.004V75.4499H293.704ZM307.438 96.1499L301.388 109.95H297.688L301.238 96.1499H307.438ZM331.106 68.2499V103H325.406V68.2499H331.106ZM349.678 89.0999C349.678 86.3332 350.245 83.8832 351.378 81.7499C352.545 79.6165 354.111 77.9665 356.078 76.7999C358.078 75.5999 360.278 74.9999 362.678 74.9999C364.845 74.9999 366.728 75.4332 368.328 76.2999C369.961 77.1332 371.261 78.1832 372.228 79.4499V75.4499H377.978V103H372.228V98.8999C371.261 100.2 369.945 101.283 368.278 102.15C366.611 103.017 364.711 103.45 362.578 103.45C360.211 103.45 358.045 102.85 356.078 101.65C354.111 100.417 352.545 98.7165 351.378 96.5499C350.245 94.3499 349.678 91.8665 349.678 89.0999ZM372.228 89.1999C372.228 87.2999 371.828 85.6499 371.028 84.2499C370.261 82.8499 369.245 81.7832 367.978 81.0499C366.711 80.3165 365.345 79.9499 363.878 79.9499C362.411 79.9499 361.045 80.3165 359.778 81.0499C358.511 81.7499 357.478 82.7999 356.678 84.1999C355.911 85.5665 355.528 87.1999 355.528 89.0999C355.528 90.9999 355.911 92.6665 356.678 94.0999C357.478 95.5332 358.511 96.6332 359.778 97.3999C361.078 98.1332 362.445 98.4999 363.878 98.4999C365.345 98.4999 366.711 98.1332 367.978 97.3999C369.245 96.6665 370.261 95.5999 371.028 94.1999C371.828 92.7665 372.228 91.0999 372.228 89.1999ZM418.815 74.9999C420.982 74.9999 422.915 75.4499 424.615 76.3499C426.348 77.2499 427.698 78.5832 428.665 80.3499C429.665 82.1165 430.165 84.2499 430.165 86.7499V103H424.515V87.5999C424.515 85.1332 423.898 83.2499 422.665 81.9499C421.432 80.6165 419.748 79.9499 417.615 79.9499C415.482 79.9499 413.782 80.6165 412.515 81.9499C411.282 83.2499 410.665 85.1332 410.665 87.5999V103H405.015V87.5999C405.015 85.1332 404.398 83.2499 403.165 81.9499C401.932 80.6165 400.248 79.9499 398.115 79.9499C395.982 79.9499 394.282 80.6165 393.015 81.9499C391.782 83.2499 391.165 85.1332 391.165 87.5999V103H385.465V75.4499H391.165V78.5999C392.098 77.4665 393.282 76.5832 394.715 75.9499C396.148 75.3165 397.682 74.9999 399.315 74.9999C401.515 74.9999 403.482 75.4665 405.215 76.3999C406.948 77.3332 408.282 78.6832 409.215 80.4499C410.048 78.7832 411.348 77.4665 413.115 76.4999C414.882 75.4999 416.782 74.9999 418.815 74.9999Z" fill="black"/>
<path d="M262.456 194.302C263.256 194.302 263.901 194.613 264.392 195.235C264.887 195.857 265.135 196.769 265.135 197.971C265.135 198.775 265.018 199.452 264.786 200.002C264.553 200.548 264.231 200.961 263.821 201.24C263.41 201.519 262.938 201.659 262.405 201.659C262.062 201.659 261.768 201.617 261.523 201.532C261.278 201.443 261.068 201.331 260.895 201.196C260.721 201.056 260.571 200.908 260.444 200.751H260.342C260.376 200.921 260.402 201.094 260.418 201.272C260.435 201.449 260.444 201.623 260.444 201.792V204.655H258.508V194.435H260.082L260.355 195.356H260.444C260.571 195.165 260.725 194.99 260.907 194.829C261.089 194.668 261.307 194.541 261.561 194.448C261.819 194.351 262.118 194.302 262.456 194.302ZM261.834 195.851C261.495 195.851 261.227 195.921 261.028 196.06C260.829 196.2 260.683 196.409 260.59 196.689C260.501 196.968 260.452 197.321 260.444 197.749V197.958C260.444 198.415 260.486 198.803 260.571 199.12C260.66 199.437 260.806 199.678 261.009 199.844C261.216 200.009 261.5 200.091 261.859 200.091C262.156 200.091 262.399 200.009 262.589 199.844C262.78 199.678 262.922 199.437 263.015 199.12C263.112 198.798 263.161 198.407 263.161 197.946C263.161 197.252 263.053 196.729 262.837 196.378C262.621 196.026 262.287 195.851 261.834 195.851ZM273.184 197.971C273.184 198.563 273.103 199.088 272.942 199.545C272.786 200.002 272.555 200.389 272.25 200.707C271.95 201.02 271.586 201.257 271.159 201.418C270.736 201.579 270.257 201.659 269.724 201.659C269.225 201.659 268.766 201.579 268.347 201.418C267.932 201.257 267.57 201.02 267.261 200.707C266.957 200.389 266.72 200.002 266.55 199.545C266.385 199.088 266.303 198.563 266.303 197.971C266.303 197.184 266.442 196.517 266.722 195.971C267.001 195.426 267.399 195.011 267.915 194.727C268.431 194.444 269.047 194.302 269.762 194.302C270.427 194.302 271.015 194.444 271.527 194.727C272.043 195.011 272.447 195.426 272.739 195.971C273.035 196.517 273.184 197.184 273.184 197.971ZM268.277 197.971C268.277 198.436 268.328 198.828 268.429 199.145C268.531 199.463 268.689 199.702 268.905 199.863C269.121 200.023 269.403 200.104 269.75 200.104C270.092 200.104 270.369 200.023 270.581 199.863C270.797 199.702 270.953 199.463 271.051 199.145C271.152 198.828 271.203 198.436 271.203 197.971C271.203 197.501 271.152 197.112 271.051 196.803C270.953 196.49 270.797 196.255 270.581 196.098C270.365 195.942 270.084 195.864 269.737 195.864C269.225 195.864 268.852 196.039 268.62 196.39C268.391 196.742 268.277 197.268 268.277 197.971ZM280.617 201.532L280.071 199.05C280.041 198.902 279.993 198.684 279.925 198.396C279.857 198.104 279.783 197.793 279.703 197.463C279.626 197.129 279.555 196.82 279.487 196.536C279.423 196.253 279.377 196.046 279.347 195.914H279.29C279.26 196.046 279.214 196.253 279.15 196.536C279.087 196.82 279.015 197.129 278.935 197.463C278.858 197.797 278.786 198.113 278.719 198.409C278.651 198.701 278.6 198.923 278.566 199.075L277.995 201.532H275.913L273.895 194.435H275.824L276.643 197.577C276.698 197.797 276.751 198.06 276.802 198.365C276.853 198.665 276.897 198.957 276.935 199.24C276.977 199.52 277.009 199.742 277.03 199.907H277.081C277.09 199.784 277.106 199.621 277.132 199.418C277.161 199.215 277.193 199.006 277.227 198.79C277.265 198.57 277.299 198.373 277.329 198.199C277.362 198.022 277.388 197.901 277.405 197.838L278.281 194.435H280.414L281.245 197.838C281.275 197.96 281.313 198.155 281.359 198.422C281.41 198.688 281.455 198.963 281.493 199.247C281.531 199.526 281.552 199.746 281.556 199.907H281.607C281.624 199.763 281.653 199.549 281.696 199.266C281.738 198.982 281.787 198.686 281.842 198.377C281.901 198.064 281.96 197.797 282.02 197.577L282.87 194.435H284.768L282.724 201.532H280.617ZM288.843 194.302C289.499 194.302 290.064 194.429 290.538 194.683C291.012 194.933 291.378 195.296 291.636 195.775C291.894 196.253 292.023 196.837 292.023 197.527V198.466H287.447C287.468 199.012 287.631 199.442 287.936 199.755C288.244 200.064 288.672 200.218 289.218 200.218C289.671 200.218 290.085 200.171 290.462 200.078C290.839 199.985 291.226 199.846 291.624 199.659V201.157C291.272 201.331 290.904 201.458 290.519 201.538C290.138 201.619 289.675 201.659 289.129 201.659C288.418 201.659 287.787 201.528 287.237 201.265C286.691 201.003 286.262 200.603 285.949 200.066C285.64 199.528 285.485 198.851 285.485 198.034C285.485 197.205 285.625 196.515 285.904 195.965C286.188 195.411 286.581 194.996 287.085 194.721C287.589 194.442 288.175 194.302 288.843 194.302ZM288.856 195.679C288.479 195.679 288.166 195.8 287.917 196.041C287.671 196.282 287.529 196.661 287.491 197.178H290.208C290.204 196.89 290.151 196.634 290.049 196.409C289.952 196.185 289.804 196.007 289.605 195.876C289.41 195.745 289.161 195.679 288.856 195.679ZM297.559 194.302C297.656 194.302 297.768 194.308 297.895 194.321C298.026 194.33 298.132 194.342 298.212 194.359L298.066 196.175C298.003 196.153 297.912 196.139 297.793 196.13C297.679 196.117 297.58 196.111 297.495 196.111C297.245 196.111 297.002 196.143 296.765 196.206C296.532 196.27 296.323 196.373 296.137 196.517C295.951 196.657 295.802 196.843 295.692 197.076C295.587 197.304 295.534 197.586 295.534 197.92V201.532H293.598V194.435H295.064L295.35 195.629H295.445C295.584 195.387 295.758 195.167 295.965 194.969C296.177 194.765 296.416 194.605 296.683 194.486C296.953 194.363 297.245 194.302 297.559 194.302ZM302.427 194.302C303.083 194.302 303.648 194.429 304.122 194.683C304.596 194.933 304.962 195.296 305.22 195.775C305.478 196.253 305.607 196.837 305.607 197.527V198.466H301.031C301.052 199.012 301.215 199.442 301.52 199.755C301.828 200.064 302.256 200.218 302.802 200.218C303.255 200.218 303.669 200.171 304.046 200.078C304.423 199.985 304.81 199.846 305.208 199.659V201.157C304.856 201.331 304.488 201.458 304.103 201.538C303.722 201.619 303.259 201.659 302.713 201.659C302.002 201.659 301.371 201.528 300.821 201.265C300.275 201.003 299.846 200.603 299.533 200.066C299.224 199.528 299.069 198.851 299.069 198.034C299.069 197.205 299.209 196.515 299.488 195.965C299.772 195.411 300.165 194.996 300.669 194.721C301.173 194.442 301.759 194.302 302.427 194.302ZM302.44 195.679C302.063 195.679 301.75 195.8 301.5 196.041C301.255 196.282 301.113 196.661 301.075 197.178H303.792C303.788 196.89 303.735 196.634 303.633 196.409C303.536 196.185 303.388 196.007 303.189 195.876C302.994 195.745 302.745 195.679 302.44 195.679ZM309.429 201.659C308.637 201.659 307.992 201.35 307.493 200.732C306.998 200.11 306.75 199.198 306.75 197.996C306.75 196.782 307.002 195.864 307.505 195.241C308.009 194.615 308.667 194.302 309.479 194.302C309.818 194.302 310.116 194.349 310.375 194.442C310.633 194.535 310.855 194.66 311.041 194.816C311.231 194.973 311.392 195.148 311.523 195.343H311.587C311.562 195.208 311.53 195.009 311.492 194.746C311.458 194.48 311.441 194.207 311.441 193.928V191.655H313.383V201.532H311.898L311.523 200.612H311.441C311.318 200.806 311.164 200.984 310.978 201.145C310.796 201.301 310.578 201.426 310.324 201.519C310.07 201.612 309.771 201.659 309.429 201.659ZM310.108 200.116C310.637 200.116 311.009 199.96 311.225 199.647C311.445 199.329 311.562 198.853 311.574 198.219V198.009C311.574 197.319 311.468 196.792 311.257 196.428C311.045 196.06 310.652 195.876 310.076 195.876C309.649 195.876 309.314 196.06 309.073 196.428C308.832 196.797 308.711 197.328 308.711 198.022C308.711 198.716 308.832 199.238 309.073 199.59C309.319 199.941 309.664 200.116 310.108 200.116ZM320.721 191.655V193.953C320.721 194.219 320.713 194.484 320.696 194.746C320.683 195.009 320.666 195.212 320.645 195.356H320.721C320.907 195.064 321.161 194.816 321.483 194.613C321.805 194.406 322.221 194.302 322.733 194.302C323.529 194.302 324.174 194.613 324.669 195.235C325.165 195.857 325.412 196.769 325.412 197.971C325.412 198.779 325.298 199.458 325.069 200.009C324.841 200.554 324.521 200.967 324.111 201.246C323.7 201.521 323.224 201.659 322.683 201.659C322.162 201.659 321.752 201.566 321.451 201.38C321.151 201.193 320.907 200.984 320.721 200.751H320.588L320.264 201.532H318.785V191.655H320.721ZM322.111 195.851C321.773 195.851 321.504 195.921 321.305 196.06C321.106 196.2 320.96 196.409 320.867 196.689C320.778 196.968 320.73 197.321 320.721 197.749V197.958C320.721 198.648 320.823 199.177 321.026 199.545C321.229 199.909 321.599 200.091 322.137 200.091C322.535 200.091 322.85 199.907 323.083 199.539C323.319 199.171 323.438 198.64 323.438 197.946C323.438 197.252 323.319 196.729 323.083 196.378C322.846 196.026 322.522 195.851 322.111 195.851ZM325.996 194.435H328.116L329.456 198.428C329.498 198.555 329.534 198.684 329.563 198.815C329.593 198.946 329.618 199.082 329.64 199.221C329.661 199.361 329.678 199.507 329.69 199.659H329.729C329.754 199.431 329.788 199.217 329.83 199.018C329.877 198.819 329.934 198.623 330.001 198.428L331.315 194.435H333.391L330.389 202.44C330.207 202.931 329.97 203.339 329.678 203.665C329.386 203.995 329.049 204.242 328.668 204.407C328.292 204.573 327.877 204.655 327.424 204.655C327.204 204.655 327.014 204.642 326.853 204.617C326.692 204.596 326.555 204.573 326.44 204.547V203.011C326.529 203.032 326.641 203.051 326.777 203.068C326.912 203.085 327.054 203.094 327.202 203.094C327.473 203.094 327.706 203.036 327.9 202.922C328.095 202.808 328.258 202.653 328.389 202.459C328.52 202.268 328.624 202.059 328.7 201.83L328.814 201.481L325.996 194.435ZM341.465 196.321H345.147V201.132C344.66 201.293 344.155 201.422 343.63 201.519C343.105 201.612 342.511 201.659 341.846 201.659C340.924 201.659 340.141 201.477 339.498 201.113C338.854 200.749 338.366 200.212 338.031 199.501C337.697 198.79 337.53 197.916 337.53 196.879C337.53 195.906 337.716 195.064 338.088 194.353C338.465 193.642 339.013 193.092 339.732 192.702C340.456 192.313 341.338 192.118 342.379 192.118C342.87 192.118 343.355 192.171 343.833 192.277C344.311 192.383 344.745 192.52 345.134 192.69L344.48 194.264C344.197 194.12 343.873 193.999 343.509 193.902C343.145 193.805 342.764 193.756 342.367 193.756C341.795 193.756 341.298 193.887 340.875 194.15C340.456 194.412 340.13 194.78 339.897 195.254C339.669 195.724 339.555 196.278 339.555 196.917C339.555 197.522 339.637 198.06 339.802 198.53C339.967 198.995 340.228 199.361 340.583 199.628C340.938 199.89 341.402 200.021 341.973 200.021C342.252 200.021 342.487 200.009 342.678 199.983C342.872 199.954 343.054 199.924 343.224 199.894V197.958H341.465V196.321ZM351.171 194.302C351.268 194.302 351.38 194.308 351.507 194.321C351.639 194.33 351.744 194.342 351.825 194.359L351.679 196.175C351.615 196.153 351.524 196.139 351.406 196.13C351.292 196.117 351.192 196.111 351.107 196.111C350.858 196.111 350.614 196.143 350.377 196.206C350.145 196.27 349.935 196.373 349.749 196.517C349.563 196.657 349.415 196.843 349.305 197.076C349.199 197.304 349.146 197.586 349.146 197.92V201.532H347.21V194.435H348.676L348.962 195.629H349.057C349.197 195.387 349.37 195.167 349.578 194.969C349.789 194.765 350.028 194.605 350.295 194.486C350.566 194.363 350.858 194.302 351.171 194.302ZM356.04 194.302C356.695 194.302 357.26 194.429 357.734 194.683C358.208 194.933 358.574 195.296 358.833 195.775C359.091 196.253 359.22 196.837 359.22 197.527V198.466H354.643C354.664 199.012 354.827 199.442 355.132 199.755C355.441 200.064 355.868 200.218 356.414 200.218C356.867 200.218 357.282 200.171 357.658 200.078C358.035 199.985 358.422 199.846 358.82 199.659V201.157C358.469 201.331 358.1 201.458 357.715 201.538C357.334 201.619 356.871 201.659 356.325 201.659C355.614 201.659 354.984 201.528 354.434 201.265C353.888 201.003 353.458 200.603 353.145 200.066C352.836 199.528 352.682 198.851 352.682 198.034C352.682 197.205 352.821 196.515 353.101 195.965C353.384 195.411 353.778 194.996 354.281 194.721C354.785 194.442 355.371 194.302 356.04 194.302ZM356.052 195.679C355.676 195.679 355.362 195.8 355.113 196.041C354.867 196.282 354.726 196.661 354.688 197.178H357.404C357.4 196.89 357.347 196.634 357.246 196.409C357.148 196.185 357 196.007 356.801 195.876C356.607 195.745 356.357 195.679 356.052 195.679ZM362.73 191.655V193.667C362.73 194.018 362.717 194.353 362.692 194.67C362.671 194.988 362.654 195.212 362.641 195.343H362.743C362.895 195.098 363.075 194.899 363.282 194.746C363.494 194.594 363.727 194.482 363.98 194.41C364.234 194.338 364.507 194.302 364.799 194.302C365.311 194.302 365.758 194.393 366.139 194.575C366.52 194.753 366.816 195.034 367.027 195.419C367.239 195.8 367.345 196.295 367.345 196.905V201.532H365.409V197.387C365.409 196.879 365.316 196.496 365.129 196.238C364.943 195.98 364.655 195.851 364.266 195.851C363.877 195.851 363.57 195.942 363.346 196.124C363.121 196.302 362.963 196.566 362.87 196.917C362.777 197.264 362.73 197.69 362.73 198.193V201.532H360.794V191.655H362.73ZM375.851 194.435V201.532H374.365L374.105 200.624H374.003C373.851 200.865 373.661 201.062 373.432 201.215C373.204 201.367 372.952 201.479 372.677 201.551C372.402 201.623 372.116 201.659 371.82 201.659C371.312 201.659 370.87 201.57 370.493 201.392C370.117 201.21 369.822 200.929 369.611 200.548C369.403 200.167 369.3 199.672 369.3 199.063V194.435H371.236V198.58C371.236 199.088 371.327 199.471 371.509 199.729C371.691 199.987 371.981 200.116 372.378 200.116C372.772 200.116 373.081 200.028 373.305 199.85C373.529 199.668 373.686 199.403 373.775 199.056C373.868 198.705 373.915 198.278 373.915 197.774V194.435H375.851ZM382.833 199.425C382.833 199.907 382.719 200.315 382.49 200.65C382.266 200.98 381.93 201.232 381.481 201.405C381.032 201.574 380.474 201.659 379.805 201.659C379.31 201.659 378.885 201.627 378.529 201.564C378.178 201.5 377.823 201.394 377.463 201.246V199.647C377.848 199.82 378.261 199.964 378.701 200.078C379.145 200.188 379.534 200.243 379.869 200.243C380.245 200.243 380.514 200.188 380.675 200.078C380.84 199.964 380.922 199.816 380.922 199.634C380.922 199.516 380.889 199.41 380.821 199.317C380.757 199.219 380.618 199.111 380.402 198.993C380.186 198.87 379.847 198.712 379.386 198.517C378.942 198.331 378.576 198.142 378.288 197.952C378.005 197.761 377.793 197.537 377.653 197.279C377.518 197.017 377.45 196.685 377.45 196.282C377.45 195.627 377.704 195.134 378.212 194.803C378.724 194.469 379.407 194.302 380.262 194.302C380.702 194.302 381.121 194.346 381.519 194.435C381.921 194.524 382.334 194.666 382.757 194.861L382.173 196.257C381.822 196.105 381.489 195.98 381.176 195.883C380.867 195.785 380.552 195.737 380.23 195.737C379.947 195.737 379.733 195.775 379.589 195.851C379.445 195.927 379.374 196.043 379.374 196.2C379.374 196.314 379.41 196.416 379.481 196.505C379.558 196.594 379.701 196.693 379.913 196.803C380.129 196.909 380.444 197.046 380.859 197.216C381.261 197.381 381.61 197.554 381.906 197.736C382.202 197.914 382.431 198.136 382.592 198.403C382.753 198.665 382.833 199.006 382.833 199.425Z" fill="black"/>
<defs>
<linearGradient id="paint0_linear_516_2" x1="90.0277" y1="30.2105" x2="154.313" y2="220.972" gradientUnits="userSpaceOnUse">
<stop offset="0.291667" stop-color="#6332A9"/>
<stop offset="1" stop-color="#126FCC"/>
</linearGradient>
<linearGradient id="paint1_linear_516_2" x1="93.6639" y1="89.8332" x2="98.5563" y2="104.347" gradientUnits="userSpaceOnUse">
<stop stop-color="white"/>
<stop offset="1" stop-color="#4B44B3"/>
</linearGradient>
<linearGradient id="paint2_linear_516_2" x1="122.257" y1="80.1666" x2="127.149" y2="94.6805" gradientUnits="userSpaceOnUse">
<stop stop-color="white"/>
<stop offset="1" stop-color="#4846B5"/>
</linearGradient>
<linearGradient id="paint3_linear_516_2" x1="329.78" y1="93.5649" x2="329.78" y2="225.882" gradientUnits="userSpaceOnUse">
<stop offset="0.229167" stop-color="#6332A9"/>
<stop offset="0.848958" stop-color="#126FCC"/>
</linearGradient>
</defs>
</svg>
