<svg id="visual" viewBox="0 0 1000 100" width="1000" height="100" xmlns="http://www.w3.org/2000/svg" xmlns:xlink="http://www.w3.org/1999/xlink" version="1.1">
    <path d="M0 35L11.2 36.8C22.3 38.7 44.7 42.3 66.8 41.8C89 41.3 111 36.7 133.2 38.5C155.3 40.3 177.7 48.7 200 49C222.3 49.3 244.7 41.7 266.8 37.7C289 33.7 311 33.3 333.2 35C355.3 36.7 377.7 40.3 400 45C422.3 49.7 444.7 55.3 466.8 56C489 56.7 511 52.3 533.2 47.8C555.3 43.3 577.7 38.7 600 39.7C622.3 40.7 644.7 47.3 666.8 52C689 56.7 711 59.3 733.2 60C755.3 60.7 777.7 59.3 800 53.8C822.3 48.3 844.7 38.7 866.8 36.2C889 33.7 911 38.3 933.2 39.5C955.3 40.7 977.7 38.3 988.8 37.2L1000 36L1000 101L988.8 101C977.7 101 955.3 101 933.2 101C911 101 889 101 866.8 101C844.7 101 822.3 101 800 101C777.7 101 755.3 101 733.2 101C711 101 689 101 666.8 101C644.7 101 622.3 101 600 101C577.7 101 555.3 101 533.2 101C511 101 489 101 466.8 101C444.7 101 422.3 101 400 101C377.7 101 355.3 101 333.2 101C311 101 289 101 266.8 101C244.7 101 222.3 101 200 101C177.7 101 155.3 101 133.2 101C111 101 89 101 66.8 101C44.7 101 22.3 101 11.2 101L0 101Z" fill="#c5f2b3"></path>
</svg>