<svg version="1.1" id="Layer_1" xmlns="http://www.w3.org/2000/svg" xmlns:xlink="http://www.w3.org/1999/xlink" x="0px" y="0px"
	 width="100%" viewBox="0 0 539 268" enable-background="new 0 0 539 268" xml:space="preserve">
<path fill="#191A19" opacity="1.000000" stroke="none" 
	d="
M1.000002,161.000000 
	C1.000000,107.694817 1.000000,54.389637 1.000000,1.042229 
	C180.543671,1.042229 360.087372,1.042229 540.000000,1.042229 
	C540.000000,44.020191 540.000000,87.041435 539.588257,130.473755 
	C502.619965,126.588058 466.051025,122.392662 429.510315,117.964897 
	C395.625305,113.858948 361.661072,110.507195 328.107788,103.754105 
	C280.913086,94.255463 233.548050,85.596527 186.204391,76.857323 
	C182.562927,76.185135 178.071701,76.778809 174.723267,78.363861 
	C133.167236,98.035324 91.769386,118.040543 50.287388,137.869003 
	C33.913826,145.695587 17.432344,153.296387 1.000002,161.000000 
z"/>
<path fill="#313231" opacity="1.000000" stroke="none" 
	d="
M1.000002,161.468658 
	C17.432344,153.296387 33.913826,145.695587 50.287388,137.869003 
	C91.769386,118.040543 133.167236,98.035324 174.723267,78.363861 
	C178.071701,76.778809 182.562927,76.185135 186.204391,76.857323 
	C233.548050,85.596527 280.913086,94.255463 328.107788,103.754105 
	C361.661072,110.507195 395.625305,113.858948 429.510315,117.964897 
	C466.051025,122.392662 502.619965,126.588058 539.588257,130.942413 
	C540.000000,159.687561 540.000000,188.375122 539.617065,217.471283 
	C490.852753,206.257935 442.478027,194.608078 394.085052,183.034225 
	C382.441681,180.249527 370.839325,176.080215 359.044586,175.349838 
	C306.019165,172.066269 252.919388,170.001160 199.874100,167.006500 
	C186.688309,166.262115 174.144562,167.172012 161.793564,172.096497 
	C153.618423,175.355972 145.044830,177.610809 136.667023,180.368317 
	C117.870239,186.555161 99.084312,192.774979 79.834412,198.973328 
	C70.939812,198.137268 62.501911,197.337158 54.070301,196.475494 
	C36.378448,194.667465 18.689903,192.827087 1.000000,191.000000 
	C1.000000,181.312439 1.000000,171.624878 1.000002,161.468658 
z"/>
<path fill="#56943C" opacity="1.000000" stroke="none" 
	d="
M1.000000,191.468658 
	C18.689903,192.827087 36.378448,194.667465 54.070301,196.475494 
	C62.501911,197.337158 70.939812,198.137268 80.213493,199.052750 
	C82.028809,199.348251 82.995972,199.642670 83.983589,199.751526 
	C102.693481,201.813980 121.390984,204.004547 140.122131,205.853683 
	C156.018280,207.422928 172.009064,210.191025 187.861832,209.643799 
	C238.313278,207.902298 288.718170,204.826523 339.145416,202.355530 
	C347.609436,201.940796 356.298248,200.695175 364.537231,202.006622 
	C409.440521,209.154175 454.229279,217.019424 499.071686,224.552811 
	C512.691101,226.840820 526.355957,228.858505 540.000000,231.000000 
	C540.000000,243.658188 540.000000,256.316376 540.000000,268.943054 
	C360.333313,268.943054 180.666656,268.943054 1.000000,268.943054 
	C1.000000,243.236526 1.000000,217.586929 1.000000,191.468658 
z"/>
<path fill="#D78021" opacity="1.000000" stroke="none" 
	d="
M540.000000,230.536819 
	C526.355957,228.858505 512.691101,226.840820 499.071686,224.552811 
	C454.229279,217.019424 409.440521,209.154175 364.537231,202.006622 
	C356.298248,200.695175 347.609436,201.940796 339.145416,202.355530 
	C288.718170,204.826523 238.313278,207.902298 187.861832,209.643799 
	C172.009064,210.191025 156.018280,207.422928 140.122131,205.853683 
	C121.390984,204.004547 102.693481,201.813980 83.983589,199.751526 
	C82.995972,199.642670 82.028809,199.348251 80.673050,199.060791 
	C99.084312,192.774979 117.870239,186.555161 136.667023,180.368317 
	C145.044830,177.610809 153.618423,175.355972 161.793564,172.096497 
	C174.144562,167.172012 186.688309,166.262115 199.874100,167.006500 
	C252.919388,170.001160 306.019165,172.066269 359.044586,175.349838 
	C370.839325,176.080215 382.441681,180.249527 394.085052,183.034225 
	C442.478027,194.608078 490.852753,206.257935 539.617065,217.939941 
	C540.000000,222.024551 540.000000,226.049088 540.000000,230.536819 
z"/>
</svg>