<svg width="241" height="249" viewBox="0 0 241 249" fill="none" xmlns="http://www.w3.org/2000/svg">
<path d="M81.4717 43.164C58.9876 54.172 44.4115 70.4927 37.9644 91.8789C33.0138 108.301 33.5754 125.391 39.6997 144.667C41.754 151.133 50.0297 168.288 53.5038 173.283C64.6272 189.276 76.3197 199.657 90.8281 206.42C109.447 215.099 131.349 215.945 151.406 208.761C154.075 207.806 168.298 200.866 169.785 199.795L171.21 198.766L165.726 187.628L160.243 176.49L159.23 177.31C158.673 177.761 155.663 179.532 152.54 181.245C138.153 189.136 123.311 190.616 108.616 185.627C95.9568 181.328 86.5857 173.436 78.1891 160.001L76.5978 157.455L137.179 127.795L197.76 98.135L196.904 95.7616C196.433 94.4561 194.649 90.2428 192.938 86.3991C186.194 71.2423 177.763 60.0326 166.032 50.6254C154.865 41.6701 143.647 36.6679 130.37 34.7221C113.664 32.2738 98.2972 34.9264 81.4717 43.164ZM92.3022 64.6304C93.2394 64.1721 94.1841 63.7282 95.1168 63.3075C96.0495 62.8867 96.9698 62.489 97.8594 62.1247C98.7491 61.7604 99.6078 61.4291 100.416 61.1401C101.224 60.851 101.982 60.6044 102.67 60.4095C103.365 60.2127 104.059 60.0289 104.752 59.8588C105.445 59.6887 106.137 59.5323 106.828 59.3887C107.519 59.2451 108.21 59.1147 108.898 58.9976C109.587 58.8804 110.274 58.7767 110.959 58.6858C111.645 58.5948 112.328 58.5165 113.01 58.4516C113.692 58.3867 114.372 58.3346 115.05 58.2955C115.728 58.2565 116.404 58.2304 117.077 58.217C117.751 58.2037 118.421 58.2035 119.09 58.2157C119.758 58.2279 120.424 58.2526 121.087 58.2902C121.75 58.3279 122.41 58.3781 123.067 58.441C123.724 58.5039 124.378 58.5793 125.028 58.6672C125.679 58.7551 126.327 58.8555 126.97 58.9684C127.614 59.0812 128.255 59.2069 128.891 59.3444C129.527 59.482 130.16 59.6312 130.788 59.7933C131.417 59.9554 132.041 60.1298 132.661 60.3163C133.281 60.5028 133.897 60.7025 134.508 60.9132C135.12 61.1239 135.727 61.3464 136.329 61.5812C136.931 61.816 137.528 62.0624 138.12 62.3211C138.712 62.5798 139.3 62.8508 139.882 63.1333C140.464 63.4157 141.041 63.71 141.612 64.016C142.184 64.322 142.75 64.6394 143.31 64.9688C143.87 65.2982 144.424 65.6391 144.972 65.9917C145.521 66.3444 146.063 66.7094 146.599 67.0851C147.135 67.4609 147.665 67.8479 148.189 68.2465C148.713 68.6452 149.23 69.0552 149.74 69.4766C150.251 69.898 150.755 70.3311 151.252 70.7751C151.749 71.2191 152.239 71.6742 152.722 72.1406C153.205 72.607 153.68 73.0844 154.148 73.5731C154.617 74.0617 155.077 74.5614 155.53 75.0721C155.983 75.5829 156.428 76.1046 156.866 76.6373C157.304 77.17 157.734 77.7133 158.156 78.2677C158.577 78.8222 158.991 79.3878 159.396 79.9638C159.766 80.4904 160.158 81.0701 160.549 81.6676C160.94 82.2651 161.33 82.8799 161.697 83.4764C162.064 84.0729 162.409 84.6512 162.708 85.1746C163.007 85.6981 163.261 86.1672 163.447 86.5457L164.804 89.2975L115.748 113.315L66.6915 137.333L66.1779 136.289C66.0554 136.041 65.9153 135.705 65.7631 135.3C65.611 134.895 65.4464 134.42 65.2741 133.893C64.9294 132.84 64.5544 131.578 64.1863 130.245C63.8182 128.912 63.4578 127.508 63.1424 126.171C62.8271 124.835 62.5569 123.565 62.3705 122.5C62.2577 121.856 62.1554 121.213 62.0646 120.571C61.9737 119.929 61.8941 119.288 61.825 118.648C61.7559 118.008 61.6977 117.37 61.6501 116.734C61.6026 116.097 61.5649 115.461 61.5388 114.828C61.5126 114.194 61.4979 113.562 61.4929 112.932C61.488 112.302 61.4932 111.675 61.5094 111.049C61.5255 110.423 61.5519 109.799 61.589 109.177C61.626 108.556 61.6742 107.937 61.7321 107.32C61.7899 106.703 61.8574 106.089 61.9358 105.478C62.0143 104.867 62.1035 104.258 62.2024 103.653C62.3012 103.047 62.4104 102.444 62.5296 101.845C62.6487 101.245 62.7774 100.649 62.9167 100.056C63.0559 99.4635 63.2057 98.8737 63.3649 98.2878C63.5241 97.7019 63.6933 97.1197 63.8723 96.5412C64.0513 95.9627 64.2397 95.3886 64.4383 94.8178C64.637 94.2471 64.8458 93.6798 65.0639 93.1173C65.282 92.5547 65.5092 91.9967 65.7466 91.4428C65.984 90.8889 66.2311 90.3396 66.4876 89.7948C66.7441 89.2499 67.0106 88.7091 67.2861 88.1737C67.5616 87.6383 67.8462 87.1079 68.1405 86.5824C68.4349 86.0569 68.7391 85.5365 69.0521 85.0213C69.3651 84.5061 69.6868 83.9961 70.0183 83.4916C70.3498 82.9871 70.691 82.488 71.0409 81.9946C71.3907 81.5012 71.7493 81.0133 72.1174 80.5315C72.4854 80.0496 72.8625 79.5737 73.2486 79.1039C73.6346 78.634 74.0302 78.1705 74.4341 77.7131C74.838 77.2556 75.2507 76.8045 75.6723 76.3598C76.0939 75.9151 76.5245 75.4765 76.9636 75.045C77.4027 74.6135 77.85 74.1893 78.3065 73.7714C78.763 73.3536 79.2287 72.9422 79.7024 72.5384C80.1761 72.1345 80.658 71.7376 81.1487 71.3482C81.6395 70.9588 82.1385 70.5771 82.6461 70.2026C83.2155 69.7826 83.8697 69.3385 84.5888 68.8806C85.308 68.4227 86.0922 67.951 86.9226 67.4741C87.7529 66.9972 88.6296 66.5154 89.5326 66.0383C90.4356 65.5613 91.3651 65.0887 92.3022 64.6304Z" fill="url(#paint0_linear_643_118)"/>
<path d="M93.1145 91.3318L92.9262 91.4258C91.3665 92.2039 90.6616 94.1301 91.3518 95.7282L94.4134 102.817C95.1036 104.415 96.9275 105.08 98.4872 104.302L98.6755 104.208C100.235 103.429 100.94 101.503 100.25 99.9052L97.1883 92.8165C96.4981 91.2184 94.6742 90.5537 93.1145 91.3318Z" fill="white" fill-opacity="0.8" stroke="url(#paint1_linear_643_118)" stroke-opacity="0.881432" stroke-width="2.45768" stroke-linecap="round" stroke-linejoin="round"/>
<path d="M119.7 82.3437L119.512 82.4376C117.952 83.2157 117.248 85.142 117.938 86.74L120.999 93.8287C121.689 95.4268 123.513 96.0915 125.073 95.3134L125.261 95.2194C126.821 94.4413 127.526 92.5151 126.836 90.917L123.774 83.8283C123.084 82.2303 121.26 81.5656 119.7 82.3437Z" fill="white" stroke="url(#paint2_linear_643_118)" stroke-opacity="0.881432" stroke-width="2.45768" stroke-linecap="round" stroke-linejoin="round"/>
<path d="M58.6094 106.403C58.4521 106.418 58.2951 106.435 58.1384 106.456C54.4552 106.972 51.1589 109.037 48.9748 112.198C46.7906 115.358 45.8974 119.355 46.4916 123.309C47.086 127.263 49.1192 130.85 52.1438 133.281C55.1685 135.712 58.937 136.788 62.6202 136.273C62.7754 136.242 62.93 136.208 63.084 136.171L58.6094 106.403Z" fill="white" stroke="white" stroke-width="2.45768" stroke-linecap="round" stroke-linejoin="round"/>
<path d="M57.2131 124.153C59.1056 122.605 59.3701 119.8 57.804 117.888C56.2379 115.976 53.4342 115.681 51.5418 117.229C49.6494 118.778 49.3848 121.583 50.9509 123.495C52.517 125.407 55.3207 125.702 57.2131 124.153Z" fill="white" stroke="#5A39AD" stroke-width="1.16371" stroke-linecap="round" stroke-linejoin="round"/>
<path d="M179.758 100.52C179.885 100.424 180.011 100.325 180.134 100.224C183.033 97.8206 184.891 94.2435 185.301 90.2796C185.711 86.3157 184.639 82.2897 182.321 79.0873C180.003 75.8849 176.628 73.7684 172.939 73.2035C169.251 72.6385 165.55 73.6713 162.652 76.0747C162.534 76.1842 162.418 76.2959 162.304 76.4098L179.758 100.52Z" fill="white" stroke="white" stroke-width="2.45768" stroke-linecap="round" stroke-linejoin="round"/>
<path d="M171.555 82.3278C170.725 85.1696 172.198 87.9901 174.845 88.6275C177.492 89.265 180.311 87.4781 181.14 84.6363C181.97 81.7946 180.497 78.9741 177.85 78.3366C175.203 77.6991 172.384 79.486 171.555 82.3278Z" stroke="#5939AD" stroke-width="1.16371" stroke-linecap="round" stroke-linejoin="round"/>
<defs>
<linearGradient id="paint0_linear_643_118" x1="80.501" y1="43.6393" x2="159.531" y2="205.06" gradientUnits="userSpaceOnUse">
<stop offset="0.291667" stop-color="#6332A9"/>
<stop offset="1" stop-color="#126FCC"/>
</linearGradient>
<linearGradient id="paint1_linear_643_118" x1="93.0203" y1="91.3788" x2="99.2719" y2="103.91" gradientUnits="userSpaceOnUse">
<stop stop-color="#6332A9"/>
<stop offset="1" stop-color="#4B44B3"/>
</linearGradient>
<linearGradient id="paint2_linear_643_118" x1="119.606" y1="82.3906" x2="125.858" y2="94.9219" gradientUnits="userSpaceOnUse">
<stop stop-color="#6332A9"/>
<stop offset="1" stop-color="#4846B5"/>
</linearGradient>
</defs>
</svg>
