<svg width="127" height="93" viewBox="0 0 127 93" fill="none" xmlns="http://www.w3.org/2000/svg">
<path d="M58.4446 22.38V69H51.2626V22.38H58.4446ZM71.5279 29.688C70.2259 29.688 69.1339 29.247 68.2519 28.365C67.3699 27.483 66.9289 26.391 66.9289 25.089C66.9289 23.787 67.3699 22.695 68.2519 21.813C69.1339 20.931 70.2259 20.49 71.5279 20.49C72.7879 20.49 73.8589 20.931 74.7409 21.813C75.6229 22.695 76.0639 23.787 76.0639 25.089C76.0639 26.391 75.6229 27.483 74.7409 28.365C73.8589 29.247 72.7879 29.688 71.5279 29.688ZM75.0559 34.287V69H67.8739V34.287H75.0559ZM82.0912 51.486C82.0912 48 82.8052 44.913 84.2332 42.225C85.7033 39.537 87.6773 37.458 90.1552 35.988C92.6752 34.476 95.4472 33.72 98.4713 33.72C101.201 33.72 103.574 34.266 105.59 35.358C107.648 36.408 109.286 37.731 110.504 39.327V34.287H117.749V69H110.504V63.834C109.286 65.472 107.627 66.837 105.527 67.929C103.427 69.021 101.033 69.567 98.3453 69.567C95.3632 69.567 92.6332 68.811 90.1552 67.299C87.6773 65.745 85.7033 63.603 84.2332 60.873C82.8052 58.101 82.0912 54.972 82.0912 51.486ZM110.504 51.612C110.504 49.218 110 47.139 108.992 45.375C108.026 43.611 106.745 42.267 105.149 41.343C103.553 40.419 101.831 39.957 99.9832 39.957C98.1352 39.957 96.4132 40.419 94.8172 41.343C93.2212 42.225 91.9192 43.548 90.9112 45.312C89.9453 47.034 89.4623 49.092 89.4623 51.486C89.4623 53.88 89.9453 55.98 90.9112 57.786C91.9192 59.592 93.2212 60.978 94.8172 61.944C96.4553 62.868 98.1773 63.33 99.9832 63.33C101.831 63.33 103.553 62.868 105.149 61.944C106.745 61.02 108.026 59.676 108.992 57.912C110 56.106 110.504 54.006 110.504 51.612Z" fill="black"/>
<path d="M19.9246 27.561C13.927 29.5887 9.71371 33.1448 7.34865 38.1756C5.53257 42.0385 5.06772 46.226 5.91289 51.1103C6.19641 52.7487 7.65329 57.1783 8.343 58.4993C10.5513 62.7286 13.1002 65.605 16.4795 67.6808C20.8162 70.3448 26.2491 71.1934 31.506 70.0279C32.2054 69.8729 35.9986 68.5961 36.4074 68.3781L36.7993 68.169L35.8258 65.2896L34.8525 62.4105L34.5708 62.5809C34.4159 62.6748 33.6024 63.0188 32.7628 63.3453C28.8952 64.8495 25.1407 64.7759 21.6521 63.1273C18.6468 61.7072 16.5889 59.5062 14.9702 55.981L14.6634 55.313L30.8235 49.8496L46.9836 44.3862L46.8539 43.7818C46.7827 43.4494 46.4868 42.3688 46.1963 41.3805C45.0506 37.4835 43.3445 34.5005 40.7516 31.8606C38.2833 29.3476 35.6624 27.7979 32.4197 26.9338C28.3395 25.8466 24.4129 26.0436 19.9246 27.561ZM21.8661 33.1177C22.1161 33.0333 22.3675 32.9527 22.615 32.8773C22.8625 32.802 23.1061 32.7319 23.3409 32.6691C23.5757 32.6062 23.8016 32.5505 24.0134 32.5037C24.2252 32.4568 24.423 32.4188 24.6015 32.3914C24.7817 32.3638 24.9613 32.3392 25.1403 32.318C25.3192 32.2968 25.4973 32.2789 25.6748 32.2642C25.8523 32.2494 26.0291 32.2378 26.2049 32.2294C26.3808 32.221 26.5558 32.2158 26.73 32.2137C26.9042 32.2116 27.0774 32.2125 27.2498 32.2166C27.4221 32.2208 27.5936 32.228 27.7641 32.2383C27.9345 32.2487 28.1042 32.2621 28.2726 32.2786C28.441 32.2951 28.6083 32.3147 28.7746 32.3373C28.9409 32.3599 29.1061 32.3854 29.2702 32.414C29.4342 32.4426 29.5969 32.4742 29.7586 32.5088C29.9202 32.5434 30.0807 32.581 30.2398 32.6215C30.399 32.6621 30.557 32.7056 30.7135 32.752C30.8701 32.7984 31.0254 32.8478 31.1792 32.9C31.3331 32.9523 31.4855 33.0072 31.6365 33.0652C31.7875 33.1232 31.9371 33.184 32.0852 33.2477C32.2333 33.3114 32.3798 33.3782 32.5248 33.4476C32.6698 33.5169 32.8135 33.589 32.9553 33.664C33.0972 33.7389 33.2372 33.8166 33.3758 33.8971C33.5144 33.9776 33.6513 34.0609 33.7865 34.1469C33.9217 34.2329 34.0552 34.3217 34.1868 34.4131C34.3185 34.5045 34.4485 34.5986 34.5765 34.6954C34.7045 34.7922 34.8307 34.8916 34.955 34.9938C35.0793 35.0959 35.2016 35.2009 35.322 35.3083C35.4425 35.4158 35.561 35.5258 35.6774 35.6384C35.7939 35.751 35.9084 35.8663 36.0208 35.9841C36.1332 36.1019 36.2436 36.2224 36.3519 36.3453C36.4601 36.4682 36.5663 36.5937 36.6702 36.7217C36.7741 36.8497 36.8758 36.9801 36.9753 37.1131C37.0748 37.2461 37.1719 37.3816 37.2669 37.5195C37.3618 37.6574 37.4544 37.7978 37.5447 37.9407C37.635 38.0835 37.7231 38.2287 37.8086 38.3764C37.8942 38.5241 37.9773 38.6743 38.058 38.8267C38.1317 38.9661 38.2088 39.119 38.2851 39.2763C38.3615 39.4336 38.437 39.5951 38.5075 39.7515C38.5779 39.9078 38.6435 40.0591 38.6995 40.1956C38.7556 40.3321 38.8023 40.454 38.8354 40.5519L39.0764 41.2633L25.9906 45.6873L12.9048 50.1114L12.8137 49.8417C12.7919 49.7774 12.7689 49.6913 12.7452 49.588C12.7216 49.4847 12.6974 49.3641 12.673 49.2305C12.6243 48.9633 12.5755 48.6443 12.5308 48.3082C12.4862 47.972 12.446 47.6188 12.4147 47.2833C12.3834 46.9477 12.3609 46.63 12.3521 46.3647C12.3468 46.2042 12.344 46.0442 12.3441 45.8849C12.3441 45.7255 12.347 45.5666 12.3524 45.4084C12.3578 45.2503 12.3659 45.0929 12.3766 44.9361C12.3872 44.7792 12.4004 44.623 12.4163 44.4676C12.4322 44.3122 12.4508 44.1575 12.4719 44.0036C12.493 43.8497 12.5165 43.6967 12.5427 43.5444C12.5689 43.3921 12.5975 43.2405 12.6288 43.0899C12.66 42.9393 12.694 42.7897 12.7302 42.6409C12.7665 42.4921 12.805 42.3442 12.8462 42.1973C12.8874 42.0504 12.9312 41.9045 12.9773 41.7596C13.0234 41.6147 13.072 41.4708 13.1229 41.3279C13.1739 41.1851 13.2271 41.0434 13.2828 40.9028C13.3385 40.7622 13.3968 40.6226 13.4572 40.4843C13.5177 40.3459 13.5804 40.2088 13.6456 40.0729C13.7107 39.9369 13.778 39.8023 13.8478 39.6688C13.9175 39.5353 13.9897 39.403 14.064 39.2721C14.1383 39.1412 14.2147 39.0116 14.2935 38.8834C14.3724 38.7552 14.4534 38.6284 14.5367 38.5029C14.62 38.3775 14.7056 38.2533 14.7932 38.1307C14.8809 38.0081 14.9707 37.887 15.0627 37.7673C15.1547 37.6477 15.249 37.5296 15.3453 37.413C15.4416 37.2965 15.5399 37.1814 15.6404 37.068C15.741 36.9546 15.8438 36.8428 15.9485 36.7326C16.0532 36.6224 16.1599 36.5139 16.2688 36.407C16.3776 36.3002 16.4885 36.1951 16.6014 36.0918C16.7144 35.9884 16.8294 35.8869 16.9464 35.7871C17.0633 35.6872 17.1822 35.5893 17.3031 35.4931C17.424 35.3969 17.5469 35.3025 17.6717 35.21C17.7965 35.1176 17.9231 35.0272 18.0517 34.9385C18.1804 34.8499 18.3111 34.7632 18.4436 34.6785C18.576 34.5938 18.7102 34.5111 18.8464 34.4304C18.9826 34.3498 19.1206 34.2712 19.2605 34.1947C19.4173 34.1089 19.5962 34.0197 19.7918 33.929C19.9874 33.8383 20.1997 33.7462 20.4237 33.6541C20.6477 33.5621 20.8834 33.4701 21.1255 33.3802C21.3676 33.2902 21.6162 33.2021 21.8661 33.1177Z" fill="url(#paint0_linear_836_2)"/>
<path d="M20.4567 40.6655L20.4048 40.683C19.9741 40.8286 19.7329 41.266 19.8661 41.6598L20.4568 43.407C20.5899 43.8008 21.047 44.0021 21.4776 43.8565L21.5296 43.839C21.9603 43.6934 22.2014 43.256 22.0683 42.8622L21.4776 41.115C21.3444 40.7211 20.8874 40.5199 20.4567 40.6655Z" fill="#6332A9" stroke="url(#paint1_linear_836_2)" stroke-opacity="0.881432" stroke-width="0.624701" stroke-linecap="round" stroke-linejoin="round"/>
<path d="M26.718 38.5485L26.666 38.5661C26.2353 38.7117 25.9942 39.149 26.1273 39.5429L26.718 41.29C26.8512 41.6839 27.3082 41.8852 27.7389 41.7396L27.7909 41.722C28.2215 41.5764 28.4627 41.1391 28.3295 40.7452L27.7388 38.9981C27.6057 38.6042 27.1486 38.4029 26.718 38.5485Z" fill="#6332A9" stroke="url(#paint2_linear_836_2)" stroke-opacity="0.881432" stroke-width="0.624701" stroke-linecap="round" stroke-linejoin="round"/>
<path d="M12.8069 44.2952C12.7661 44.2946 12.7253 44.2946 12.6845 44.2952C11.7242 44.3186 10.8127 44.7228 10.1505 45.4188C9.48832 46.1148 9.12968 47.0456 9.15348 48.0065C9.17731 48.9674 9.58163 49.8797 10.2775 50.5426C10.9734 51.2055 11.9038 51.5648 12.8641 51.5415C12.9049 51.5383 12.9456 51.5344 12.9862 51.5298L12.8069 44.2952Z" fill="white" stroke="white" stroke-width="0.624701" stroke-linecap="round" stroke-linejoin="round"/>
<path d="M11.7453 48.5897C12.2646 48.2945 12.4463 47.6339 12.1511 47.1141C11.8558 46.5943 11.1955 46.4122 10.6762 46.7073C10.1568 47.0025 9.97517 47.6631 10.2704 48.1829C10.5656 48.7027 11.226 48.8848 11.7453 48.5897Z" fill="white" stroke="#5A39AD" stroke-width="0.295796" stroke-linecap="round" stroke-linejoin="round"/>
<path d="M40.3508 43.0329C40.3866 43.0133 40.4221 42.9931 40.4572 42.9723C41.2801 42.4769 41.8724 41.6745 42.1039 40.7418C42.3354 39.809 42.1871 38.8223 41.6916 37.9986C41.1961 37.175 40.3939 36.5819 39.4617 36.3498C38.5294 36.1177 37.5433 36.2656 36.7204 36.761C36.6866 36.784 36.6531 36.8075 36.6201 36.8316L40.3508 43.0329Z" fill="white" stroke="white" stroke-width="0.624701" stroke-linecap="round" stroke-linejoin="round"/>
<path d="M39.0082 38.3311C38.7028 38.8446 38.8714 39.5089 39.3847 39.8148C39.8981 40.1206 40.5619 39.9523 40.8674 39.4387C41.1728 38.9251 41.0042 38.2608 40.4908 37.955C39.9774 37.6491 39.3136 37.8175 39.0082 38.3311Z" stroke="#5939AD" stroke-width="0.295796" stroke-linecap="round" stroke-linejoin="round"/>
<defs>
<linearGradient id="paint0_linear_836_2" x1="19.6657" y1="27.6485" x2="33.7576" y2="69.3309" gradientUnits="userSpaceOnUse">
<stop offset="0.291667" stop-color="#6332A9"/>
<stop offset="1" stop-color="#126FCC"/>
</linearGradient>
<linearGradient id="paint1_linear_836_2" x1="20.4307" y1="40.6742" x2="21.5036" y2="43.8477" gradientUnits="userSpaceOnUse">
<stop stop-color="white"/>
<stop offset="1" stop-color="#4B44B3"/>
</linearGradient>
<linearGradient id="paint2_linear_836_2" x1="26.692" y1="38.5573" x2="27.7649" y2="41.7308" gradientUnits="userSpaceOnUse">
<stop stop-color="white"/>
<stop offset="1" stop-color="#4846B5"/>
</linearGradient>
</defs>
</svg>
