<svg width="691" height="411" viewBox="0 0 691 411" fill="none" xmlns="http://www.w3.org/2000/svg">
<path d="M330.31 388.984C331.971 388.984 333.311 389.63 334.331 390.922C335.359 392.214 335.873 394.108 335.873 396.604C335.873 398.274 335.631 399.68 335.148 400.823C334.665 401.957 333.997 402.813 333.144 403.394C332.292 403.974 331.312 404.264 330.204 404.264C329.492 404.264 328.881 404.176 328.372 404C327.862 403.815 327.427 403.583 327.066 403.301C326.706 403.011 326.394 402.704 326.13 402.378H325.919C325.99 402.73 326.042 403.09 326.078 403.459C326.113 403.829 326.13 404.189 326.13 404.541V410.486H322.109V389.261H325.379L325.946 391.172H326.13C326.394 390.777 326.715 390.412 327.093 390.078C327.471 389.744 327.923 389.48 328.451 389.287C328.987 389.085 329.606 388.984 330.31 388.984ZM329.018 392.201C328.314 392.201 327.756 392.346 327.343 392.636C326.93 392.926 326.627 393.361 326.434 393.941C326.249 394.521 326.148 395.255 326.13 396.143V396.578C326.13 397.527 326.218 398.331 326.394 398.99C326.579 399.649 326.882 400.15 327.304 400.493C327.734 400.836 328.323 401.007 329.07 401.007C329.686 401.007 330.191 400.836 330.586 400.493C330.982 400.15 331.276 399.649 331.47 398.99C331.672 398.322 331.773 397.509 331.773 396.551C331.773 395.11 331.549 394.024 331.101 393.295C330.652 392.565 329.958 392.201 329.018 392.201ZM352.59 396.604C352.59 397.834 352.423 398.924 352.089 399.874C351.764 400.823 351.285 401.627 350.652 402.286C350.028 402.937 349.272 403.429 348.384 403.763C347.505 404.097 346.512 404.264 345.405 404.264C344.368 404.264 343.414 404.097 342.544 403.763C341.683 403.429 340.931 402.937 340.29 402.286C339.657 401.627 339.165 400.823 338.813 399.874C338.47 398.924 338.299 397.834 338.299 396.604C338.299 394.969 338.589 393.585 339.169 392.451C339.749 391.317 340.575 390.456 341.647 389.867C342.72 389.278 343.999 388.984 345.484 388.984C346.864 388.984 348.085 389.278 349.149 389.867C350.221 390.456 351.061 391.317 351.667 392.451C352.282 393.585 352.59 394.969 352.59 396.604ZM342.399 396.604C342.399 397.571 342.504 398.384 342.715 399.043C342.926 399.702 343.256 400.199 343.704 400.533C344.152 400.867 344.737 401.034 345.458 401.034C346.169 401.034 346.745 400.867 347.185 400.533C347.633 400.199 347.958 399.702 348.16 399.043C348.371 398.384 348.477 397.571 348.477 396.604C348.477 395.628 348.371 394.82 348.16 394.178C347.958 393.528 347.633 393.04 347.185 392.715C346.736 392.39 346.152 392.227 345.431 392.227C344.368 392.227 343.594 392.592 343.111 393.321C342.636 394.051 342.399 395.145 342.399 396.604ZM368.028 404L366.894 398.845C366.833 398.538 366.731 398.085 366.591 397.487C366.45 396.881 366.296 396.235 366.129 395.549C365.971 394.855 365.822 394.213 365.681 393.625C365.549 393.036 365.453 392.605 365.391 392.333H365.272C365.211 392.605 365.114 393.036 364.982 393.625C364.851 394.213 364.701 394.855 364.534 395.549C364.376 396.244 364.227 396.898 364.086 397.514C363.945 398.12 363.84 398.582 363.77 398.898L362.583 404H358.259L354.066 389.261H358.074L359.775 395.787C359.889 396.244 359.999 396.789 360.104 397.421C360.21 398.045 360.302 398.652 360.381 399.241C360.469 399.821 360.535 400.282 360.579 400.625H360.685C360.702 400.37 360.737 400.032 360.79 399.61C360.852 399.188 360.917 398.753 360.988 398.305C361.067 397.848 361.137 397.439 361.199 397.079C361.269 396.709 361.322 396.459 361.357 396.327L363.176 389.261H367.606L369.333 396.327C369.395 396.582 369.474 396.986 369.57 397.54C369.676 398.094 369.768 398.665 369.847 399.254C369.926 399.834 369.97 400.291 369.979 400.625H370.084C370.12 400.326 370.181 399.882 370.269 399.293C370.357 398.705 370.458 398.089 370.572 397.448C370.695 396.797 370.818 396.244 370.941 395.787L372.708 389.261H376.65L372.405 404H368.028ZM385.114 388.984C386.476 388.984 387.649 389.248 388.634 389.775C389.618 390.293 390.378 391.049 390.915 392.042C391.451 393.036 391.719 394.249 391.719 395.681V397.632H382.213C382.257 398.766 382.596 399.658 383.229 400.309C383.87 400.95 384.758 401.271 385.892 401.271C386.832 401.271 387.693 401.174 388.476 400.981C389.258 400.788 390.062 400.498 390.888 400.111V403.222C390.159 403.583 389.394 403.846 388.594 404.013C387.803 404.18 386.841 404.264 385.707 404.264C384.23 404.264 382.921 403.991 381.778 403.446C380.645 402.901 379.752 402.071 379.102 400.955C378.46 399.838 378.14 398.432 378.14 396.736C378.14 395.013 378.43 393.581 379.01 392.438C379.599 391.287 380.416 390.425 381.462 389.854C382.508 389.274 383.725 388.984 385.114 388.984ZM385.14 391.845C384.358 391.845 383.708 392.095 383.189 392.596C382.679 393.097 382.385 393.884 382.306 394.956H387.948C387.939 394.358 387.83 393.827 387.619 393.361C387.417 392.895 387.109 392.526 386.696 392.253C386.292 391.981 385.773 391.845 385.14 391.845ZM403.215 388.984C403.417 388.984 403.65 388.997 403.914 389.023C404.186 389.041 404.406 389.067 404.573 389.103L404.27 392.873C404.138 392.829 403.949 392.798 403.703 392.781C403.465 392.754 403.259 392.741 403.083 392.741C402.564 392.741 402.059 392.807 401.567 392.939C401.083 393.071 400.648 393.286 400.262 393.585C399.875 393.875 399.567 394.262 399.339 394.745C399.119 395.22 399.009 395.804 399.009 396.499V404H394.988V389.261H398.034L398.627 391.739H398.825C399.115 391.238 399.475 390.781 399.906 390.368C400.345 389.946 400.842 389.612 401.396 389.366C401.958 389.111 402.564 388.984 403.215 388.984ZM413.327 388.984C414.689 388.984 415.862 389.248 416.847 389.775C417.831 390.293 418.591 391.049 419.127 392.042C419.664 393.036 419.932 394.249 419.932 395.681V397.632H410.426C410.47 398.766 410.809 399.658 411.441 400.309C412.083 400.95 412.971 401.271 414.104 401.271C415.045 401.271 415.906 401.174 416.688 400.981C417.471 400.788 418.275 400.498 419.101 400.111V403.222C418.372 403.583 417.607 403.846 416.807 404.013C416.016 404.18 415.054 404.264 413.92 404.264C412.443 404.264 411.134 403.991 409.991 403.446C408.857 402.901 407.965 402.071 407.315 400.955C406.673 399.838 406.353 398.432 406.353 396.736C406.353 395.013 406.643 393.581 407.223 392.438C407.812 391.287 408.629 390.425 409.675 389.854C410.721 389.274 411.938 388.984 413.327 388.984ZM413.353 391.845C412.571 391.845 411.92 392.095 411.402 392.596C410.892 393.097 410.598 393.884 410.519 394.956H416.161C416.152 394.358 416.042 393.827 415.832 393.361C415.629 392.895 415.322 392.526 414.909 392.253C414.504 391.981 413.986 391.845 413.353 391.845ZM427.868 404.264C426.225 404.264 424.884 403.622 423.847 402.339C422.819 401.047 422.305 399.153 422.305 396.657C422.305 394.134 422.828 392.227 423.874 390.935C424.919 389.634 426.286 388.984 427.974 388.984C428.677 388.984 429.296 389.081 429.833 389.274C430.369 389.467 430.83 389.727 431.217 390.052C431.612 390.377 431.946 390.742 432.219 391.146H432.351C432.298 390.865 432.232 390.452 432.153 389.907C432.083 389.353 432.047 388.786 432.047 388.206V383.486H436.082V404H432.997L432.219 402.088H432.047C431.792 402.493 431.472 402.862 431.085 403.196C430.707 403.521 430.254 403.78 429.727 403.974C429.2 404.167 428.58 404.264 427.868 404.264ZM429.279 401.06C430.377 401.06 431.151 400.735 431.599 400.084C432.056 399.425 432.298 398.437 432.324 397.118V396.683C432.324 395.25 432.104 394.156 431.665 393.4C431.226 392.636 430.408 392.253 429.213 392.253C428.325 392.253 427.631 392.636 427.13 393.4C426.629 394.165 426.378 395.268 426.378 396.709C426.378 398.151 426.629 399.236 427.13 399.966C427.64 400.695 428.356 401.06 429.279 401.06ZM451.322 383.486V388.259C451.322 388.812 451.304 389.362 451.269 389.907C451.243 390.452 451.208 390.874 451.164 391.172H451.322C451.708 390.566 452.236 390.052 452.904 389.63C453.572 389.199 454.438 388.984 455.501 388.984C457.153 388.984 458.494 389.63 459.522 390.922C460.55 392.214 461.064 394.108 461.064 396.604C461.064 398.283 460.827 399.693 460.353 400.836C459.878 401.97 459.214 402.827 458.362 403.407C457.509 403.978 456.521 404.264 455.396 404.264C454.314 404.264 453.462 404.07 452.838 403.684C452.214 403.297 451.708 402.862 451.322 402.378H451.045L450.373 404H447.301V383.486H451.322ZM454.209 392.201C453.506 392.201 452.948 392.346 452.535 392.636C452.122 392.926 451.818 393.361 451.625 393.941C451.44 394.521 451.339 395.255 451.322 396.143V396.578C451.322 398.01 451.533 399.109 451.955 399.874C452.376 400.629 453.146 401.007 454.262 401.007C455.088 401.007 455.743 400.625 456.226 399.86C456.718 399.096 456.964 397.993 456.964 396.551C456.964 395.11 456.718 394.024 456.226 393.295C455.734 392.565 455.062 392.201 454.209 392.201ZM462.277 389.261H466.681L469.462 397.553C469.55 397.817 469.625 398.085 469.687 398.357C469.748 398.63 469.801 398.911 469.845 399.201C469.889 399.491 469.924 399.794 469.95 400.111H470.029C470.082 399.636 470.152 399.192 470.24 398.779C470.337 398.366 470.456 397.958 470.596 397.553L473.325 389.261H477.636L471.4 405.885C471.022 406.905 470.53 407.753 469.924 408.43C469.317 409.115 468.619 409.629 467.828 409.972C467.045 410.315 466.184 410.486 465.244 410.486C464.787 410.486 464.391 410.46 464.057 410.407C463.723 410.363 463.438 410.315 463.2 410.262V407.072C463.385 407.116 463.618 407.155 463.899 407.19C464.18 407.226 464.475 407.243 464.782 407.243C465.345 407.243 465.828 407.125 466.232 406.887C466.637 406.65 466.975 406.329 467.248 405.925C467.52 405.529 467.735 405.094 467.894 404.62L468.131 403.895L462.277 389.261ZM494.406 393.176H502.052V403.169C501.042 403.503 499.991 403.771 498.901 403.974C497.812 404.167 496.577 404.264 495.197 404.264C493.281 404.264 491.655 403.886 490.319 403.13C488.983 402.374 487.968 401.258 487.273 399.781C486.579 398.305 486.232 396.49 486.232 394.336C486.232 392.315 486.619 390.566 487.392 389.089C488.174 387.613 489.312 386.47 490.807 385.662C492.31 384.853 494.142 384.449 496.304 384.449C497.324 384.449 498.33 384.559 499.323 384.778C500.316 384.998 501.217 385.284 502.026 385.635L500.668 388.905C500.079 388.606 499.407 388.355 498.651 388.153C497.895 387.951 497.104 387.85 496.278 387.85C495.091 387.85 494.059 388.123 493.18 388.667C492.31 389.212 491.633 389.977 491.149 390.961C490.675 391.937 490.438 393.088 490.438 394.416C490.438 395.672 490.609 396.789 490.952 397.764C491.294 398.731 491.835 399.491 492.573 400.045C493.312 400.59 494.274 400.862 495.46 400.862C496.041 400.862 496.528 400.836 496.924 400.783C497.328 400.722 497.706 400.66 498.058 400.599V396.578H494.406V393.176ZM514.563 388.984C514.766 388.984 514.999 388.997 515.262 389.023C515.535 389.041 515.754 389.067 515.921 389.103L515.618 392.873C515.486 392.829 515.297 392.798 515.051 392.781C514.814 392.754 514.607 392.741 514.432 392.741C513.913 392.741 513.408 392.807 512.916 392.939C512.432 393.071 511.997 393.286 511.61 393.585C511.224 393.875 510.916 394.262 510.688 394.745C510.468 395.22 510.358 395.804 510.358 396.499V404H506.337V389.261H509.382L509.976 391.739H510.173C510.463 391.238 510.824 390.781 511.254 390.368C511.694 389.946 512.19 389.612 512.744 389.366C513.307 389.111 513.913 388.984 514.563 388.984ZM524.675 388.984C526.038 388.984 527.211 389.248 528.195 389.775C529.18 390.293 529.94 391.049 530.476 392.042C531.012 393.036 531.28 394.249 531.28 395.681V397.632H521.775C521.819 398.766 522.157 399.658 522.79 400.309C523.432 400.95 524.319 401.271 525.453 401.271C526.394 401.271 527.255 401.174 528.037 400.981C528.819 400.788 529.624 400.498 530.45 400.111V403.222C529.72 403.583 528.956 403.846 528.156 404.013C527.365 404.18 526.402 404.264 525.269 404.264C523.792 404.264 522.482 403.991 521.34 403.446C520.206 402.901 519.314 402.071 518.664 400.955C518.022 399.838 517.701 398.432 517.701 396.736C517.701 395.013 517.991 393.581 518.571 392.438C519.16 391.287 519.978 390.425 521.023 389.854C522.069 389.274 523.287 388.984 524.675 388.984ZM524.702 391.845C523.919 391.845 523.269 392.095 522.75 392.596C522.241 393.097 521.946 393.884 521.867 394.956H527.51C527.501 394.358 527.391 393.827 527.18 393.361C526.978 392.895 526.67 392.526 526.257 392.253C525.853 391.981 525.334 391.845 524.702 391.845ZM538.571 383.486V387.666C538.571 388.395 538.544 389.089 538.492 389.749C538.448 390.408 538.413 390.874 538.386 391.146H538.597C538.914 390.636 539.287 390.223 539.718 389.907C540.157 389.59 540.641 389.357 541.168 389.208C541.695 389.059 542.262 388.984 542.869 388.984C543.932 388.984 544.859 389.173 545.65 389.551C546.441 389.92 547.057 390.504 547.496 391.304C547.936 392.095 548.155 393.124 548.155 394.389V404H544.134V395.391C544.134 394.336 543.941 393.541 543.554 393.005C543.167 392.469 542.57 392.201 541.761 392.201C540.953 392.201 540.315 392.39 539.85 392.768C539.384 393.137 539.054 393.686 538.861 394.416C538.667 395.136 538.571 396.02 538.571 397.065V404H534.55V383.486H538.571ZM565.821 389.261V404H562.736L562.196 402.115H561.985C561.668 402.616 561.273 403.024 560.798 403.341C560.324 403.657 559.801 403.89 559.229 404.04C558.658 404.189 558.065 404.264 557.45 404.264C556.395 404.264 555.477 404.079 554.694 403.71C553.912 403.332 553.301 402.748 552.862 401.957C552.431 401.166 552.216 400.137 552.216 398.872V389.261H556.237V397.87C556.237 398.924 556.426 399.72 556.804 400.256C557.182 400.792 557.784 401.06 558.61 401.06C559.427 401.06 560.069 400.875 560.535 400.506C561 400.128 561.326 399.579 561.51 398.858C561.704 398.129 561.8 397.241 561.8 396.195V389.261H565.821ZM580.323 399.623C580.323 400.625 580.086 401.473 579.611 402.167C579.146 402.853 578.447 403.376 577.515 403.736C576.583 404.088 575.423 404.264 574.035 404.264C573.006 404.264 572.123 404.198 571.385 404.066C570.655 403.934 569.917 403.714 569.17 403.407V400.084C569.97 400.445 570.827 400.744 571.741 400.981C572.664 401.209 573.472 401.324 574.167 401.324C574.949 401.324 575.507 401.209 575.841 400.981C576.184 400.744 576.355 400.436 576.355 400.058C576.355 399.812 576.285 399.592 576.144 399.399C576.012 399.197 575.722 398.973 575.274 398.727C574.826 398.472 574.123 398.142 573.165 397.738C572.242 397.351 571.481 396.96 570.884 396.564C570.295 396.169 569.855 395.703 569.565 395.167C569.284 394.622 569.144 393.932 569.144 393.097C569.144 391.735 569.671 390.711 570.726 390.025C571.789 389.331 573.208 388.984 574.984 388.984C575.898 388.984 576.768 389.076 577.594 389.261C578.429 389.445 579.286 389.74 580.165 390.144L578.952 393.044C578.223 392.728 577.533 392.469 576.882 392.267C576.241 392.064 575.586 391.963 574.918 391.963C574.329 391.963 573.885 392.042 573.586 392.201C573.288 392.359 573.138 392.601 573.138 392.926C573.138 393.163 573.213 393.374 573.362 393.559C573.521 393.743 573.819 393.95 574.259 394.178C574.707 394.398 575.362 394.684 576.223 395.035C577.058 395.378 577.783 395.738 578.398 396.116C579.014 396.485 579.488 396.947 579.822 397.5C580.156 398.045 580.323 398.753 580.323 399.623Z" fill="#D4D5D5"/>
<path d="M274.425 117.5V358H237.375V117.5H274.425ZM341.918 155.2C335.202 155.2 329.568 152.925 325.018 148.375C320.468 143.825 318.193 138.192 318.193 131.475C318.193 124.758 320.468 119.125 325.018 114.575C329.568 110.025 335.202 107.75 341.918 107.75C348.418 107.75 353.943 110.025 358.493 114.575C363.043 119.125 365.318 124.758 365.318 131.475C365.318 138.192 363.043 143.825 358.493 148.375C353.943 152.925 348.418 155.2 341.918 155.2ZM360.118 178.925V358H323.068V178.925H360.118ZM396.412 267.65C396.412 249.667 400.095 233.742 407.462 219.875C415.045 206.008 425.228 195.283 438.012 187.7C451.012 179.9 465.312 176 480.912 176C494.995 176 507.237 178.817 517.637 184.45C528.253 189.867 536.703 196.692 542.987 204.925V178.925H580.362V358H542.987V331.35C536.703 339.8 528.145 346.842 517.312 352.475C506.478 358.108 494.128 360.925 480.262 360.925C464.878 360.925 450.795 357.025 438.012 349.225C425.228 341.208 415.045 330.158 407.462 316.075C400.095 301.775 396.412 285.633 396.412 267.65ZM542.987 268.3C542.987 255.95 540.387 245.225 535.187 236.125C530.203 227.025 523.595 220.092 515.362 215.325C507.128 210.558 498.245 208.175 488.712 208.175C479.178 208.175 470.295 210.558 462.062 215.325C453.828 219.875 447.112 226.7 441.912 235.8C436.928 244.683 434.437 255.3 434.437 267.65C434.437 280 436.928 290.833 441.912 300.15C447.112 309.467 453.828 316.617 462.062 321.6C470.512 326.367 479.395 328.75 488.712 328.75C498.245 328.75 507.128 326.367 515.362 321.6C523.595 316.833 530.203 309.9 535.187 300.8C540.387 291.483 542.987 280.65 542.987 268.3Z" fill="#D4D5D5"/>
<path d="M90.9835 160.96C63.596 170.219 44.3565 186.458 33.5567 209.43C25.2638 227.07 23.1411 246.192 27.0005 268.495C28.2952 275.977 34.9478 296.204 38.0973 302.236C48.1813 321.549 59.8204 334.683 75.2516 344.163C95.0545 356.327 119.863 360.202 143.869 354.88C147.062 354.172 164.383 348.342 166.25 347.347L168.04 346.392L163.594 333.243L159.15 320.096L157.864 320.875C157.156 321.303 153.441 322.874 149.608 324.365C131.947 331.234 114.802 330.897 98.8718 323.37C85.1486 316.885 75.7512 306.834 68.3595 290.737L66.9586 287.686L140.752 262.738L214.545 237.79L213.953 235.031C213.628 233.513 212.277 228.578 210.95 224.065C205.718 206.27 197.928 192.648 186.088 180.594C174.816 169.118 162.848 162.042 148.041 158.096C129.409 153.132 111.478 154.031 90.9835 160.96ZM99.8492 186.334C100.991 185.949 102.138 185.581 103.269 185.237C104.399 184.893 105.511 184.572 106.584 184.285C107.656 183.999 108.687 183.744 109.654 183.53C110.622 183.316 111.525 183.143 112.34 183.018C113.163 182.891 113.983 182.779 114.8 182.683C115.617 182.586 116.431 182.504 117.241 182.437C118.051 182.369 118.859 182.316 119.662 182.278C120.465 182.239 121.264 182.216 122.059 182.206C122.855 182.196 123.646 182.201 124.433 182.22C125.22 182.239 126.003 182.271 126.781 182.319C127.56 182.366 128.334 182.427 129.104 182.503C129.873 182.578 130.637 182.667 131.396 182.77C132.155 182.874 132.91 182.99 133.659 183.121C134.408 183.252 135.151 183.396 135.889 183.554C136.627 183.712 137.36 183.883 138.087 184.068C138.813 184.254 139.535 184.452 140.25 184.664C140.965 184.876 141.674 185.102 142.376 185.34C143.079 185.579 143.775 185.83 144.464 186.094C145.154 186.359 145.837 186.637 146.513 186.928C147.19 187.219 147.858 187.524 148.521 187.841C149.183 188.157 149.839 188.486 150.487 188.829C151.134 189.171 151.774 189.525 152.407 189.893C153.039 190.261 153.665 190.641 154.282 191.034C154.899 191.427 155.509 191.832 156.11 192.249C156.711 192.667 157.305 193.096 157.889 193.539C158.474 193.981 159.05 194.435 159.618 194.901C160.185 195.368 160.744 195.847 161.294 196.337C161.844 196.828 162.385 197.33 162.917 197.845C163.449 198.359 163.972 198.885 164.485 199.423C164.998 199.961 165.502 200.511 165.996 201.073C166.491 201.634 166.976 202.207 167.45 202.791C167.925 203.376 168.389 203.971 168.843 204.579C169.298 205.186 169.741 205.805 170.175 206.434C170.608 207.064 171.031 207.705 171.443 208.358C171.856 209.01 172.258 209.673 172.649 210.347C173.039 211.022 173.419 211.708 173.787 212.404C174.124 213.04 174.476 213.739 174.825 214.457C175.173 215.175 175.518 215.913 175.84 216.626C176.162 217.34 176.461 218.031 176.717 218.655C176.973 219.278 177.186 219.835 177.337 220.281L178.438 223.53L118.683 243.732L58.9283 263.934L58.5121 262.702C58.4128 262.409 58.3075 262.016 58.1996 261.544C58.0918 261.072 57.981 260.521 57.8699 259.911C57.6476 258.691 57.4244 257.235 57.2206 255.7C57.0168 254.165 56.8334 252.552 56.6903 251.019C56.5472 249.487 56.4446 248.036 56.4044 246.825C56.38 246.092 56.3675 245.362 56.3678 244.634C56.3681 243.906 56.3812 243.18 56.4058 242.458C56.4305 241.736 56.4674 241.017 56.5161 240.301C56.5649 239.585 56.6247 238.872 56.6974 238.162C56.77 237.452 56.8553 236.746 56.9515 236.043C57.0477 235.341 57.1551 234.642 57.2747 233.947C57.3943 233.251 57.5252 232.559 57.6679 231.871C57.8105 231.184 57.9655 230.5 58.131 229.821C58.2966 229.141 58.4727 228.466 58.6609 227.795C58.849 227.124 59.0489 226.458 59.2594 225.797C59.4699 225.135 59.6918 224.477 59.9243 223.825C60.1569 223.173 60.3999 222.526 60.6543 221.884C60.9088 221.242 61.1747 220.604 61.4507 219.973C61.7268 219.341 62.0135 218.715 62.3109 218.094C62.6083 217.473 62.9157 216.859 63.2342 216.249C63.5527 215.64 63.8822 215.035 64.2216 214.438C64.5609 213.84 64.9098 213.248 65.2698 212.663C65.6297 212.077 65.9998 211.498 66.3801 210.925C66.7604 210.352 67.1512 209.785 67.5516 209.225C67.952 208.665 68.3618 208.112 68.782 207.566C69.2021 207.02 69.6327 206.481 70.0725 205.948C70.5123 205.416 70.9611 204.891 71.4202 204.373C71.8794 203.855 72.3487 203.344 72.8269 202.841C73.3051 202.338 73.7924 201.842 74.2894 201.355C74.7865 200.867 75.2929 200.387 75.8085 199.915C76.3242 199.443 76.8496 198.979 77.3836 198.524C77.9176 198.068 78.4605 197.62 79.0126 197.181C79.5647 196.742 80.126 196.311 80.6959 195.888C81.2658 195.466 81.8437 195.053 82.4312 194.649C83.0186 194.244 83.6156 193.848 84.2204 193.461C84.8252 193.075 85.4382 192.697 86.06 192.329C86.6819 191.96 87.312 191.602 87.9507 191.252C88.667 190.86 89.4839 190.453 90.377 190.039C91.2701 189.625 92.2395 189.204 93.2624 188.784C94.2852 188.363 95.3615 187.944 96.4671 187.533C97.5728 187.122 98.7078 186.72 99.8492 186.334Z" fill="url(#paint0_linear_648_193)"/>
<path d="M93.4118 220.8L93.1744 220.88C91.2079 221.545 90.1067 223.542 90.7148 225.341L93.412 233.319C94.0201 235.117 96.1072 236.036 98.0737 235.372L98.311 235.291C100.278 234.627 101.379 232.63 100.771 230.831L98.0735 222.853C97.4654 221.054 95.3783 220.135 93.4118 220.8Z" fill="#6332A9" stroke="url(#paint1_linear_648_193)" stroke-opacity="0.881432" stroke-width="2.6432" stroke-linecap="round" stroke-linejoin="round"/>
<path d="M122.005 211.133L121.767 211.214C119.801 211.878 118.699 213.875 119.308 215.674L122.005 223.652C122.613 225.451 124.7 226.37 126.666 225.705L126.904 225.625C128.87 224.96 129.972 222.963 129.363 221.164L126.666 213.186C126.058 211.388 123.971 210.469 122.005 211.133Z" fill="#6332A9" stroke="url(#paint2_linear_648_193)" stroke-opacity="0.881432" stroke-width="2.6432" stroke-linecap="round" stroke-linejoin="round"/>
<path d="M58.4805 237.375C58.2942 237.372 58.1079 237.372 57.9216 237.375C53.5365 237.482 49.3742 239.327 46.3504 242.506C43.3266 245.684 41.6889 249.934 41.7976 254.322C41.9064 258.71 43.7527 262.876 46.9303 265.903C50.1079 268.93 54.3566 270.571 58.7417 270.464C58.9278 270.45 59.1137 270.432 59.2993 270.411L58.4805 237.375Z" fill="white" stroke="#D4D5D5" stroke-width="2.6432" stroke-linecap="round" stroke-linejoin="round"/>
<path d="M53.6334 256.985C56.0049 255.637 56.8345 252.62 55.4864 250.247C54.1383 247.873 51.123 247.042 48.7515 248.389C46.38 249.737 45.5504 252.754 46.8985 255.128C48.2466 257.501 51.262 258.333 53.6334 256.985Z" fill="white" stroke="#5A39AD" stroke-width="1.25155" stroke-linecap="round" stroke-linejoin="round"/>
<path d="M184.257 231.611C184.42 231.521 184.582 231.429 184.743 231.334C188.5 229.072 191.205 225.408 192.262 221.149C193.32 216.889 192.642 212.383 190.38 208.622C188.117 204.861 184.454 202.153 180.197 201.093C175.94 200.033 171.437 200.709 167.679 202.971C167.525 203.076 167.372 203.183 167.221 203.293L184.257 231.611Z" fill="#D4D5D5" stroke="white" stroke-width="2.6432" stroke-linecap="round" stroke-linejoin="round"/>
<path d="M178.125 210.14C176.73 212.485 177.5 215.519 179.845 216.915C182.189 218.312 185.22 217.543 186.615 215.198C188.009 212.853 187.24 209.82 184.895 208.423C182.551 207.026 179.52 207.795 178.125 210.14Z" stroke="#5939AD" stroke-width="1.25155" stroke-linecap="round" stroke-linejoin="round"/>
<defs>
<linearGradient id="paint0_linear_648_193" x1="89.8011" y1="161.36" x2="154.15" y2="351.697" gradientUnits="userSpaceOnUse">
<stop offset="0.291667" stop-color="#6332A9"/>
<stop offset="1" stop-color="#126FCC"/>
</linearGradient>
<linearGradient id="paint1_linear_648_193" x1="93.2931" y1="220.84" x2="98.1924" y2="235.332" gradientUnits="userSpaceOnUse">
<stop stop-color="white"/>
<stop offset="1" stop-color="#4B44B3"/>
</linearGradient>
<linearGradient id="paint2_linear_648_193" x1="121.886" y1="211.174" x2="126.785" y2="225.665" gradientUnits="userSpaceOnUse">
<stop stop-color="white"/>
<stop offset="1" stop-color="#4846B5"/>
</linearGradient>
</defs>
</svg>
