<svg width="302" height="283" viewBox="0 0 302 283" fill="none" xmlns="http://www.w3.org/2000/svg">
<path d="M99.6678 149.698C99.6678 149.698 56.2666 38.5078 244.241 11.5457C244.241 11.5457 217.284 217.047 123.181 170.411C123.181 170.411 112.406 125.002 166.2 76.0528C166.2 76.0528 122.547 87.9006 100.614 152.285L99.6678 149.698Z" fill="url(#paint0_linear_408_14)"/>
<path d="M93.7266 188.565C93.7266 188.565 25.775 26.575 241.543 3.31353C241.543 3.31353 80.1423 -22.5441 61.1102 102.684C54.2426 147.914 93.7266 188.565 93.7266 188.565Z" fill="#F49739"/>
<path d="M47.34 220.04C51.58 220.04 54.9 221.32 57.3 223.88C59.74 226.44 60.96 229.94 60.96 234.38V254H49.2V235.94C49.2 234.14 48.7 232.74 47.7 231.74C46.7 230.74 45.34 230.24 43.62 230.24C41.9 230.24 40.54 230.74 39.54 231.74C38.54 232.74 38.04 234.14 38.04 235.94V254H26.28V235.94C26.28 234.14 25.78 232.74 24.78 231.74C23.82 230.74 22.48 230.24 20.76 230.24C19 230.24 17.62 230.74 16.62 231.74C15.62 232.74 15.12 234.14 15.12 235.94V254H3.36V220.34H15.12V224.78C16.16 223.34 17.5 222.2 19.14 221.36C20.82 220.48 22.74 220.04 24.9 220.04C27.38 220.04 29.58 220.58 31.5 221.66C33.46 222.74 35 224.26 36.12 226.22C37.32 224.38 38.9 222.9 40.86 221.78C42.82 220.62 44.98 220.04 47.34 220.04ZM65.483 237.14C65.483 233.66 66.103 230.62 67.343 228.02C68.623 225.42 70.343 223.42 72.503 222.02C74.703 220.62 77.143 219.92 79.823 219.92C82.143 219.92 84.143 220.38 85.823 221.3C87.503 222.22 88.803 223.46 89.723 225.02V220.34H101.483V254H89.723V249.32C88.803 250.88 87.483 252.12 85.763 253.04C84.083 253.96 82.103 254.42 79.823 254.42C77.143 254.42 74.703 253.72 72.503 252.32C70.343 250.92 68.623 248.92 67.343 246.32C66.103 243.68 65.483 240.62 65.483 237.14ZM89.723 237.14C89.723 234.98 89.123 233.28 87.923 232.04C86.763 230.8 85.323 230.18 83.603 230.18C81.843 230.18 80.383 230.8 79.223 232.04C78.063 233.24 77.483 234.94 77.483 237.14C77.483 239.3 78.063 241.02 79.223 242.3C80.383 243.54 81.843 244.16 83.603 244.16C85.323 244.16 86.763 243.54 87.923 242.3C89.123 241.06 89.723 239.34 89.723 237.14ZM122.524 254.42C119.484 254.42 116.764 253.92 114.364 252.92C112.004 251.88 110.124 250.48 108.724 248.72C107.364 246.92 106.604 244.9 106.444 242.66H117.844C118.004 243.74 118.504 244.58 119.344 245.18C120.184 245.78 121.224 246.08 122.464 246.08C123.424 246.08 124.184 245.88 124.744 245.48C125.304 245.08 125.584 244.56 125.584 243.92C125.584 243.08 125.124 242.46 124.204 242.06C123.284 241.66 121.764 241.22 119.644 240.74C117.244 240.26 115.244 239.72 113.644 239.12C112.044 238.52 110.644 237.54 109.444 236.18C108.284 234.82 107.704 232.98 107.704 230.66C107.704 228.66 108.244 226.86 109.324 225.26C110.404 223.62 111.984 222.32 114.064 221.36C116.184 220.4 118.724 219.92 121.684 219.92C126.084 219.92 129.544 221 132.064 223.16C134.584 225.32 136.044 228.16 136.444 231.68H125.824C125.624 230.6 125.144 229.78 124.384 229.22C123.664 228.62 122.684 228.32 121.444 228.32C120.484 228.32 119.744 228.5 119.224 228.86C118.744 229.22 118.504 229.72 118.504 230.36C118.504 231.16 118.964 231.78 119.884 232.22C120.804 232.62 122.284 233.04 124.324 233.48C126.764 234 128.784 234.58 130.384 235.22C132.024 235.86 133.444 236.9 134.644 238.34C135.884 239.74 136.504 241.66 136.504 244.1C136.504 246.06 135.924 247.82 134.764 249.38C133.644 250.94 132.024 252.18 129.904 253.1C127.824 253.98 125.364 254.42 122.524 254.42ZM164.426 220.04C168.266 220.04 171.306 221.34 173.546 223.94C175.826 226.5 176.966 229.98 176.966 234.38V254H165.206V235.94C165.206 234.02 164.706 232.52 163.706 231.44C162.706 230.32 161.366 229.76 159.686 229.76C157.926 229.76 156.546 230.32 155.546 231.44C154.546 232.52 154.046 234.02 154.046 235.94V254H142.286V209.6H154.046V225.14C155.086 223.62 156.486 222.4 158.246 221.48C160.046 220.52 162.106 220.04 164.426 220.04ZM189.359 217.22C187.279 217.22 185.599 216.66 184.319 215.54C183.079 214.38 182.459 212.94 182.459 211.22C182.459 209.46 183.079 208 184.319 206.84C185.599 205.68 187.279 205.1 189.359 205.1C191.399 205.1 193.039 205.68 194.279 206.84C195.559 208 196.199 209.46 196.199 211.22C196.199 212.94 195.559 214.38 194.279 215.54C193.039 216.66 191.399 217.22 189.359 217.22ZM195.179 220.34V254H183.419V220.34H195.179Z" fill="white"/>
<path d="M115.637 265.877C116.867 265.877 117.86 266.355 118.615 267.312C119.377 268.27 119.758 269.673 119.758 271.521C119.758 272.758 119.579 273.8 119.221 274.646C118.863 275.486 118.368 276.121 117.736 276.551C117.105 276.98 116.379 277.195 115.559 277.195C115.031 277.195 114.579 277.13 114.201 277C113.824 276.863 113.501 276.691 113.234 276.482C112.967 276.268 112.736 276.04 112.541 275.799H112.385C112.437 276.059 112.476 276.326 112.502 276.6C112.528 276.873 112.541 277.14 112.541 277.4V281.805H109.562V266.082H111.984L112.404 267.498H112.541C112.736 267.205 112.974 266.935 113.254 266.688C113.534 266.44 113.869 266.245 114.26 266.102C114.657 265.952 115.116 265.877 115.637 265.877ZM114.68 268.26C114.159 268.26 113.745 268.367 113.439 268.582C113.133 268.797 112.909 269.119 112.766 269.549C112.629 269.979 112.554 270.522 112.541 271.18V271.502C112.541 272.205 112.606 272.801 112.736 273.289C112.873 273.777 113.098 274.148 113.41 274.402C113.729 274.656 114.165 274.783 114.719 274.783C115.174 274.783 115.549 274.656 115.842 274.402C116.135 274.148 116.353 273.777 116.496 273.289C116.646 272.794 116.721 272.192 116.721 271.482C116.721 270.415 116.555 269.611 116.223 269.07C115.891 268.53 115.376 268.26 114.68 268.26ZM132.141 271.521C132.141 272.433 132.017 273.24 131.77 273.943C131.529 274.646 131.174 275.242 130.705 275.73C130.243 276.212 129.683 276.577 129.025 276.824C128.374 277.072 127.639 277.195 126.818 277.195C126.05 277.195 125.344 277.072 124.699 276.824C124.061 276.577 123.505 276.212 123.029 275.73C122.561 275.242 122.196 274.646 121.936 273.943C121.682 273.24 121.555 272.433 121.555 271.521C121.555 270.311 121.77 269.285 122.199 268.445C122.629 267.605 123.241 266.967 124.035 266.531C124.829 266.095 125.777 265.877 126.877 265.877C127.899 265.877 128.804 266.095 129.592 266.531C130.386 266.967 131.008 267.605 131.457 268.445C131.913 269.285 132.141 270.311 132.141 271.521ZM124.592 271.521C124.592 272.238 124.67 272.84 124.826 273.328C124.982 273.816 125.227 274.184 125.559 274.432C125.891 274.679 126.324 274.803 126.857 274.803C127.385 274.803 127.811 274.679 128.137 274.432C128.469 274.184 128.71 273.816 128.859 273.328C129.016 272.84 129.094 272.238 129.094 271.521C129.094 270.799 129.016 270.2 128.859 269.725C128.71 269.243 128.469 268.882 128.137 268.641C127.805 268.4 127.372 268.279 126.838 268.279C126.05 268.279 125.477 268.549 125.119 269.09C124.768 269.63 124.592 270.441 124.592 271.521ZM143.576 277L142.736 273.182C142.691 272.954 142.616 272.618 142.512 272.176C142.408 271.727 142.294 271.248 142.17 270.74C142.053 270.226 141.942 269.751 141.838 269.314C141.74 268.878 141.669 268.559 141.623 268.357H141.535C141.49 268.559 141.418 268.878 141.32 269.314C141.223 269.751 141.112 270.226 140.988 270.74C140.871 271.255 140.76 271.74 140.656 272.195C140.552 272.645 140.474 272.986 140.422 273.221L139.543 277H136.34L133.234 266.082H136.203L137.463 270.916C137.548 271.255 137.629 271.658 137.707 272.127C137.785 272.589 137.854 273.038 137.912 273.475C137.977 273.904 138.026 274.246 138.059 274.5H138.137C138.15 274.311 138.176 274.061 138.215 273.748C138.26 273.436 138.309 273.113 138.361 272.781C138.42 272.443 138.472 272.14 138.518 271.873C138.57 271.6 138.609 271.414 138.635 271.316L139.982 266.082H143.264L144.543 271.316C144.589 271.505 144.647 271.805 144.719 272.215C144.797 272.625 144.865 273.048 144.924 273.484C144.982 273.914 145.015 274.253 145.021 274.5H145.1C145.126 274.279 145.171 273.95 145.236 273.514C145.301 273.077 145.376 272.622 145.461 272.146C145.552 271.665 145.643 271.255 145.734 270.916L147.043 266.082H149.963L146.818 277H143.576ZM156.232 265.877C157.242 265.877 158.111 266.072 158.84 266.463C159.569 266.847 160.132 267.407 160.529 268.143C160.926 268.878 161.125 269.777 161.125 270.838V272.283H154.084C154.117 273.123 154.367 273.784 154.836 274.266C155.311 274.741 155.969 274.979 156.809 274.979C157.505 274.979 158.143 274.907 158.723 274.764C159.302 274.62 159.898 274.406 160.51 274.119V276.424C159.969 276.691 159.403 276.886 158.811 277.01C158.225 277.133 157.512 277.195 156.672 277.195C155.578 277.195 154.608 276.993 153.762 276.59C152.922 276.186 152.261 275.571 151.779 274.744C151.304 273.917 151.066 272.876 151.066 271.619C151.066 270.343 151.281 269.282 151.711 268.436C152.147 267.583 152.753 266.945 153.527 266.521C154.302 266.092 155.204 265.877 156.232 265.877ZM156.252 267.996C155.673 267.996 155.191 268.182 154.807 268.553C154.429 268.924 154.211 269.507 154.152 270.301H158.332C158.326 269.858 158.244 269.464 158.088 269.119C157.938 268.774 157.71 268.501 157.404 268.299C157.105 268.097 156.721 267.996 156.252 267.996ZM169.641 265.877C169.79 265.877 169.963 265.887 170.158 265.906C170.36 265.919 170.523 265.939 170.646 265.965L170.422 268.758C170.324 268.725 170.184 268.702 170.002 268.689C169.826 268.67 169.673 268.66 169.543 268.66C169.159 268.66 168.785 268.709 168.42 268.807C168.062 268.904 167.74 269.064 167.453 269.285C167.167 269.5 166.939 269.786 166.77 270.145C166.607 270.496 166.525 270.929 166.525 271.443V277H163.547V266.082H165.803L166.242 267.918H166.389C166.604 267.547 166.87 267.208 167.189 266.902C167.515 266.59 167.883 266.342 168.293 266.16C168.71 265.971 169.159 265.877 169.641 265.877ZM177.131 265.877C178.14 265.877 179.009 266.072 179.738 266.463C180.467 266.847 181.031 267.407 181.428 268.143C181.825 268.878 182.023 269.777 182.023 270.838V272.283H174.982C175.015 273.123 175.266 273.784 175.734 274.266C176.21 274.741 176.867 274.979 177.707 274.979C178.404 274.979 179.042 274.907 179.621 274.764C180.201 274.62 180.796 274.406 181.408 274.119V276.424C180.868 276.691 180.301 276.886 179.709 277.01C179.123 277.133 178.41 277.195 177.57 277.195C176.477 277.195 175.507 276.993 174.66 276.59C173.82 276.186 173.16 275.571 172.678 274.744C172.202 273.917 171.965 272.876 171.965 271.619C171.965 270.343 172.18 269.282 172.609 268.436C173.046 267.583 173.651 266.945 174.426 266.521C175.201 266.092 176.102 265.877 177.131 265.877ZM177.15 267.996C176.571 267.996 176.089 268.182 175.705 268.553C175.327 268.924 175.109 269.507 175.051 270.301H179.23C179.224 269.858 179.143 269.464 178.986 269.119C178.837 268.774 178.609 268.501 178.303 268.299C178.003 268.097 177.619 267.996 177.15 267.996ZM187.902 277.195C186.685 277.195 185.692 276.72 184.924 275.77C184.162 274.812 183.781 273.41 183.781 271.561C183.781 269.692 184.169 268.279 184.943 267.322C185.718 266.359 186.73 265.877 187.98 265.877C188.501 265.877 188.96 265.949 189.357 266.092C189.755 266.235 190.096 266.427 190.383 266.668C190.676 266.909 190.923 267.179 191.125 267.479H191.223C191.184 267.27 191.135 266.964 191.076 266.561C191.024 266.15 190.998 265.73 190.998 265.301V261.805H193.986V277H191.701L191.125 275.584H190.998C190.809 275.883 190.572 276.157 190.285 276.404C190.005 276.645 189.67 276.837 189.279 276.98C188.889 277.124 188.43 277.195 187.902 277.195ZM188.947 274.822C189.761 274.822 190.334 274.581 190.666 274.1C191.005 273.611 191.184 272.879 191.203 271.902V271.58C191.203 270.519 191.04 269.708 190.715 269.148C190.389 268.582 189.784 268.299 188.898 268.299C188.241 268.299 187.727 268.582 187.355 269.148C186.984 269.715 186.799 270.532 186.799 271.6C186.799 272.667 186.984 273.471 187.355 274.012C187.733 274.552 188.264 274.822 188.947 274.822ZM205.275 261.805V265.34C205.275 265.75 205.262 266.157 205.236 266.561C205.217 266.964 205.191 267.277 205.158 267.498H205.275C205.562 267.049 205.952 266.668 206.447 266.355C206.942 266.036 207.583 265.877 208.371 265.877C209.595 265.877 210.588 266.355 211.35 267.312C212.111 268.27 212.492 269.673 212.492 271.521C212.492 272.765 212.316 273.81 211.965 274.656C211.613 275.496 211.122 276.131 210.49 276.561C209.859 276.984 209.126 277.195 208.293 277.195C207.492 277.195 206.861 277.052 206.398 276.766C205.936 276.479 205.562 276.157 205.275 275.799H205.07L204.572 277H202.297V261.805H205.275ZM207.414 268.26C206.893 268.26 206.48 268.367 206.174 268.582C205.868 268.797 205.643 269.119 205.5 269.549C205.363 269.979 205.288 270.522 205.275 271.18V271.502C205.275 272.563 205.432 273.377 205.744 273.943C206.057 274.503 206.626 274.783 207.453 274.783C208.065 274.783 208.55 274.5 208.908 273.934C209.273 273.367 209.455 272.55 209.455 271.482C209.455 270.415 209.273 269.611 208.908 269.07C208.544 268.53 208.046 268.26 207.414 268.26ZM213.391 266.082H216.652L218.713 272.225C218.778 272.42 218.833 272.618 218.879 272.82C218.924 273.022 218.964 273.23 218.996 273.445C219.029 273.66 219.055 273.885 219.074 274.119H219.133C219.172 273.768 219.224 273.439 219.289 273.133C219.361 272.827 219.449 272.524 219.553 272.225L221.574 266.082H224.768L220.148 278.396C219.868 279.152 219.504 279.78 219.055 280.281C218.605 280.789 218.088 281.17 217.502 281.424C216.923 281.678 216.285 281.805 215.588 281.805C215.249 281.805 214.956 281.785 214.709 281.746C214.462 281.714 214.25 281.678 214.074 281.639V279.275C214.211 279.308 214.383 279.337 214.592 279.363C214.8 279.389 215.018 279.402 215.246 279.402C215.663 279.402 216.021 279.314 216.32 279.139C216.62 278.963 216.87 278.725 217.072 278.426C217.274 278.133 217.434 277.811 217.551 277.459L217.727 276.922L213.391 266.082ZM237.189 268.982H242.854V276.385C242.105 276.632 241.327 276.831 240.52 276.98C239.712 277.124 238.798 277.195 237.775 277.195C236.356 277.195 235.152 276.915 234.162 276.355C233.173 275.796 232.421 274.969 231.906 273.875C231.392 272.781 231.135 271.437 231.135 269.842C231.135 268.344 231.421 267.049 231.994 265.955C232.574 264.861 233.417 264.015 234.523 263.416C235.637 262.817 236.994 262.518 238.596 262.518C239.351 262.518 240.096 262.599 240.832 262.762C241.568 262.924 242.235 263.136 242.834 263.396L241.828 265.818C241.392 265.597 240.894 265.411 240.334 265.262C239.774 265.112 239.188 265.037 238.576 265.037C237.697 265.037 236.932 265.239 236.281 265.643C235.637 266.046 235.135 266.613 234.777 267.342C234.426 268.064 234.25 268.917 234.25 269.9C234.25 270.831 234.377 271.658 234.631 272.381C234.885 273.097 235.285 273.66 235.832 274.07C236.379 274.474 237.092 274.676 237.971 274.676C238.4 274.676 238.762 274.656 239.055 274.617C239.354 274.572 239.634 274.526 239.895 274.48V271.502H237.189V268.982ZM252.121 265.877C252.271 265.877 252.443 265.887 252.639 265.906C252.84 265.919 253.003 265.939 253.127 265.965L252.902 268.758C252.805 268.725 252.665 268.702 252.482 268.689C252.307 268.67 252.154 268.66 252.023 268.66C251.639 268.66 251.265 268.709 250.9 268.807C250.542 268.904 250.22 269.064 249.934 269.285C249.647 269.5 249.419 269.786 249.25 270.145C249.087 270.496 249.006 270.929 249.006 271.443V277H246.027V266.082H248.283L248.723 267.918H248.869C249.084 267.547 249.351 267.208 249.67 266.902C249.995 266.59 250.363 266.342 250.773 266.16C251.19 265.971 251.639 265.877 252.121 265.877ZM259.611 265.877C260.62 265.877 261.49 266.072 262.219 266.463C262.948 266.847 263.511 267.407 263.908 268.143C264.305 268.878 264.504 269.777 264.504 270.838V272.283H257.463C257.495 273.123 257.746 273.784 258.215 274.266C258.69 274.741 259.348 274.979 260.188 274.979C260.884 274.979 261.522 274.907 262.102 274.764C262.681 274.62 263.277 274.406 263.889 274.119V276.424C263.348 276.691 262.782 276.886 262.189 277.01C261.604 277.133 260.891 277.195 260.051 277.195C258.957 277.195 257.987 276.993 257.141 276.59C256.301 276.186 255.64 275.571 255.158 274.744C254.683 273.917 254.445 272.876 254.445 271.619C254.445 270.343 254.66 269.282 255.09 268.436C255.526 267.583 256.132 266.945 256.906 266.521C257.681 266.092 258.583 265.877 259.611 265.877ZM259.631 267.996C259.051 267.996 258.57 268.182 258.186 268.553C257.808 268.924 257.59 269.507 257.531 270.301H261.711C261.704 269.858 261.623 269.464 261.467 269.119C261.317 268.774 261.089 268.501 260.783 268.299C260.484 268.097 260.1 267.996 259.631 267.996ZM269.904 261.805V264.9C269.904 265.441 269.885 265.955 269.846 266.443C269.813 266.932 269.787 267.277 269.768 267.479H269.924C270.158 267.101 270.435 266.795 270.754 266.561C271.079 266.326 271.438 266.154 271.828 266.043C272.219 265.932 272.639 265.877 273.088 265.877C273.876 265.877 274.562 266.017 275.148 266.297C275.734 266.57 276.19 267.003 276.516 267.596C276.841 268.182 277.004 268.943 277.004 269.881V277H274.025V270.623C274.025 269.842 273.882 269.253 273.596 268.855C273.309 268.458 272.867 268.26 272.268 268.26C271.669 268.26 271.197 268.4 270.852 268.68C270.507 268.953 270.262 269.36 270.119 269.9C269.976 270.434 269.904 271.089 269.904 271.863V277H266.926V261.805H269.904ZM290.09 266.082V277H287.805L287.404 275.604H287.248C287.014 275.975 286.721 276.277 286.369 276.512C286.018 276.746 285.63 276.919 285.207 277.029C284.784 277.14 284.344 277.195 283.889 277.195C283.107 277.195 282.427 277.059 281.848 276.785C281.268 276.505 280.816 276.072 280.49 275.486C280.171 274.9 280.012 274.139 280.012 273.201V266.082H282.99V272.459C282.99 273.24 283.13 273.829 283.41 274.227C283.69 274.624 284.136 274.822 284.748 274.822C285.354 274.822 285.829 274.686 286.174 274.412C286.519 274.132 286.76 273.725 286.896 273.191C287.04 272.651 287.111 271.993 287.111 271.219V266.082H290.09ZM300.832 273.758C300.832 274.5 300.656 275.128 300.305 275.643C299.96 276.15 299.442 276.538 298.752 276.805C298.062 277.065 297.202 277.195 296.174 277.195C295.412 277.195 294.758 277.146 294.211 277.049C293.671 276.951 293.124 276.788 292.57 276.561V274.1C293.163 274.367 293.798 274.588 294.475 274.764C295.158 274.933 295.757 275.018 296.271 275.018C296.851 275.018 297.264 274.933 297.512 274.764C297.766 274.588 297.893 274.36 297.893 274.08C297.893 273.898 297.84 273.735 297.736 273.592C297.639 273.442 297.424 273.276 297.092 273.094C296.76 272.905 296.239 272.661 295.529 272.361C294.846 272.075 294.283 271.785 293.84 271.492C293.404 271.199 293.078 270.854 292.863 270.457C292.655 270.053 292.551 269.542 292.551 268.924C292.551 267.915 292.941 267.156 293.723 266.648C294.51 266.134 295.562 265.877 296.877 265.877C297.554 265.877 298.199 265.945 298.811 266.082C299.429 266.219 300.064 266.437 300.715 266.736L299.816 268.885C299.276 268.65 298.765 268.458 298.283 268.309C297.808 268.159 297.323 268.084 296.828 268.084C296.392 268.084 296.063 268.143 295.842 268.26C295.62 268.377 295.51 268.556 295.51 268.797C295.51 268.973 295.565 269.129 295.676 269.266C295.793 269.402 296.014 269.555 296.34 269.725C296.672 269.887 297.157 270.099 297.795 270.359C298.413 270.613 298.951 270.88 299.406 271.16C299.862 271.434 300.214 271.775 300.461 272.186C300.708 272.589 300.832 273.113 300.832 273.758Z" fill="white"/>
<defs>
<linearGradient id="paint0_linear_408_14" x1="69.8373" y1="427.753" x2="162.32" y2="49.2355" gradientUnits="userSpaceOnUse">
<stop offset="0.5094" stop-color="#64B045"/>
<stop offset="0.5964" stop-color="#6CB246"/>
<stop offset="0.7078" stop-color="#80B947"/>
<stop offset="0.8323" stop-color="#9EC449"/>
<stop offset="0.9654" stop-color="#C1D34E"/>
<stop offset="1" stop-color="#CBD84F"/>
</linearGradient>
</defs>
</svg>
