<svg width="453" height="270" viewBox="0 0 453 270" fill="none" xmlns="http://www.w3.org/2000/svg">
<path d="M215.818 255.64C216.91 255.64 217.791 256.064 218.461 256.914C219.137 257.763 219.475 259.008 219.475 260.649C219.475 261.747 219.316 262.671 218.999 263.422C218.681 264.168 218.242 264.731 217.681 265.112C217.121 265.493 216.477 265.684 215.749 265.684C215.281 265.684 214.879 265.626 214.544 265.511C214.209 265.389 213.923 265.236 213.686 265.051C213.449 264.861 213.244 264.659 213.071 264.445H212.932C212.978 264.676 213.013 264.913 213.036 265.155C213.059 265.398 213.071 265.635 213.071 265.866V269.775H210.428V255.822H212.577L212.95 257.078H213.071C213.244 256.818 213.455 256.579 213.704 256.359C213.952 256.14 214.25 255.966 214.596 255.839C214.949 255.706 215.356 255.64 215.818 255.64ZM214.969 257.754C214.507 257.754 214.14 257.85 213.868 258.04C213.597 258.231 213.397 258.517 213.27 258.898C213.149 259.28 213.082 259.762 213.071 260.346V260.632C213.071 261.256 213.129 261.784 213.244 262.218C213.366 262.651 213.565 262.98 213.842 263.206C214.125 263.431 214.512 263.544 215.003 263.544C215.408 263.544 215.74 263.431 216 263.206C216.26 262.98 216.454 262.651 216.581 262.218C216.714 261.778 216.78 261.244 216.78 260.614C216.78 259.667 216.633 258.953 216.338 258.474C216.043 257.994 215.587 257.754 214.969 257.754ZM230.464 260.649C230.464 261.458 230.355 262.174 230.135 262.798C229.921 263.422 229.606 263.951 229.19 264.384C228.78 264.812 228.283 265.135 227.7 265.355C227.122 265.574 226.469 265.684 225.741 265.684C225.059 265.684 224.433 265.574 223.861 265.355C223.294 265.135 222.8 264.812 222.379 264.384C221.963 263.951 221.639 263.422 221.408 262.798C221.183 262.174 221.07 261.458 221.07 260.649C221.07 259.574 221.261 258.664 221.642 257.919C222.023 257.174 222.566 256.608 223.271 256.22C223.976 255.833 224.817 255.64 225.793 255.64C226.7 255.64 227.503 255.833 228.202 256.22C228.907 256.608 229.459 257.174 229.858 257.919C230.262 258.664 230.464 259.574 230.464 260.649ZM223.765 260.649C223.765 261.284 223.835 261.819 223.973 262.252C224.112 262.686 224.329 263.012 224.623 263.232C224.918 263.451 225.302 263.561 225.776 263.561C226.244 263.561 226.622 263.451 226.911 263.232C227.206 263.012 227.42 262.686 227.552 262.252C227.691 261.819 227.76 261.284 227.76 260.649C227.76 260.008 227.691 259.476 227.552 259.054C227.42 258.627 227.206 258.306 226.911 258.092C226.616 257.879 226.232 257.772 225.758 257.772C225.059 257.772 224.551 258.011 224.233 258.491C223.921 258.971 223.765 259.69 223.765 260.649ZM240.613 265.511L239.867 262.122C239.827 261.92 239.761 261.622 239.668 261.23C239.576 260.831 239.475 260.406 239.365 259.956C239.261 259.499 239.163 259.077 239.07 258.69C238.983 258.303 238.92 258.02 238.879 257.841H238.801C238.761 258.02 238.697 258.303 238.611 258.69C238.524 259.077 238.426 259.499 238.316 259.956C238.212 260.412 238.114 260.843 238.021 261.247C237.929 261.646 237.86 261.949 237.813 262.157L237.033 265.511H234.191L231.435 255.822H234.07L235.188 260.112C235.263 260.412 235.335 260.77 235.404 261.186C235.474 261.596 235.534 261.995 235.586 262.382C235.644 262.764 235.687 263.067 235.716 263.292H235.786C235.797 263.125 235.82 262.902 235.855 262.625C235.895 262.348 235.939 262.062 235.985 261.767C236.037 261.466 236.083 261.198 236.124 260.961C236.17 260.718 236.204 260.554 236.228 260.467L237.423 255.822H240.335L241.471 260.467C241.511 260.635 241.563 260.9 241.627 261.264C241.696 261.628 241.757 262.004 241.809 262.391C241.861 262.772 241.89 263.073 241.895 263.292H241.965C241.988 263.096 242.028 262.804 242.086 262.417C242.144 262.03 242.21 261.625 242.285 261.204C242.366 260.776 242.447 260.412 242.528 260.112L243.689 255.822H246.281L243.49 265.511H240.613ZM251.844 255.64C252.74 255.64 253.511 255.813 254.158 256.16C254.805 256.501 255.305 256.998 255.658 257.65C256.01 258.303 256.186 259.101 256.186 260.042V261.325H249.938C249.967 262.07 250.189 262.657 250.605 263.084C251.027 263.506 251.61 263.717 252.356 263.717C252.974 263.717 253.54 263.653 254.054 263.526C254.568 263.399 255.097 263.208 255.64 262.954V264.999C255.161 265.236 254.658 265.41 254.132 265.519C253.612 265.629 252.98 265.684 252.234 265.684C251.264 265.684 250.403 265.505 249.652 265.147C248.906 264.789 248.32 264.243 247.892 263.509C247.471 262.775 247.26 261.851 247.26 260.736C247.26 259.603 247.45 258.661 247.832 257.91C248.219 257.154 248.756 256.587 249.444 256.212C250.131 255.83 250.931 255.64 251.844 255.64ZM251.862 257.52C251.347 257.52 250.92 257.685 250.579 258.014C250.244 258.344 250.05 258.861 249.998 259.566H253.708C253.702 259.173 253.63 258.823 253.491 258.517C253.358 258.211 253.156 257.968 252.884 257.789C252.619 257.61 252.278 257.52 251.862 257.52ZM263.743 255.64C263.876 255.64 264.029 255.648 264.203 255.666C264.382 255.677 264.526 255.695 264.636 255.718L264.437 258.196C264.35 258.167 264.226 258.147 264.064 258.136C263.908 258.118 263.772 258.11 263.657 258.11C263.316 258.11 262.984 258.153 262.66 258.24C262.342 258.326 262.056 258.468 261.802 258.664C261.548 258.855 261.346 259.109 261.195 259.427C261.051 259.739 260.979 260.123 260.979 260.58V265.511H258.335V255.822H260.337L260.727 257.451H260.857C261.048 257.122 261.285 256.821 261.568 256.55C261.857 256.272 262.183 256.053 262.547 255.891C262.917 255.724 263.316 255.64 263.743 255.64ZM270.39 255.64C271.286 255.64 272.057 255.813 272.704 256.16C273.351 256.501 273.851 256.998 274.204 257.65C274.556 258.303 274.732 259.101 274.732 260.042V261.325H268.484C268.513 262.07 268.735 262.657 269.151 263.084C269.573 263.506 270.156 263.717 270.902 263.717C271.52 263.717 272.086 263.653 272.6 263.526C273.115 263.399 273.643 263.208 274.186 262.954V264.999C273.707 265.236 273.204 265.41 272.678 265.519C272.158 265.629 271.526 265.684 270.78 265.684C269.81 265.684 268.949 265.505 268.198 265.147C267.453 264.789 266.866 264.243 266.439 263.509C266.017 262.775 265.806 261.851 265.806 260.736C265.806 259.603 265.997 258.661 266.378 257.91C266.765 257.154 267.302 256.587 267.99 256.212C268.677 255.83 269.478 255.64 270.39 255.64ZM270.408 257.52C269.894 257.52 269.466 257.685 269.125 258.014C268.79 258.344 268.596 258.861 268.544 259.566H272.254C272.248 259.173 272.176 258.823 272.037 258.517C271.904 258.211 271.702 257.968 271.43 257.789C271.165 257.61 270.824 257.52 270.408 257.52ZM279.949 265.684C278.869 265.684 277.988 265.262 277.306 264.419C276.63 263.57 276.292 262.324 276.292 260.684C276.292 259.025 276.636 257.772 277.324 256.922C278.011 256.067 278.91 255.64 280.019 255.64C280.481 255.64 280.888 255.703 281.241 255.83C281.593 255.958 281.897 256.128 282.151 256.342C282.411 256.556 282.63 256.795 282.809 257.061H282.896C282.861 256.876 282.818 256.605 282.766 256.246C282.72 255.882 282.697 255.51 282.697 255.128V252.026H285.349V265.511H283.321L282.809 264.254H282.697C282.529 264.52 282.318 264.763 282.064 264.982C281.816 265.196 281.518 265.366 281.171 265.493C280.825 265.621 280.417 265.684 279.949 265.684ZM280.877 263.578C281.599 263.578 282.107 263.364 282.402 262.937C282.702 262.504 282.861 261.854 282.879 260.987V260.701C282.879 259.759 282.734 259.04 282.445 258.543C282.157 258.04 281.619 257.789 280.833 257.789C280.25 257.789 279.793 258.04 279.464 258.543C279.135 259.046 278.97 259.771 278.97 260.718C278.97 261.666 279.135 262.379 279.464 262.859C279.799 263.338 280.27 263.578 280.877 263.578ZM295.367 252.026V255.163C295.367 255.527 295.355 255.888 295.332 256.246C295.315 256.605 295.292 256.882 295.263 257.078H295.367C295.621 256.68 295.968 256.342 296.407 256.064C296.846 255.781 297.415 255.64 298.114 255.64C299.2 255.64 300.082 256.064 300.757 256.914C301.433 257.763 301.771 259.008 301.771 260.649C301.771 261.752 301.615 262.68 301.303 263.431C300.991 264.176 300.555 264.739 299.995 265.121C299.434 265.496 298.784 265.684 298.045 265.684C297.334 265.684 296.774 265.557 296.364 265.303C295.953 265.049 295.621 264.763 295.367 264.445H295.185L294.743 265.511H292.724V252.026H295.367ZM297.265 257.754C296.803 257.754 296.436 257.85 296.164 258.04C295.893 258.231 295.693 258.517 295.566 258.898C295.445 259.28 295.379 259.762 295.367 260.346V260.632C295.367 261.573 295.506 262.296 295.783 262.798C296.06 263.295 296.566 263.544 297.3 263.544C297.843 263.544 298.273 263.292 298.591 262.79C298.914 262.287 299.076 261.562 299.076 260.614C299.076 259.667 298.914 258.953 298.591 258.474C298.267 257.994 297.825 257.754 297.265 257.754ZM302.569 255.822H305.463L307.292 261.273C307.35 261.446 307.399 261.622 307.439 261.802C307.48 261.981 307.514 262.166 307.543 262.356C307.572 262.547 307.595 262.746 307.613 262.954H307.665C307.699 262.642 307.745 262.35 307.803 262.079C307.867 261.807 307.945 261.539 308.037 261.273L309.831 255.822H312.665L308.566 266.75C308.317 267.42 307.994 267.978 307.595 268.423C307.197 268.873 306.737 269.211 306.217 269.437C305.703 269.662 305.137 269.775 304.519 269.775C304.218 269.775 303.958 269.757 303.739 269.723C303.519 269.694 303.331 269.662 303.175 269.627V267.53C303.297 267.559 303.45 267.585 303.635 267.608C303.82 267.631 304.013 267.643 304.215 267.643C304.585 267.643 304.903 267.565 305.169 267.409C305.434 267.253 305.657 267.042 305.836 266.776C306.015 266.516 306.157 266.23 306.261 265.918L306.417 265.441L302.569 255.822ZM323.689 258.396H328.715V264.965C328.051 265.184 327.36 265.361 326.644 265.493C325.928 265.621 325.116 265.684 324.209 265.684C322.949 265.684 321.88 265.436 321.002 264.939C320.124 264.442 319.457 263.708 319 262.738C318.544 261.767 318.316 260.574 318.316 259.158C318.316 257.829 318.57 256.68 319.078 255.709C319.592 254.738 320.341 253.987 321.323 253.456C322.311 252.924 323.515 252.659 324.937 252.659C325.607 252.659 326.268 252.731 326.921 252.875C327.574 253.02 328.166 253.207 328.698 253.439L327.805 255.588C327.418 255.391 326.976 255.227 326.479 255.094C325.982 254.961 325.462 254.894 324.919 254.894C324.139 254.894 323.461 255.074 322.883 255.432C322.311 255.79 321.866 256.293 321.548 256.94C321.236 257.581 321.08 258.338 321.08 259.21C321.08 260.037 321.193 260.77 321.418 261.412C321.643 262.047 321.999 262.547 322.484 262.911C322.969 263.269 323.602 263.448 324.382 263.448C324.763 263.448 325.084 263.431 325.344 263.396C325.61 263.356 325.858 263.315 326.089 263.275V260.632H323.689V258.396ZM336.94 255.64C337.073 255.64 337.226 255.648 337.399 255.666C337.578 255.677 337.723 255.695 337.832 255.718L337.633 258.196C337.546 258.167 337.422 258.147 337.26 258.136C337.104 258.118 336.969 258.11 336.853 258.11C336.512 258.11 336.18 258.153 335.856 258.24C335.539 258.326 335.253 258.468 334.998 258.664C334.744 258.855 334.542 259.109 334.392 259.427C334.247 259.739 334.175 260.123 334.175 260.58V265.511H331.532V255.822H333.534L333.924 257.451H334.054C334.244 257.122 334.481 256.821 334.764 256.55C335.053 256.272 335.38 256.053 335.744 255.891C336.113 255.724 336.512 255.64 336.94 255.64ZM343.587 255.64C344.482 255.64 345.254 255.813 345.901 256.16C346.548 256.501 347.048 256.998 347.4 257.65C347.752 258.303 347.929 259.101 347.929 260.042V261.325H341.68C341.709 262.07 341.932 262.657 342.348 263.084C342.769 263.506 343.353 263.717 344.098 263.717C344.716 263.717 345.283 263.653 345.797 263.526C346.311 263.399 346.84 263.208 347.383 262.954V264.999C346.903 265.236 346.401 265.41 345.875 265.519C345.355 265.629 344.722 265.684 343.977 265.684C343.006 265.684 342.145 265.505 341.394 265.147C340.649 264.789 340.062 264.243 339.635 263.509C339.213 262.775 339.002 261.851 339.002 260.736C339.002 259.603 339.193 258.661 339.574 257.91C339.961 257.154 340.499 256.587 341.186 256.212C341.874 255.83 342.674 255.64 343.587 255.64ZM343.604 257.52C343.09 257.52 342.662 257.685 342.322 258.014C341.986 258.344 341.793 258.861 341.741 259.566H345.45C345.444 259.173 345.372 258.823 345.233 258.517C345.101 258.211 344.898 257.968 344.627 257.789C344.361 257.61 344.02 257.52 343.604 257.52ZM352.721 252.026V254.773C352.721 255.253 352.704 255.709 352.669 256.142C352.64 256.576 352.617 256.882 352.6 257.061H352.739C352.947 256.726 353.192 256.454 353.475 256.246C353.764 256.038 354.082 255.885 354.428 255.787C354.775 255.689 355.148 255.64 355.546 255.64C356.246 255.64 356.855 255.764 357.375 256.012C357.895 256.255 358.299 256.639 358.588 257.165C358.877 257.685 359.022 258.361 359.022 259.193V265.511H356.378V259.852C356.378 259.158 356.251 258.635 355.997 258.283C355.743 257.931 355.35 257.754 354.818 257.754C354.287 257.754 353.868 257.879 353.562 258.127C353.256 258.37 353.039 258.731 352.912 259.21C352.785 259.684 352.721 260.265 352.721 260.952V265.511H350.078V252.026H352.721ZM370.635 255.822V265.511H368.607L368.251 264.272H368.113C367.905 264.601 367.645 264.869 367.333 265.077C367.021 265.285 366.677 265.439 366.301 265.537C365.926 265.635 365.536 265.684 365.131 265.684C364.438 265.684 363.834 265.563 363.32 265.32C362.806 265.072 362.404 264.687 362.116 264.168C361.832 263.648 361.691 262.972 361.691 262.14V255.822H364.334V261.481C364.334 262.174 364.458 262.697 364.707 263.05C364.955 263.402 365.351 263.578 365.894 263.578C366.431 263.578 366.853 263.457 367.159 263.214C367.466 262.966 367.679 262.605 367.801 262.131C367.928 261.651 367.991 261.068 367.991 260.38V255.822H370.635ZM380.168 262.634C380.168 263.292 380.012 263.85 379.7 264.306C379.393 264.757 378.934 265.101 378.322 265.337C377.709 265.569 376.947 265.684 376.034 265.684C375.358 265.684 374.777 265.641 374.292 265.554C373.812 265.467 373.327 265.323 372.836 265.121V262.937C373.362 263.174 373.925 263.37 374.526 263.526C375.133 263.676 375.664 263.752 376.12 263.752C376.635 263.752 377.002 263.676 377.221 263.526C377.446 263.37 377.559 263.168 377.559 262.92C377.559 262.758 377.513 262.613 377.42 262.486C377.334 262.353 377.143 262.206 376.848 262.044C376.554 261.877 376.092 261.66 375.462 261.394C374.855 261.14 374.355 260.883 373.963 260.623C373.575 260.363 373.287 260.057 373.096 259.704C372.911 259.346 372.819 258.893 372.819 258.344C372.819 257.448 373.165 256.775 373.859 256.324C374.558 255.868 375.491 255.64 376.658 255.64C377.259 255.64 377.831 255.7 378.374 255.822C378.923 255.943 379.486 256.137 380.064 256.402L379.266 258.309C378.787 258.101 378.333 257.931 377.906 257.798C377.484 257.665 377.054 257.598 376.614 257.598C376.227 257.598 375.936 257.65 375.739 257.754C375.543 257.858 375.444 258.017 375.444 258.231C375.444 258.387 375.494 258.526 375.592 258.647C375.696 258.768 375.892 258.904 376.181 259.054C376.476 259.199 376.906 259.387 377.472 259.618C378.021 259.843 378.498 260.08 378.902 260.328C379.307 260.571 379.619 260.874 379.838 261.238C380.058 261.596 380.168 262.062 380.168 262.634Z" fill="#181818"/>
<path d="M178.424 76.9044V235H154.069V76.9044H178.424ZM222.792 101.687C218.377 101.687 214.674 100.191 211.683 97.2004C208.692 94.2095 207.196 90.5063 207.196 86.091C207.196 81.6757 208.692 77.9726 211.683 74.9816C214.674 71.9906 218.377 70.4951 222.792 70.4951C227.065 70.4951 230.697 71.9906 233.688 74.9816C236.679 77.9726 238.174 81.6757 238.174 86.091C238.174 90.5063 236.679 94.2095 233.688 97.2004C230.697 100.191 227.065 101.687 222.792 101.687ZM234.756 117.283V235H210.401V117.283H234.756ZM258.614 175.607C258.614 163.786 261.035 153.317 265.878 144.202C270.863 135.086 277.557 128.036 285.96 123.051C294.506 117.924 303.906 115.36 314.161 115.36C323.419 115.36 331.466 117.212 338.303 120.915C345.282 124.476 350.836 128.962 354.967 134.374V117.283H379.536V235H354.967V217.481C350.836 223.036 345.21 227.665 338.089 231.368C330.967 235.071 322.849 236.923 313.734 236.923C303.621 236.923 294.363 234.359 285.96 229.232C277.557 223.962 270.863 216.698 265.878 207.44C261.035 198.04 258.614 187.429 258.614 175.607ZM354.967 176.035C354.967 167.916 353.258 160.866 349.839 154.884C346.563 148.902 342.219 144.344 336.807 141.211C331.395 138.077 325.555 136.511 319.288 136.511C313.021 136.511 307.182 138.077 301.77 141.211C296.357 144.202 291.942 148.688 288.524 154.67C285.248 160.51 283.61 167.489 283.61 175.607C283.61 183.726 285.248 190.847 288.524 196.972C291.942 203.096 296.357 207.796 301.77 211.072C307.324 214.205 313.164 215.772 319.288 215.772C325.555 215.772 331.395 214.205 336.807 211.072C342.219 207.939 346.563 203.381 349.839 197.399C353.258 191.274 354.967 184.153 354.967 176.035Z" fill="black"/>
<path d="M59.8091 102.522C41.8056 108.609 29.1583 119.284 22.0589 134.385C16.6075 145.98 15.2121 158.55 17.7491 173.212C18.6002 178.13 22.9734 191.427 25.0437 195.392C31.6725 208.087 39.3237 216.721 49.4675 222.953C62.4852 230.949 78.7935 233.496 94.5738 229.998C96.673 229.533 108.059 225.7 109.286 225.046L110.463 224.418L107.541 215.775L104.619 207.132L103.774 207.644C103.309 207.926 100.866 208.958 98.3463 209.938C86.7367 214.454 75.4666 214.233 64.9946 209.284C55.9735 205.021 49.796 198.414 44.937 187.832L44.0161 185.827L92.5249 169.427L141.034 153.028L140.645 151.213C140.431 150.216 139.543 146.972 138.671 144.005C135.232 132.307 130.11 123.353 122.327 115.429C114.917 107.885 107.05 103.233 97.3164 100.64C85.0687 97.3761 73.2817 97.9675 59.8091 102.522ZM65.6371 119.202C66.3874 118.949 67.1419 118.707 67.8849 118.481C68.6279 118.255 69.3592 118.044 70.064 117.855C70.7688 117.667 71.4469 117.5 72.0827 117.359C72.7184 117.218 73.3121 117.104 73.8479 117.022C74.389 116.939 74.9281 116.865 75.4652 116.802C76.0023 116.738 76.5371 116.684 77.0698 116.64C77.6024 116.596 78.1332 116.561 78.6612 116.536C79.1891 116.51 79.7143 116.495 80.2372 116.489C80.7601 116.482 81.28 116.485 81.7975 116.497C82.3149 116.51 82.8296 116.532 83.3413 116.563C83.853 116.594 84.3622 116.634 84.8678 116.683C85.3734 116.733 85.8755 116.792 86.3746 116.86C86.8738 116.927 87.3699 117.004 87.8622 117.09C88.3546 117.176 88.8431 117.271 89.3284 117.375C89.8136 117.478 90.2951 117.591 90.7729 117.713C91.2507 117.834 91.7249 117.965 92.1949 118.104C92.6648 118.244 93.131 118.392 93.5928 118.549C94.0547 118.706 94.5121 118.871 94.9655 119.045C95.4188 119.219 95.8678 119.401 96.3123 119.593C96.7568 119.784 97.1966 119.984 97.6319 120.192C98.0672 120.401 98.4983 120.617 98.9242 120.842C99.35 121.067 99.7704 121.3 100.186 121.542C100.602 121.783 101.013 122.034 101.419 122.292C101.825 122.55 102.226 122.816 102.621 123.091C103.016 123.365 103.406 123.647 103.791 123.938C104.175 124.229 104.554 124.527 104.927 124.834C105.3 125.14 105.667 125.456 106.028 125.778C106.39 126.1 106.746 126.431 107.095 126.769C107.445 127.107 107.789 127.453 108.126 127.806C108.464 128.16 108.795 128.522 109.12 128.891C109.445 129.26 109.763 129.636 110.075 130.021C110.387 130.405 110.693 130.796 110.991 131.196C111.29 131.595 111.581 132.001 111.866 132.415C112.152 132.829 112.429 133.251 112.7 133.68C112.971 134.108 113.236 134.544 113.493 134.988C113.749 135.431 113.999 135.882 114.241 136.339C114.463 136.758 114.694 137.217 114.923 137.689C115.152 138.161 115.379 138.646 115.59 139.115C115.802 139.585 115.999 140.039 116.167 140.448C116.335 140.858 116.475 141.224 116.575 141.518L117.298 143.653L78.0178 156.933L38.7373 170.213L38.4636 169.404C38.3983 169.211 38.3291 168.952 38.2582 168.642C38.1873 168.332 38.1145 167.97 38.0415 167.569C37.8953 166.767 37.7487 165.809 37.6147 164.8C37.4807 163.791 37.3601 162.731 37.266 161.724C37.172 160.717 37.1045 159.763 37.0781 158.967C37.0621 158.485 37.0539 158.005 37.0541 157.526C37.0543 157.048 37.0629 156.571 37.0791 156.096C37.0953 155.621 37.1195 155.149 37.1516 154.678C37.1836 154.207 37.223 153.738 37.2707 153.272C37.3184 152.805 37.3745 152.341 37.4378 151.879C37.501 151.417 37.5716 150.958 37.6502 150.501C37.7288 150.044 37.8149 149.589 37.9087 149.137C38.0025 148.685 38.1043 148.235 38.2131 147.789C38.3219 147.342 38.4378 146.898 38.5614 146.457C38.6851 146.016 38.8165 145.578 38.9549 145.143C39.0933 144.708 39.2391 144.276 39.392 143.847C39.5449 143.419 39.7046 142.993 39.8719 142.571C40.0391 142.149 40.2139 141.73 40.3954 141.315C40.5768 140.9 40.7653 140.488 40.9608 140.08C41.1563 139.672 41.3584 139.268 41.5678 138.867C41.7771 138.466 41.9938 138.069 42.2168 137.676C42.4399 137.283 42.6693 136.894 42.9059 136.51C43.1425 136.125 43.3858 135.744 43.6358 135.367C43.8857 134.991 44.1427 134.618 44.4059 134.25C44.669 133.882 44.9384 133.518 45.2147 133.159C45.4909 132.8 45.7739 132.446 46.063 132.096C46.3521 131.746 46.6472 131.401 46.949 131.06C47.2508 130.72 47.5593 130.384 47.8736 130.053C48.188 129.723 48.5083 129.397 48.8351 129.076C49.1618 128.755 49.4947 128.44 49.8337 128.13C50.1726 127.819 50.518 127.515 50.8691 127.215C51.2201 126.915 51.577 126.621 51.9399 126.333C52.3028 126.044 52.6718 125.76 53.0464 125.483C53.421 125.205 53.801 124.934 54.1871 124.668C54.5733 124.402 54.9658 124.142 55.3633 123.887C55.7609 123.633 56.1638 123.385 56.5726 123.143C56.9814 122.901 57.3956 122.665 57.8154 122.435C58.2864 122.178 58.8233 121.91 59.4104 121.637C59.9975 121.365 60.6348 121.089 61.3071 120.812C61.9795 120.536 62.6871 120.26 63.4139 119.99C64.1406 119.72 64.8867 119.456 65.6371 119.202Z" fill="url(#paint0_linear_643_189)"/>
<path d="M61.4054 141.859L61.2493 141.912C59.9566 142.349 59.2327 143.661 59.6324 144.844L61.4055 150.088C61.8052 151.271 63.1772 151.875 64.4699 151.438L64.626 151.385C65.9187 150.948 66.6426 149.635 66.2428 148.453L64.4698 143.208C64.0701 142.026 62.6981 141.422 61.4054 141.859Z" fill="black" stroke="url(#paint1_linear_643_189)" stroke-opacity="0.881432" stroke-width="1.73754" stroke-linecap="round" stroke-linejoin="round"/>
<path d="M80.2013 135.504L80.0452 135.557C78.7525 135.994 78.0286 137.307 78.4283 138.489L80.2014 143.734C80.6011 144.916 81.9731 145.52 83.2658 145.083L83.4218 145.03C84.7146 144.593 85.4385 143.281 85.0387 142.098L83.2657 136.854C82.866 135.671 81.494 135.067 80.2013 135.504Z" fill="black" stroke="url(#paint2_linear_643_189)" stroke-opacity="0.881432" stroke-width="1.73754" stroke-linecap="round" stroke-linejoin="round"/>
<path d="M38.443 152.755C38.3206 152.753 38.1981 152.753 38.0756 152.755C35.193 152.825 32.4569 154.038 30.4692 156.127C28.4814 158.216 27.4049 161.011 27.4763 163.895C27.5478 166.779 28.7615 169.518 30.8504 171.508C32.9392 173.498 35.7321 174.576 38.6147 174.506C38.7371 174.497 38.8593 174.485 38.9813 174.471L38.443 152.755Z" fill="#D4D5D5" stroke="white" stroke-width="1.73754" stroke-linecap="round" stroke-linejoin="round"/>
<path d="M35.2565 165.645C36.8154 164.759 37.3608 162.776 36.4746 161.216C35.5884 159.656 33.6062 159.109 32.0473 159.995C30.4884 160.881 29.943 162.864 30.8292 164.424C31.7154 165.985 33.6976 166.531 35.2565 165.645Z" fill="white" stroke="#5A39AD" stroke-width="0.822723" stroke-linecap="round" stroke-linejoin="round"/>
<path d="M121.124 148.965C121.231 148.907 121.337 148.846 121.443 148.784C123.913 147.296 125.691 144.888 126.386 142.088C127.081 139.288 126.636 136.326 125.148 133.854C123.661 131.381 121.253 129.601 118.455 128.904C115.656 128.207 112.696 128.652 110.226 130.139C110.124 130.208 110.024 130.278 109.925 130.35L121.124 148.965Z" fill="#D4D5D5" stroke="white" stroke-width="1.73754" stroke-linecap="round" stroke-linejoin="round"/>
<path d="M117.093 134.851C116.176 136.393 116.682 138.387 118.223 139.305C119.764 140.223 121.757 139.718 122.673 138.176C123.59 136.635 123.084 134.641 121.543 133.723C120.002 132.804 118.009 133.31 117.093 134.851Z" stroke="#5939AD" stroke-width="0.822723" stroke-linecap="round" stroke-linejoin="round"/>
<defs>
<linearGradient id="paint0_linear_643_189" x1="59.0319" y1="102.785" x2="101.333" y2="227.906" gradientUnits="userSpaceOnUse">
<stop offset="0.291667" stop-color="#6332A9"/>
<stop offset="1" stop-color="#126FCC"/>
</linearGradient>
<linearGradient id="paint1_linear_643_189" x1="61.3274" y1="141.885" x2="64.5479" y2="151.411" gradientUnits="userSpaceOnUse">
<stop stop-color="#6332A9"/>
<stop offset="1" stop-color="#4B44B3"/>
</linearGradient>
<linearGradient id="paint2_linear_643_189" x1="80.1233" y1="135.531" x2="83.3438" y2="145.057" gradientUnits="userSpaceOnUse">
<stop stop-color="#6332A9"/>
<stop offset="1" stop-color="#4846B5"/>
</linearGradient>
</defs>
</svg>
