<svg width="127" height="93" viewBox="0 0 127 93" fill="none" xmlns="http://www.w3.org/2000/svg">
<path d="M58.4446 22.8518V69.4718H51.2626V22.8518H58.4446ZM71.5279 30.1598C70.2259 30.1598 69.1339 29.7188 68.2519 28.8368C67.3699 27.9548 66.9289 26.8628 66.9289 25.5608C66.9289 24.2588 67.3699 23.1668 68.2519 22.2848C69.1339 21.4028 70.2259 20.9618 71.5279 20.9618C72.7879 20.9618 73.8589 21.4028 74.7409 22.2848C75.6229 23.1668 76.0639 24.2588 76.0639 25.5608C76.0639 26.8628 75.6229 27.9548 74.7409 28.8368C73.8589 29.7188 72.7879 30.1598 71.5279 30.1598ZM75.0559 34.7588V69.4718H67.8739V34.7588H75.0559ZM82.0912 51.9578C82.0912 48.4718 82.8052 45.3848 84.2332 42.6968C85.7033 40.0088 87.6773 37.9298 90.1552 36.4598C92.6752 34.9478 95.4472 34.1918 98.4713 34.1918C101.201 34.1918 103.574 34.7378 105.59 35.8298C107.648 36.8798 109.286 38.2028 110.504 39.7988V34.7588H117.749V69.4718H110.504V64.3058C109.286 65.9438 107.627 67.3088 105.527 68.4008C103.427 69.4928 101.033 70.0388 98.3453 70.0388C95.3632 70.0388 92.6332 69.2828 90.1552 67.7708C87.6773 66.2168 85.7033 64.0748 84.2332 61.3448C82.8052 58.5728 82.0912 55.4438 82.0912 51.9578ZM110.504 52.0838C110.504 49.6898 110 47.6108 108.992 45.8468C108.026 44.0828 106.745 42.7388 105.149 41.8148C103.553 40.8908 101.831 40.4288 99.9832 40.4288C98.1352 40.4288 96.4132 40.8908 94.8172 41.8148C93.2212 42.6968 91.9192 44.0198 90.9112 45.7838C89.9453 47.5058 89.4623 49.5638 89.4623 51.9578C89.4623 54.3518 89.9453 56.4518 90.9112 58.2578C91.9192 60.0638 93.2212 61.4498 94.8172 62.4158C96.4553 63.3398 98.1773 63.8018 99.9832 63.8018C101.831 63.8018 103.553 63.3398 105.149 62.4158C106.745 61.4918 108.026 60.1478 108.992 58.3838C110 56.5778 110.504 54.4778 110.504 52.0838Z" fill="white" fill-opacity="0.8"/>
<path d="M19.9246 27.6146C13.927 29.6423 9.71371 33.1984 7.34865 38.2291C5.53257 42.0921 5.06772 46.2796 5.91289 51.1639C6.19641 52.8023 7.65329 57.2319 8.343 58.5529C10.5513 62.7822 13.1002 65.6586 16.4795 67.7344C20.8162 70.3984 26.2491 71.247 31.506 70.0815C32.2054 69.9265 35.9986 68.6497 36.4074 68.4317L36.7993 68.2225L35.8258 65.3432L34.8525 62.4641L34.5708 62.6345C34.4159 62.7283 33.6024 63.0724 32.7628 63.3989C28.8952 64.9031 25.1407 64.8295 21.6521 63.1809C18.6468 61.7608 16.5889 59.5598 14.9702 56.0345L14.6634 55.3666L30.8235 49.9032L46.9836 44.4398L46.8539 43.8354C46.7827 43.503 46.4868 42.4224 46.1963 41.4341C45.0506 37.5371 43.3445 34.5541 40.7516 31.9142C38.2833 29.4012 35.6624 27.8515 32.4197 26.9874C28.3395 25.9002 24.4129 26.0972 19.9246 27.6146ZM21.8661 33.1713C22.1161 33.0869 22.3675 33.0063 22.615 32.9309C22.8625 32.8556 23.1061 32.7855 23.3409 32.7226C23.5757 32.6598 23.8016 32.6041 24.0134 32.5573C24.2252 32.5104 24.423 32.4724 24.6015 32.445C24.7817 32.4173 24.9613 32.3928 25.1403 32.3716C25.3192 32.3504 25.4973 32.3325 25.6748 32.3178C25.8523 32.303 26.0291 32.2914 26.2049 32.283C26.3808 32.2745 26.5558 32.2694 26.73 32.2673C26.9042 32.2652 27.0774 32.2661 27.2498 32.2702C27.4221 32.2744 27.5936 32.2816 27.7641 32.2919C27.9345 32.3023 28.1042 32.3157 28.2726 32.3322C28.441 32.3487 28.6083 32.3683 28.7746 32.3909C28.9409 32.4134 29.1061 32.439 29.2702 32.4676C29.4342 32.4962 29.5969 32.5278 29.7586 32.5624C29.9202 32.597 30.0807 32.6346 30.2398 32.6751C30.399 32.7156 30.557 32.7591 30.7135 32.8055C30.8701 32.8519 31.0254 32.9014 31.1792 32.9536C31.3331 33.0059 31.4855 33.0608 31.6365 33.1188C31.7875 33.1768 31.9371 33.2376 32.0852 33.3013C32.2333 33.365 32.3798 33.4318 32.5248 33.5012C32.6698 33.5705 32.8135 33.6426 32.9553 33.7176C33.0972 33.7925 33.2372 33.8701 33.3758 33.9506C33.5144 34.0312 33.6513 34.1145 33.7865 34.2005C33.9217 34.2865 34.0552 34.3752 34.1868 34.4667C34.3185 34.5581 34.4485 34.6522 34.5765 34.749C34.7045 34.8458 34.8307 34.9452 34.955 35.0474C35.0793 35.1495 35.2016 35.2545 35.322 35.3619C35.4425 35.4694 35.561 35.5793 35.6774 35.692C35.7939 35.8046 35.9084 35.9199 36.0208 36.0377C36.1332 36.1555 36.2436 36.276 36.3519 36.3989C36.4601 36.5218 36.5663 36.6473 36.6702 36.7753C36.7741 36.9033 36.8758 37.0337 36.9753 37.1667C37.0748 37.2997 37.1719 37.4351 37.2669 37.5731C37.3618 37.711 37.4544 37.8514 37.5447 37.9942C37.635 38.1371 37.7231 38.2823 37.8086 38.43C37.8942 38.5777 37.9773 38.7278 38.058 38.8803C38.1317 39.0197 38.2088 39.1726 38.2851 39.3299C38.3615 39.4872 38.437 39.6487 38.5075 39.8051C38.5779 39.9614 38.6435 40.1126 38.6995 40.2492C38.7556 40.3857 38.8023 40.5076 38.8354 40.6055L39.0764 41.3169L25.9906 45.7409L12.9048 50.165L12.8137 49.8953C12.7919 49.831 12.7689 49.7449 12.7452 49.6416C12.7216 49.5383 12.6974 49.4176 12.673 49.284C12.6243 49.0169 12.5755 48.6979 12.5308 48.3617C12.4862 48.0256 12.446 47.6724 12.4147 47.3368C12.3834 47.0013 12.3609 46.6836 12.3521 46.4183C12.3468 46.2578 12.344 46.0978 12.3441 45.9384C12.3441 45.7791 12.347 45.6202 12.3524 45.462C12.3578 45.3039 12.3659 45.1465 12.3766 44.9896C12.3872 44.8328 12.4004 44.6766 12.4163 44.5212C12.4322 44.3658 12.4508 44.2111 12.4719 44.0572C12.493 43.9033 12.5165 43.7503 12.5427 43.598C12.5689 43.4457 12.5975 43.2941 12.6288 43.1435C12.66 42.9929 12.694 42.8433 12.7302 42.6945C12.7665 42.5457 12.805 42.3977 12.8462 42.2508C12.8874 42.1039 12.9312 41.9581 12.9773 41.8132C13.0234 41.6683 13.072 41.5243 13.1229 41.3815C13.1739 41.2387 13.2271 41.097 13.2828 40.9564C13.3385 40.8157 13.3968 40.6762 13.4572 40.5379C13.5177 40.3995 13.5804 40.2624 13.6456 40.1264C13.7107 39.9905 13.778 39.8559 13.8478 39.7224C13.9175 39.5889 13.9897 39.4566 14.064 39.3257C14.1383 39.1948 14.2147 39.0652 14.2935 38.937C14.3724 38.8088 14.4534 38.682 14.5367 38.5565C14.62 38.431 14.7056 38.3069 14.7932 38.1843C14.8809 38.0617 14.9707 37.9405 15.0627 37.8209C15.1547 37.7013 15.249 37.5832 15.3453 37.4666C15.4416 37.35 15.5399 37.235 15.6404 37.1216C15.741 37.0082 15.8438 36.8963 15.9485 36.7862C16.0532 36.676 16.1599 36.5674 16.2688 36.4606C16.3776 36.3538 16.4885 36.2487 16.6014 36.1454C16.7144 36.042 16.8294 35.9405 16.9464 35.8407C17.0633 35.7408 17.1822 35.6428 17.3031 35.5467C17.424 35.4505 17.5469 35.356 17.6717 35.2636C17.7965 35.1712 17.9231 35.0807 18.0517 34.9921C18.1804 34.9035 18.3111 34.8168 18.4436 34.7321C18.576 34.6474 18.7102 34.5647 18.8464 34.484C18.9826 34.4034 19.1206 34.3248 19.2605 34.2483C19.4173 34.1625 19.5962 34.0732 19.7918 33.9826C19.9874 33.8919 20.1997 33.7998 20.4237 33.7077C20.6477 33.6156 20.8834 33.5237 21.1255 33.4338C21.3676 33.3438 21.6162 33.2557 21.8661 33.1713Z" fill="url(#paint0_linear_643_191)"/>
<path d="M20.4567 40.7191L20.4048 40.7366C19.9741 40.8822 19.7329 41.3195 19.8661 41.7134L20.4568 43.4606C20.5899 43.8544 21.047 44.0557 21.4776 43.9101L21.5296 43.8925C21.9603 43.7469 22.2014 43.3096 22.0683 42.9158L21.4776 41.1686C21.3444 40.7747 20.8874 40.5735 20.4567 40.7191Z" fill="#6332A9" stroke="url(#paint1_linear_643_191)" stroke-opacity="0.881432" stroke-width="0.624701" stroke-linecap="round" stroke-linejoin="round"/>
<path d="M26.718 38.6021L26.666 38.6197C26.2353 38.7653 25.9942 39.2026 26.1273 39.5965L26.718 41.3436C26.8512 41.7375 27.3082 41.9388 27.7389 41.7932L27.7909 41.7756C28.2215 41.63 28.4627 41.1927 28.3295 40.7988L27.7388 39.0517C27.6057 38.6578 27.1486 38.4565 26.718 38.6021Z" fill="#6332A9" stroke="url(#paint2_linear_643_191)" stroke-opacity="0.881432" stroke-width="0.624701" stroke-linecap="round" stroke-linejoin="round"/>
<path d="M12.8069 44.3488C12.7661 44.3481 12.7253 44.3481 12.6845 44.3488C11.7242 44.3722 10.8127 44.7764 10.1505 45.4724C9.48832 46.1683 9.12968 47.0992 9.15348 48.0601C9.17731 49.021 9.58163 49.9333 10.2775 50.5962C10.9734 51.2591 11.9038 51.6184 12.8641 51.5951C12.9049 51.5919 12.9456 51.588 12.9862 51.5834L12.8069 44.3488Z" fill="white" stroke="white" stroke-width="0.624701" stroke-linecap="round" stroke-linejoin="round"/>
<path d="M11.7453 48.6433C12.2646 48.3481 12.4463 47.6874 12.1511 47.1676C11.8558 46.6478 11.1955 46.4657 10.6762 46.7609C10.1568 47.0561 9.97517 47.7167 10.2704 48.2365C10.5656 48.7563 11.226 48.9384 11.7453 48.6433Z" fill="white" stroke="#5A39AD" stroke-width="0.295796" stroke-linecap="round" stroke-linejoin="round"/>
<path d="M40.3508 43.0865C40.3866 43.0669 40.4221 43.0467 40.4572 43.0259C41.2801 42.5305 41.8724 41.7281 42.1039 40.7954C42.3354 39.8626 42.1871 38.8759 41.6916 38.0522C41.1961 37.2286 40.3939 36.6354 39.4617 36.4034C38.5294 36.1713 37.5433 36.3192 36.7204 36.8146C36.6866 36.8376 36.6531 36.8611 36.6201 36.8852L40.3508 43.0865Z" fill="white" stroke="white" stroke-width="0.624701" stroke-linecap="round" stroke-linejoin="round"/>
<path d="M39.0082 38.3846C38.7028 38.8982 38.8714 39.5625 39.3847 39.8684C39.8981 40.1742 40.5619 40.0059 40.8674 39.4923C41.1728 38.9787 41.0042 38.3144 40.4908 38.0086C39.9774 37.7027 39.3136 37.8711 39.0082 38.3846Z" stroke="#5939AD" stroke-width="0.295796" stroke-linecap="round" stroke-linejoin="round"/>
<defs>
<linearGradient id="paint0_linear_643_191" x1="19.6657" y1="27.7021" x2="33.7576" y2="69.3845" gradientUnits="userSpaceOnUse">
<stop offset="0.291667" stop-color="#6332A9"/>
<stop offset="1" stop-color="#126FCC"/>
</linearGradient>
<linearGradient id="paint1_linear_643_191" x1="20.4307" y1="40.7278" x2="21.5036" y2="43.9013" gradientUnits="userSpaceOnUse">
<stop stop-color="white"/>
<stop offset="1" stop-color="#4B44B3"/>
</linearGradient>
<linearGradient id="paint2_linear_643_191" x1="26.692" y1="38.6109" x2="27.7649" y2="41.7844" gradientUnits="userSpaceOnUse">
<stop stop-color="white"/>
<stop offset="1" stop-color="#4846B5"/>
</linearGradient>
</defs>
</svg>
