<svg version="1.1" id="Layer_1" xmlns="http://www.w3.org/2000/svg" xmlns:xlink="http://www.w3.org/1999/xlink" x="0px" y="0px"
	 width="100%" viewBox="0 0 454 301" enable-background="new 0 0 454 301" xml:space="preserve">
<path fill="#101010" opacity="1.000000" stroke="none" 
	d="
M455.000000,38.000000 
	C455.000000,77.354225 455.000000,116.708458 454.616821,156.477448 
	C443.970886,153.482132 433.722900,150.026932 423.442627,146.670593 
	C395.464050,137.536026 367.187836,135.167175 338.359558,142.544952 
	C329.016876,144.935959 319.491150,146.640121 310.010864,148.459106 
	C288.180573,152.647705 267.686218,149.072952 248.400284,137.937759 
	C237.304749,131.531464 225.936905,125.598267 214.727417,119.387573 
	C192.785843,107.230728 170.219894,105.738678 146.937424,115.193909 
	C134.598358,120.204918 122.292618,125.313545 109.830208,130.001648 
	C91.539215,136.882339 72.555931,139.771652 53.453022,134.968857 
	C35.749458,130.517868 18.467571,124.389656 1.000000,119.000000 
	C1.000000,92.979103 1.000000,66.958214 1.410334,40.506645 
	C4.118659,40.461060 6.418305,40.836571 8.714390,41.232716 
	C34.157131,45.622360 59.663380,50.156860 85.578690,48.816154 
	C102.495499,47.940979 119.485413,46.235332 136.154678,43.278561 
	C172.697601,36.796612 208.695145,38.416550 244.599808,47.312675 
	C267.058624,52.877323 289.571045,58.288387 312.212738,63.037510 
	C346.286011,70.184433 379.786102,67.619118 412.353271,55.059063 
	C426.637329,49.550198 440.788483,43.696896 455.000000,38.000000 
z"/>
<path fill="#101010" opacity="1.000000" stroke="none" 
	d="
M1.000005,282.000000 
	C1.000000,251.312439 1.000000,220.624878 1.374194,189.378616 
	C40.080818,178.727219 78.359970,168.425797 116.766624,158.623917 
	C138.157974,153.164551 159.878357,149.954926 182.073212,152.994644 
	C198.906403,155.300018 214.634384,161.226974 230.227325,167.604767 
	C249.487457,175.482452 268.394226,184.400543 288.065430,191.062897 
	C342.132751,209.374741 398.604767,212.668304 455.000000,216.000000 
	C455.000000,233.020889 455.000000,250.041794 454.570160,267.553833 
	C448.167908,268.473602 442.193359,268.874237 436.223511,269.335876 
	C415.022461,270.975189 393.766449,270.852539 373.265289,265.061554 
	C356.025879,260.191925 339.375183,253.235443 322.470856,247.183334 
	C315.423004,244.660049 308.372070,242.142883 301.359222,239.524719 
	C281.526245,232.120361 261.500977,233.039398 241.412598,238.171585 
	C230.446808,240.973114 219.471848,243.780243 208.629974,247.016861 
	C183.896957,254.400406 158.923080,252.796738 133.884262,249.460037 
	C111.063820,246.418961 88.157379,245.529144 66.266159,253.468994 
	C48.649162,259.858582 31.797678,268.359802 14.610932,275.934082 
	C10.065650,277.937195 5.536541,279.977020 1.000005,282.000000 
z"/>
<path fill="#191A19" opacity="1.000000" stroke="none" 
	d="
M455.000000,37.531342 
	C440.788483,43.696896 426.637329,49.550198 412.353271,55.059063 
	C379.786102,67.619118 346.286011,70.184433 312.212738,63.037510 
	C289.571045,58.288387 267.058624,52.877323 244.599808,47.312675 
	C208.695145,38.416550 172.697601,36.796612 136.154678,43.278561 
	C119.485413,46.235332 102.495499,47.940979 85.578690,48.816154 
	C59.663380,50.156860 34.157131,45.622360 8.714390,41.232716 
	C6.418305,40.836571 4.118659,40.461060 1.410334,40.037987 
	C1.000000,27.010736 1.000000,14.021473 1.000002,1.039212 
	C152.333344,1.046214 303.666687,1.046214 455.000000,1.046214 
	C455.000000,13.082513 455.000000,25.072598 455.000000,37.531342 
z"/>
<path fill="#000000" opacity="1.000000" stroke="none" 
	d="
M455.000000,215.531342 
	C398.604767,212.668304 342.132751,209.374741 288.065430,191.062897 
	C268.394226,184.400543 249.487457,175.482452 230.227325,167.604767 
	C214.634384,161.226974 198.906403,155.300018 182.073212,152.994644 
	C159.878357,149.954926 138.157974,153.164551 116.766624,158.623917 
	C78.359970,168.425797 40.080818,178.727219 1.374194,188.909958 
	C1.000000,165.979111 1.000000,142.958206 1.000000,119.468658 
	C18.467571,124.389656 35.749458,130.517868 53.453022,134.968857 
	C72.555931,139.771652 91.539215,136.882339 109.830208,130.001648 
	C122.292618,125.313545 134.598358,120.204918 146.937424,115.193909 
	C170.219894,105.738678 192.785843,107.230728 214.727417,119.387573 
	C225.936905,125.598267 237.304749,131.531464 248.400284,137.937759 
	C267.686218,149.072952 288.180573,152.647705 310.010864,148.459106 
	C319.491150,146.640121 329.016876,144.935959 338.359558,142.544952 
	C367.187836,135.167175 395.464050,137.536026 423.442627,146.670593 
	C433.722900,150.026932 443.970886,153.482132 454.616821,156.946106 
	C455.000000,176.354233 455.000000,195.708450 455.000000,215.531342 
z"/>
<path fill="#191A19" opacity="1.000000" stroke="none" 
	d="
M1.000005,282.469055 
	C5.536541,279.977020 10.065650,277.937195 14.610932,275.934082 
	C31.797678,268.359802 48.649162,259.858582 66.266159,253.468994 
	C88.157379,245.529144 111.063820,246.418961 133.884262,249.460037 
	C158.923080,252.796738 183.896957,254.400406 208.629974,247.016861 
	C219.471848,243.780243 230.446808,240.973114 241.412598,238.171585 
	C261.500977,233.039398 281.526245,232.120361 301.359222,239.524719 
	C308.372070,242.142883 315.423004,244.660049 322.470856,247.183334 
	C339.375183,253.235443 356.025879,260.191925 373.265289,265.061554 
	C393.766449,270.852539 415.022461,270.975189 436.223511,269.335876 
	C442.193359,268.874237 448.167908,268.473602 454.570160,268.022522 
	C455.000000,279.323547 455.000000,290.647095 455.000000,301.965729 
	C303.666656,301.960815 152.333328,301.960815 1.000000,301.960815 
	C1.000000,295.593750 1.000000,289.265930 1.000005,282.469055 
z"/>
</svg>