<svg id="visual" viewBox="0 0 900 600" width="900" height="600" xmlns="http://www.w3.org/2000/svg" xmlns:xlink="http://www.w3.org/1999/xlink" version="1.1"><path d="M0 49L30 42C60 35 120 21 180 21C240 21 300 35 360 41C420 47 480 45 540 48C600 51 660 59 720 55C780 51 840 35 870 27L900 19L900 0L870 0C840 0 780 0 720 0C660 0 600 0 540 0C480 0 420 0 360 0C300 0 240 0 180 0C120 0 60 0 30 0L0 0Z" fill="#ffffff"></path><path d="M0 79L30 84C60 89 120 99 180 96C240 93 300 77 360 77C420 77 480 93 540 108C600 123 660 137 720 131C780 125 840 99 870 86L900 73L900 17L870 25C840 33 780 49 720 53C660 57 600 49 540 46C480 43 420 45 360 39C300 33 240 19 180 19C120 19 60 33 30 40L0 47Z" fill="#ffffff"></path><path d="M0 235L30 246C60 257 120 279 180 267C240 255 300 209 360 215C420 221 480 279 540 293C600 307 660 277 720 273C780 269 840 291 870 302L900 313L900 71L870 84C840 97 780 123 720 129C660 135 600 121 540 106C480 91 420 75 360 75C300 75 240 91 180 94C120 97 60 87 30 82L0 77Z" fill="#f8f8f8"></path><path d="M0 319L30 319C60 319 120 319 180 301C240 283 300 247 360 255C420 263 480 315 540 338C600 361 660 355 720 363C780 371 840 393 870 404L900 415L900 311L870 300C840 289 780 267 720 271C660 275 600 305 540 291C480 277 420 219 360 213C300 207 240 253 180 265C120 277 60 255 30 244L0 233Z" fill="#eeeeee"></path><path d="M0 373L30 365C60 357 120 341 180 325C240 309 300 293 360 302C420 311 480 345 540 368C600 391 660 403 720 411C780 419 840 423 870 425L900 427L900 413L870 402C840 391 780 369 720 361C660 353 600 359 540 336C480 313 420 261 360 253C300 245 240 281 180 299C120 317 60 317 30 317L0 317Z" fill="#eeeeee"></path><path d="M0 559L30 543C60 527 120 495 180 489C240 483 300 503 360 497C420 491 480 459 540 462C600 465 660 503 720 520C780 537 840 533 870 531L900 529L900 425L870 423C840 421 780 417 720 409C660 401 600 389 540 366C480 343 420 309 360 300C300 291 240 307 180 323C120 339 60 355 30 363L0 371Z" fill="#f8f8f8"></path><path d="M0 565L30 565C60 565 120 565 180 561C240 557 300 549 360 542C420 535 480 529 540 536C600 543 660 563 720 568C780 573 840 563 870 558L900 553L900 527L870 529C840 531 780 535 720 518C660 501 600 463 540 460C480 457 420 489 360 495C300 501 240 481 180 487C120 493 60 525 30 541L0 557Z" fill="#ffffff"></path><path d="M0 601L30 601C60 601 120 601 180 601C240 601 300 601 360 601C420 601 480 601 540 601C600 601 660 601 720 601C780 601 840 601 870 601L900 601L900 551L870 556C840 561 780 571 720 566C660 561 600 541 540 534C480 527 420 533 360 540C300 547 240 555 180 559C120 563 60 563 30 563L0 563Z" fill="#ffffff"></path></svg>